<svg width="456" height="298" viewBox="0 0 456 298" fill="none" xmlns="http://www.w3.org/2000/svg">
<g filter="url(#filter0_d_1_1537)">
<path d="M0 12.3757C0 5.5408 5.54081 0 12.3757 0H443.624C450.459 0 456 5.54081 456 12.3757V285.624C456 292.459 450.459 298 443.624 298H12.3757C5.54081 298 0 292.459 0 285.624V12.3757Z" fill="white"/>
</g>
<path d="M19.5837 117.5C19.5837 115.337 21.3372 113.583 23.5003 113.583H221.292C223.455 113.583 225.209 115.337 225.209 117.5V141C225.209 143.163 223.455 144.916 221.292 144.916H23.5003C21.3372 144.916 19.5837 143.163 19.5837 141V117.5Z" fill="white"/>
<path d="M23.5007 114.072H221.292C223.184 114.072 224.719 115.607 224.719 117.5V141C224.719 142.893 223.184 144.427 221.292 144.427H23.5007C21.6081 144.427 20.0731 142.893 20.0729 141V117.5C20.0729 115.607 21.6079 114.072 23.5007 114.072Z" stroke="black" stroke-opacity="0.06" stroke-width="0.979167"/>
<path d="M244.792 117.5C244.792 115.337 246.545 113.583 248.708 113.583H446.5C448.663 113.583 450.417 115.337 450.417 117.5V141C450.417 143.163 448.663 144.916 446.5 144.916H248.708C246.545 144.916 244.792 143.163 244.792 141V117.5Z" fill="white"/>
<path d="M248.709 114.072H446.5C448.393 114.072 449.928 115.607 449.928 117.5V141C449.927 142.893 448.392 144.427 446.5 144.427H248.709C246.816 144.427 245.281 142.893 245.281 141V117.5C245.281 115.607 246.816 114.072 248.709 114.072Z" stroke="black" stroke-opacity="0.06" stroke-width="0.979167"/>
<path d="M435.586 126.525L432.783 129.522L429.981 126.525C429.858 126.397 429.693 126.327 429.522 126.329C429.35 126.33 429.187 126.404 429.066 126.533C428.945 126.663 428.876 126.838 428.875 127.021C428.873 127.204 428.939 127.38 429.058 127.512L432.322 131.003C432.444 131.134 432.61 131.207 432.783 131.207C432.956 131.207 433.122 131.134 433.245 131.003L436.509 127.512C436.571 127.448 436.621 127.37 436.655 127.285C436.689 127.2 436.707 127.108 436.708 127.016C436.709 126.923 436.692 126.831 436.659 126.745C436.626 126.66 436.578 126.582 436.517 126.516C436.455 126.45 436.382 126.399 436.302 126.364C436.222 126.328 436.136 126.311 436.049 126.312C435.963 126.312 435.877 126.332 435.797 126.368C435.718 126.405 435.646 126.458 435.586 126.525Z" fill="#A7A7A7"/>
<path d="M25.1062 97.7748V102.792L21.5812 97.7748H20.3474V106H21.9689V100.971L25.4939 106H26.7277V97.7748H25.1062ZM33.5409 106H35.3034L32.4129 97.7748H30.4037L27.5249 106H29.2757L29.7692 104.519H33.0474L33.5409 106ZM30.2862 103.004L31.4142 99.643L32.5422 103.004H30.2862ZM44.1508 97.7748H42.4823L40.1323 101.664L37.7706 97.7748H36.1021V106H37.7236V100.677L40.0383 104.484H40.2263L42.5411 100.665V106H44.1508V97.7748ZM47.3049 104.449V102.604H50.4186V101.077H47.3049V99.3258H50.7124V97.7748H45.6834V106H50.7711V104.449H47.3049Z" fill="#B1B1B1"/>
<path d="M250.996 97.7748H244.945V99.3258H247.154V106H248.775V99.3258H250.996V97.7748ZM258.411 97.7748H256.578L254.792 101.206L253.006 97.7748H251.173L253.981 102.792V106H255.591V102.792L258.411 97.7748ZM262.266 97.7748H259.199V106H260.82V103.297H262.266C263.852 103.297 265.074 102.075 265.074 100.536C265.074 98.9968 263.852 97.7748 262.266 97.7748ZM262.266 101.782H260.82V99.2905H262.266C262.959 99.2905 263.464 99.8193 263.464 100.536C263.464 101.241 262.959 101.782 262.266 101.782ZM267.751 104.449V102.604H270.865V101.077H267.751V99.3258H271.159V97.7748H266.13V106H271.217V104.449H267.751Z" fill="#B1B1B1"/>
<circle cx="11.7497" cy="11.7497" r="3.91667" fill="#E5E5EB"/>
<circle cx="23.5003" cy="11.7497" r="3.91667" fill="#E5E5EB"/>
<circle cx="35.2504" cy="11.7497" r="3.91667" fill="#E5E5EB"/>
<g filter="url(#filter1_d_1_1537)">
<path d="M0 23H456V70H0V23Z" fill="white"/>
</g>
<rect x="416.917" y="45.0415" width="23.5" height="3.91667" rx="1.95833" fill="#ABD2FF"/>
<rect x="389.5" y="45.0415" width="23.5" height="3.91667" rx="1.95833" fill="#FFD3AB"/>
<path d="M51.6646 51.3312C53.1804 51.3312 54.5081 50.5675 55.2014 49.3925L53.8031 48.5817C53.4154 49.2985 52.6046 49.745 51.6646 49.745C50.0549 49.745 48.9974 48.6287 48.9974 47.0542C48.9974 45.468 50.0549 44.3517 51.6646 44.3517C52.6046 44.3517 53.4036 44.7982 53.8031 45.5267L55.2014 44.716C54.4964 43.541 53.1686 42.7772 51.6646 42.7772C49.1736 42.7772 47.3876 44.6455 47.3876 47.0542C47.3876 49.4512 49.1736 51.3312 51.6646 51.3312ZM57.7345 46.3022V45.2917H56.2188V51.1667H57.7345V48.3585C57.7345 47.1247 58.7333 46.7722 59.5205 46.8662V45.1742C58.7803 45.1742 58.04 45.5032 57.7345 46.3022ZM61.4697 48.852H65.8995C65.9347 48.6522 65.9582 48.4525 65.9582 48.2292C65.9582 46.502 64.7245 45.1272 62.9855 45.1272C61.1407 45.1272 59.8835 46.4785 59.8835 48.2292C59.8835 49.98 61.129 51.3312 63.103 51.3312C64.231 51.3312 65.1122 50.873 65.6645 50.074L64.4425 49.369C64.184 49.7097 63.714 49.9565 63.1265 49.9565C62.3275 49.9565 61.6812 49.6275 61.4697 48.852ZM61.4462 47.677C61.6225 46.925 62.1747 46.4902 62.9855 46.4902C63.62 46.4902 64.2545 46.831 64.4425 47.677H61.4462ZM71.4355 45.2917V45.985C71.0125 45.4562 70.378 45.1272 69.5202 45.1272C67.9575 45.1272 66.665 46.4785 66.665 48.2292C66.665 49.98 67.9575 51.3312 69.5202 51.3312C70.378 51.3312 71.0125 51.0022 71.4355 50.4735V51.1667H72.9512V45.2917H71.4355ZM69.8022 49.886C68.874 49.886 68.1807 49.2162 68.1807 48.2292C68.1807 47.2422 68.874 46.5725 69.8022 46.5725C70.7422 46.5725 71.4355 47.2422 71.4355 48.2292C71.4355 49.2162 70.7422 49.886 69.8022 49.886ZM77.6862 46.7487V45.2917H76.3584V43.6467L74.8427 44.105V45.2917H73.8204V46.7487H74.8427V49.1927C74.8427 50.779 75.5594 51.4017 77.6862 51.1667V49.792C76.8167 49.839 76.3584 49.8272 76.3584 49.1927V46.7487H77.6862ZM79.8521 48.852H84.2818C84.3171 48.6522 84.3406 48.4525 84.3406 48.2292C84.3406 46.502 83.1068 45.1272 81.3678 45.1272C79.5231 45.1272 78.2658 46.4785 78.2658 48.2292C78.2658 49.98 79.5113 51.3312 81.4853 51.3312C82.6133 51.3312 83.4946 50.873 84.0468 50.074L82.8248 49.369C82.5663 49.7097 82.0963 49.9565 81.5088 49.9565C80.7098 49.9565 80.0636 49.6275 79.8521 48.852ZM79.8286 47.677C80.0048 46.925 80.5571 46.4902 81.3678 46.4902C82.0023 46.4902 82.6368 46.831 82.8248 47.677H79.8286ZM91.7554 45.1272C90.8977 45.1272 90.2749 45.4445 89.8519 45.985V45.2917H88.3362V53.5167H89.8519V50.4735C90.2749 51.014 90.8977 51.3312 91.7554 51.3312C93.3299 51.3312 94.6224 49.98 94.6224 48.2292C94.6224 46.4785 93.3299 45.1272 91.7554 45.1272ZM91.4734 49.886C90.5452 49.886 89.8519 49.2162 89.8519 48.2292C89.8519 47.2422 90.5452 46.5725 91.4734 46.5725C92.4134 46.5725 93.1067 47.2422 93.1067 48.2292C93.1067 49.2162 92.4134 49.886 91.4734 49.886ZM97.2072 46.3022V45.2917H95.6914V51.1667H97.2072V48.3585C97.2072 47.1247 98.2059 46.7722 98.9932 46.8662V45.1742C98.2529 45.1742 97.5127 45.5032 97.2072 46.3022ZM102.458 51.3312C104.185 51.3312 105.572 49.98 105.572 48.2292C105.572 46.4785 104.185 45.1272 102.458 45.1272C100.731 45.1272 99.3561 46.4785 99.3561 48.2292C99.3561 49.98 100.731 51.3312 102.458 51.3312ZM102.458 49.8507C101.565 49.8507 100.872 49.181 100.872 48.2292C100.872 47.2775 101.565 46.6077 102.458 46.6077C103.363 46.6077 104.056 47.2775 104.056 48.2292C104.056 49.181 103.363 49.8507 102.458 49.8507ZM110.057 45.1272C109.2 45.1272 108.577 45.4445 108.154 45.985V45.2917H106.638V53.5167H108.154V50.4735C108.577 51.014 109.2 51.3312 110.057 51.3312C111.632 51.3312 112.924 49.98 112.924 48.2292C112.924 46.4785 111.632 45.1272 110.057 45.1272ZM109.775 49.886C108.847 49.886 108.154 49.2162 108.154 48.2292C108.154 47.2422 108.847 46.5725 109.775 46.5725C110.715 46.5725 111.409 47.2422 111.409 48.2292C111.409 49.2162 110.715 49.886 109.775 49.886ZM115.274 48.852H119.704C119.739 48.6522 119.763 48.4525 119.763 48.2292C119.763 46.502 118.529 45.1272 116.79 45.1272C114.945 45.1272 113.688 46.4785 113.688 48.2292C113.688 49.98 114.933 51.3312 116.907 51.3312C118.035 51.3312 118.917 50.873 119.469 50.074L118.247 49.369C117.988 49.7097 117.518 49.9565 116.931 49.9565C116.132 49.9565 115.486 49.6275 115.274 48.852ZM115.251 47.677C115.427 46.925 115.979 46.4902 116.79 46.4902C117.424 46.4902 118.059 46.831 118.247 47.677H115.251ZM122.337 46.3022V45.2917H120.821V51.1667H122.337V48.3585C122.337 47.1247 123.335 46.7722 124.123 46.8662V45.1742C123.382 45.1742 122.642 45.5032 122.337 46.3022ZM128.53 46.7487V45.2917H127.202V43.6467L125.687 44.105V45.2917H124.664V46.7487H125.687V49.1927C125.687 50.779 126.403 51.4017 128.53 51.1667V49.792C127.661 49.839 127.202 49.8272 127.202 49.1927V46.7487H128.53ZM133.556 45.2917L132.251 49.2397L130.724 45.2917H129.067L131.476 50.9787C131.194 51.766 130.771 52.1185 129.937 52.1067V53.5167C131.429 53.599 132.428 52.8587 133.039 51.1667L135.177 45.2917H133.556Z" fill="#656565"/>
<path d="M26.1434 52.5815L27.5143 51.2107L24.283 47.9795L34.2705 47.9795L34.2705 46.0211L24.283 46.0211L27.5143 42.7899L26.1434 41.419L20.5622 47.0003L26.1434 52.5815Z" fill="#87BEFF"/>
<path d="M0 168H456V285.624C456 292.459 450.459 298 443.624 298H12.3757C5.54081 298 0 292.459 0 285.624V168Z" fill="#F9F9FB"/>
<path d="M25.8655 228.275C25.1503 228.516 24.4695 228.636 23.8231 228.636C23.1805 228.636 22.6087 228.489 22.1076 228.195C21.6104 227.896 21.2221 227.495 20.9429 226.99C20.6637 226.481 20.5241 225.903 20.5241 225.257C20.5241 224.286 20.8397 223.479 21.4708 222.836C22.1057 222.193 22.8707 221.872 23.7657 221.872C24.4274 221.872 25.1273 221.996 25.8655 222.245V223.272C25.1197 222.932 24.4523 222.761 23.8632 222.761C23.4731 222.761 23.1059 222.859 22.7617 223.054C22.4174 223.245 22.1516 223.545 21.9642 223.955C21.7768 224.364 21.683 224.785 21.683 225.217C21.683 225.794 21.8628 226.345 22.2224 226.869C22.5857 227.393 23.1537 227.655 23.9263 227.655C24.1596 227.655 24.3891 227.64 24.6148 227.609C24.8405 227.575 25.2574 227.454 25.8655 227.248V228.275ZM30.1685 228.636C29.2505 228.636 28.5162 228.317 27.9654 227.678C27.4146 227.036 27.1392 226.227 27.1392 225.251C27.1392 224.276 27.4146 223.469 27.9654 222.83C28.5162 222.191 29.2505 221.872 30.1685 221.872C31.0827 221.872 31.8151 222.191 32.3659 222.83C32.9167 223.469 33.1921 224.276 33.1921 225.251C33.1921 226.227 32.9167 227.036 32.3659 227.678C31.8151 228.317 31.0827 228.636 30.1685 228.636ZM30.1685 227.747C30.7384 227.747 31.1917 227.525 31.5283 227.082C31.8648 226.638 32.0331 226.028 32.0331 225.251C32.0331 224.479 31.8648 223.871 31.5283 223.427C31.1917 222.983 30.7384 222.761 30.1685 222.761C29.5948 222.761 29.1396 222.983 28.803 223.427C28.4665 223.871 28.2982 224.479 28.2982 225.251C28.2982 226.028 28.4665 226.638 28.803 227.082C29.1396 227.525 29.5948 227.747 30.1685 227.747ZM34.5862 228.458V222.05H35.6534V223.45C35.9594 222.956 36.3285 222.57 36.7607 222.291C37.1929 222.012 37.6251 221.872 38.0573 221.872C38.436 221.872 38.7802 221.973 39.09 222.176C39.3998 222.375 39.6159 222.637 39.7383 222.962C39.8646 223.287 39.9277 223.926 39.9277 224.878V228.458H38.8605V224.746C38.8605 224.131 38.8299 223.725 38.7687 223.53C38.7114 223.331 38.6024 223.169 38.4417 223.042C38.2849 222.916 38.1128 222.853 37.9254 222.853C37.5505 222.853 37.147 223.031 36.7148 223.387C36.2864 223.742 35.9326 224.188 35.6534 224.724V228.458H34.5862ZM41.7177 228.12V226.99C42.1461 227.269 42.5993 227.466 43.0775 227.581C43.5556 227.692 43.961 227.747 44.2938 227.747C44.8331 227.747 45.2213 227.661 45.4584 227.489C45.6956 227.313 45.8141 227.095 45.8141 226.835C45.8141 226.663 45.7587 226.515 45.6478 226.393C45.5368 226.271 45.2615 226.12 44.8216 225.94L44.4544 225.791L43.7143 225.498C42.9187 225.188 42.4177 224.901 42.2111 224.637C42.0008 224.377 41.8956 224.06 41.8956 223.685C41.8956 223.157 42.0983 222.723 42.5037 222.383C42.913 222.042 43.5747 221.872 44.4888 221.872C45.1735 221.872 45.8218 221.972 46.4338 222.17V223.14C45.73 222.888 45.0683 222.761 44.4487 222.761C43.9973 222.761 43.6435 222.842 43.3873 223.002C43.1348 223.159 43.0086 223.356 43.0086 223.593C43.0086 223.823 43.1195 224.006 43.3414 224.144C43.5594 224.282 43.9151 224.44 44.4085 224.62L45.1314 224.884C45.7931 225.125 46.2578 225.387 46.5256 225.67C46.7933 225.953 46.9272 226.307 46.9272 226.732C46.9272 227.286 46.713 227.743 46.2846 228.103C45.86 228.458 45.1792 228.636 44.2421 228.636C43.4236 228.636 42.5821 228.464 41.7177 228.12ZM54.0587 228.2C53.5576 228.411 53.1942 228.535 52.9686 228.573C52.7429 228.615 52.5249 228.636 52.3145 228.636C51.867 228.636 51.4577 228.55 51.0867 228.378C50.7157 228.206 50.4346 227.952 50.2433 227.615C50.0559 227.279 49.9622 226.758 49.9622 226.055V223.473H48.3615V222.583H49.9622V220.002H51.0294V222.583H53.8808V223.473H51.0294V226.037C51.0294 226.554 51.0906 226.919 51.213 227.133C51.3353 227.344 51.4979 227.498 51.7006 227.598C51.9072 227.697 52.15 227.747 52.4293 227.747C52.9456 227.747 53.4887 227.585 54.0587 227.259V228.2ZM112.212 228.458V222.05H113.279V223.45C113.585 222.956 113.954 222.57 114.386 222.291C114.819 222.012 115.251 221.872 115.683 221.872C116.062 221.872 116.406 221.973 116.716 222.176C117.026 222.375 117.242 222.637 117.364 222.962C117.49 223.287 117.553 223.926 117.553 224.878V228.458H116.486V224.746C116.486 224.131 116.456 223.725 116.394 223.53C116.337 223.331 116.228 223.169 116.067 223.042C115.911 222.916 115.739 222.853 115.551 222.853C115.176 222.853 114.773 223.031 114.341 223.387C113.912 223.742 113.558 224.188 113.279 224.724V228.458H112.212ZM124.599 228.034C123.746 228.439 122.939 228.642 122.178 228.642C121.6 228.642 121.084 228.499 120.629 228.212C120.173 227.925 119.808 227.516 119.533 226.984C119.261 226.449 119.125 225.877 119.125 225.269C119.125 224.683 119.255 224.121 119.516 223.582C119.776 223.042 120.139 222.624 120.606 222.325C121.072 222.023 121.592 221.872 122.166 221.872C122.927 221.872 123.537 222.144 123.996 222.687C124.459 223.23 124.691 224.068 124.691 225.2V225.429H120.273C120.273 225.873 120.365 226.278 120.548 226.646C120.736 227.013 120.98 227.288 121.283 227.472C121.585 227.655 121.929 227.747 122.315 227.747C123.004 227.747 123.765 227.518 124.599 227.059V228.034ZM120.336 224.632H123.532V224.477C123.532 223.953 123.404 223.536 123.147 223.226C122.891 222.916 122.549 222.761 122.12 222.761C121.688 222.761 121.313 222.92 120.996 223.238C120.682 223.551 120.462 224.016 120.336 224.632ZM126.595 228.458L125.551 222.05H126.544L127.152 225.951L127.313 226.858L127.467 225.951L128.489 222.05H129.447L130.6 225.951L130.801 226.858L130.933 225.951L131.547 222.05H132.367L131.329 228.458H130.33L129.103 224.333L128.908 223.427H128.879L128.701 224.328L127.634 228.458H126.595Z" fill="#1EA4A9"/>
<path d="M64.3055 228.458V223.473H62.8826V222.583H64.3055V222.285C64.3055 221.44 64.4011 220.814 64.5923 220.409C64.7836 220.004 65.0781 219.671 65.4759 219.411C65.8775 219.151 66.4072 219.021 67.0651 219.021C67.5624 219.021 68.0672 219.072 68.5798 219.176V220.191C68.0252 220.007 67.5337 219.916 67.1053 219.916C66.7649 219.916 66.4646 219.979 66.2045 220.105C65.9444 220.231 65.7398 220.438 65.5906 220.725C65.4453 221.008 65.3726 221.49 65.3726 222.17V222.583H67.9142V223.473H65.3726V228.458H64.3055ZM71.6664 228.458V222.939H69.8879V222.05H72.7336V227.569H74.5179V228.458H71.6664ZM71.4886 219.738C71.4886 219.497 71.5708 219.317 71.7353 219.198C71.8998 219.08 72.0547 219.021 72.2 219.021C72.3492 219.021 72.506 219.08 72.6705 219.198C72.8349 219.317 72.9172 219.497 72.9172 219.738C72.9172 219.975 72.8349 220.153 72.6705 220.271C72.506 220.39 72.3492 220.449 72.2 220.449C72.0547 220.449 71.8998 220.39 71.7353 220.271C71.5708 220.153 71.4886 219.975 71.4886 219.738ZM78.6487 228.458V220.094H76.7325V219.198H79.7159V227.569H81.7182V228.458H78.6487ZM89.3144 228.034C88.4614 228.439 87.6544 228.642 86.8932 228.642C86.3157 228.642 85.7993 228.499 85.3442 228.212C84.889 227.925 84.5237 227.516 84.2484 226.984C83.9768 226.449 83.841 225.877 83.841 225.269C83.841 224.683 83.971 224.121 84.2311 223.582C84.4912 223.042 84.8546 222.624 85.3212 222.325C85.7879 222.023 86.308 221.872 86.8818 221.872C87.6429 221.872 88.253 222.144 88.712 222.687C89.1748 223.23 89.4062 224.068 89.4062 225.2V225.429H84.9885C84.9885 225.873 85.0803 226.278 85.2639 226.646C85.4513 227.013 85.6961 227.288 85.9982 227.472C86.3004 227.655 86.6446 227.747 87.0309 227.747C87.7194 227.747 88.4806 227.518 89.3144 227.059V228.034ZM85.0516 224.632H88.2473V224.477C88.2473 223.953 88.1191 223.536 87.8629 223.226C87.6066 222.916 87.2643 222.761 86.8359 222.761C86.4037 222.761 86.0288 222.92 85.7114 223.238C85.3977 223.551 85.1778 224.016 85.0516 224.632Z" fill="#5F9315"/>
<path d="M103.847 223.92V224.81H97.6163V223.92H103.847ZM103.847 225.923V226.812H97.6163V225.923H103.847Z" fill="#C82864"/>
<path d="M140.853 228.458H139.74L142.482 219.554H143.658L146.418 228.458H145.196L144.588 226.502H141.455L140.853 228.458ZM141.73 225.613H144.329L143.257 222.234L143.004 221.339L142.78 222.234L141.73 225.613ZM152.849 228.355C152.184 228.604 151.587 228.728 151.059 228.728C150.363 228.728 149.722 228.543 149.137 228.172C148.552 227.797 148.097 227.242 147.772 226.508C147.447 225.77 147.284 224.936 147.284 224.006C147.284 223.085 147.445 222.256 147.766 221.522C148.087 220.788 148.541 220.231 149.126 219.853C149.711 219.474 150.355 219.285 151.059 219.285C151.587 219.285 152.184 219.409 152.849 219.657V220.713C152.234 220.357 151.622 220.18 151.013 220.18C150.554 220.18 150.134 220.336 149.751 220.65C149.372 220.964 149.067 221.425 148.833 222.033C148.6 222.637 148.483 223.295 148.483 224.006C148.483 224.729 148.604 225.397 148.845 226.009C149.086 226.621 149.394 227.08 149.768 227.386C150.143 227.688 150.558 227.839 151.013 227.839C151.618 227.839 152.23 227.661 152.849 227.305V228.355ZM154.565 228.269V227.179C155.483 227.615 156.317 227.833 157.066 227.833C157.38 227.833 157.68 227.774 157.967 227.655C158.254 227.533 158.47 227.359 158.615 227.133C158.764 226.908 158.839 226.663 158.839 226.399C158.839 226.089 158.738 225.8 158.535 225.532C158.332 225.261 157.952 224.963 157.393 224.637L156.808 224.299L156.217 223.96C155.177 223.345 154.657 222.58 154.657 221.666C154.657 220.996 154.888 220.434 155.351 219.979C155.817 219.52 156.544 219.29 157.531 219.29C158.166 219.29 158.78 219.382 159.373 219.566V220.558C158.719 220.306 158.082 220.18 157.462 220.18C156.969 220.18 156.569 220.31 156.263 220.57C155.961 220.83 155.81 221.143 155.81 221.511C155.81 221.874 155.926 222.176 156.16 222.417C156.393 222.658 156.691 222.88 157.055 223.083L157.502 223.352L158.059 223.691L158.529 223.966C159.505 224.563 159.992 225.313 159.992 226.215C159.992 226.904 159.742 227.495 159.241 227.988C158.74 228.481 157.936 228.728 156.831 228.728C156.479 228.728 156.143 228.698 155.821 228.636C155.504 228.579 155.085 228.457 154.565 228.269ZM164.244 228.728C163.987 228.728 163.767 228.636 163.584 228.453C163.4 228.269 163.308 228.049 163.308 227.793C163.308 227.533 163.4 227.313 163.584 227.133C163.771 226.95 163.991 226.858 164.244 226.858C164.496 226.858 164.714 226.95 164.898 227.133C165.085 227.313 165.179 227.533 165.179 227.793C165.179 228.049 165.087 228.269 164.903 228.453C164.72 228.636 164.5 228.728 164.244 228.728ZM171.3 228.728C170.291 228.728 169.518 228.304 168.983 227.454C168.451 226.602 168.185 225.452 168.185 224.006C168.185 222.564 168.451 221.419 168.983 220.57C169.518 219.717 170.291 219.29 171.3 219.29C172.314 219.29 173.087 219.717 173.618 220.57C174.15 221.419 174.416 222.564 174.416 224.006C174.416 225.452 174.15 226.602 173.618 227.454C173.087 228.304 172.314 228.728 171.3 228.728ZM171.3 227.833C171.859 227.833 172.324 227.518 172.695 226.886C173.069 226.252 173.257 225.292 173.257 224.006C173.257 222.721 173.069 221.763 172.695 221.132C172.324 220.497 171.859 220.18 171.3 220.18C170.742 220.18 170.275 220.497 169.901 221.132C169.53 221.763 169.344 222.721 169.344 224.006C169.344 225.292 169.53 226.252 169.901 226.886C170.275 227.518 170.742 227.833 171.3 227.833ZM176.711 223.49C177.04 222.955 177.432 222.551 177.887 222.279C178.342 222.008 178.761 221.872 179.143 221.872C179.679 221.872 180.161 222.103 180.589 222.566C181.018 223.029 181.232 223.731 181.232 224.672C181.232 225.414 181.088 226.078 180.801 226.663C180.518 227.244 180.14 227.705 179.665 228.045C179.191 228.382 178.604 228.55 177.904 228.55C177.705 228.55 177.399 228.529 176.986 228.487C176.925 228.48 176.833 228.47 176.711 228.458H175.644V219.198H176.711V223.49ZM176.711 224.758V227.506C177.097 227.606 177.453 227.655 177.778 227.655C178.424 227.655 178.967 227.403 179.407 226.898C179.851 226.389 180.073 225.695 180.073 224.815C180.073 224.177 179.952 223.697 179.711 223.375C179.47 223.054 179.197 222.893 178.891 222.893C178.558 222.893 178.191 223.062 177.789 223.398C177.392 223.735 177.032 224.188 176.711 224.758ZM182.878 230.971V229.973C183.475 230.149 183.978 230.237 184.387 230.237C184.743 230.237 185.045 230.174 185.294 230.048C185.542 229.925 185.736 229.717 185.873 229.422C186.015 229.128 186.086 228.615 186.086 227.885V222.939H183.366V222.05H187.153V227.684C187.153 228.77 187.025 229.524 186.768 229.944C186.512 230.369 186.202 230.673 185.839 230.857C185.475 231.04 184.978 231.132 184.347 231.132C183.892 231.132 183.402 231.079 182.878 230.971ZM185.908 219.738C185.908 219.497 185.988 219.317 186.149 219.198C186.313 219.08 186.47 219.021 186.619 219.021C186.768 219.021 186.923 219.08 187.084 219.198C187.248 219.317 187.331 219.497 187.331 219.738C187.331 219.975 187.248 220.153 187.084 220.271C186.923 220.39 186.768 220.449 186.619 220.449C186.47 220.449 186.313 220.39 186.149 220.271C185.988 220.153 185.908 219.975 185.908 219.738ZM195.168 228.034C194.315 228.439 193.508 228.642 192.747 228.642C192.169 228.642 191.653 228.499 191.197 228.212C190.742 227.925 190.377 227.516 190.102 226.984C189.83 226.449 189.694 225.877 189.694 225.269C189.694 224.683 189.824 224.121 190.084 223.582C190.345 223.042 190.708 222.624 191.174 222.325C191.641 222.023 192.161 221.872 192.735 221.872C193.496 221.872 194.106 222.144 194.565 222.687C195.028 223.23 195.259 224.068 195.259 225.2V225.429H190.842C190.842 225.873 190.934 226.278 191.117 226.646C191.305 227.013 191.549 227.288 191.852 227.472C192.154 227.655 192.498 227.747 192.884 227.747C193.573 227.747 194.334 227.518 195.168 227.059V228.034ZM190.905 224.632H194.101V224.477C194.101 223.953 193.972 223.536 193.716 223.226C193.46 222.916 193.118 222.761 192.689 222.761C192.257 222.761 191.882 222.92 191.565 223.238C191.251 223.551 191.031 224.016 190.905 224.632ZM202.288 228.275C201.572 228.516 200.892 228.636 200.245 228.636C199.603 228.636 199.031 228.489 198.53 228.195C198.032 227.896 197.644 227.495 197.365 226.99C197.086 226.481 196.946 225.903 196.946 225.257C196.946 224.286 197.262 223.479 197.893 222.836C198.528 222.193 199.293 221.872 200.188 221.872C200.85 221.872 201.549 221.996 202.288 222.245V223.272C201.542 222.932 200.874 222.761 200.285 222.761C199.895 222.761 199.528 222.859 199.184 223.054C198.84 223.245 198.574 223.545 198.386 223.955C198.199 224.364 198.105 224.785 198.105 225.217C198.105 225.794 198.285 226.345 198.644 226.869C199.008 227.393 199.576 227.655 200.348 227.655C200.582 227.655 200.811 227.64 201.037 227.609C201.263 227.575 201.68 227.454 202.288 227.248V228.275ZM209.31 228.2C208.809 228.411 208.446 228.535 208.22 228.573C207.994 228.615 207.776 228.636 207.566 228.636C207.118 228.636 206.709 228.55 206.338 228.378C205.967 228.206 205.686 227.952 205.495 227.615C205.307 227.279 205.214 226.758 205.214 226.055V223.473H203.613V222.583H205.214V220.002H206.281V222.583H209.132V223.473H206.281V226.037C206.281 226.554 206.342 226.919 206.464 227.133C206.587 227.344 206.749 227.498 206.952 227.598C207.159 227.697 207.402 227.747 207.681 227.747C208.197 227.747 208.74 227.585 209.31 227.259V228.2ZM216.269 230.593C215.21 230.528 214.317 230.227 213.59 229.692C212.863 229.16 212.282 228.441 211.846 227.535C211.414 226.628 211.198 225.72 211.198 224.81C211.198 223.899 211.414 222.991 211.846 222.084C212.282 221.178 212.863 220.459 213.59 219.927C214.317 219.392 215.21 219.089 216.269 219.021V219.916C215.47 219.988 214.782 220.258 214.204 220.725C213.63 221.187 213.179 221.778 212.85 222.497C212.521 223.217 212.357 223.987 212.357 224.81C212.357 225.632 212.521 226.403 212.85 227.122C213.179 227.841 213.63 228.432 214.204 228.895C214.782 229.357 215.47 229.627 216.269 229.703V230.593ZM316.873 219.021C317.933 219.089 318.826 219.392 319.552 219.927C320.279 220.459 320.859 221.178 321.291 222.084C321.727 222.991 321.945 223.899 321.945 224.81C321.945 225.72 321.727 226.628 321.291 227.535C320.859 228.441 320.279 229.16 319.552 229.692C318.826 230.227 317.933 230.528 316.873 230.593V229.703C317.673 229.627 318.359 229.357 318.933 228.895C319.51 228.432 319.964 227.841 320.293 227.122C320.625 226.403 320.792 225.632 320.792 224.81C320.792 223.987 320.625 223.217 320.293 222.497C319.964 221.778 319.51 221.187 318.933 220.725C318.359 220.258 317.673 219.988 316.873 219.916V219.021Z" fill="#5A5A5A"/>
<path d="M221.095 222.761H220.326L219.723 219.198H221.68L221.095 222.761ZM226.614 228.458V223.473H225.191V222.583H226.614V222.285C226.614 221.44 226.709 220.814 226.901 220.409C227.092 220.004 227.386 219.671 227.784 219.411C228.186 219.151 228.716 219.021 229.373 219.021C229.871 219.021 230.376 219.072 230.888 219.176V220.191C230.334 220.007 229.842 219.916 229.414 219.916C229.073 219.916 228.773 219.979 228.513 220.105C228.253 220.231 228.048 220.438 227.899 220.725C227.754 221.008 227.681 221.49 227.681 222.17V222.583H230.223V223.473H227.681V228.458H226.614ZM233.975 228.458V222.939H232.196V222.05H235.042V227.569H236.826V228.458H233.975ZM233.797 219.738C233.797 219.497 233.879 219.317 234.044 219.198C234.208 219.08 234.363 219.021 234.508 219.021C234.658 219.021 234.814 219.08 234.979 219.198C235.143 219.317 235.226 219.497 235.226 219.738C235.226 219.975 235.143 220.153 234.979 220.271C234.814 220.39 234.658 220.449 234.508 220.449C234.363 220.449 234.208 220.39 234.044 220.271C233.879 220.153 233.797 219.975 233.797 219.738ZM240.957 228.458V220.094H239.041V219.198H242.024V227.569H244.027V228.458H240.957ZM251.623 228.034C250.77 228.439 249.963 228.642 249.202 228.642C248.624 228.642 248.108 228.499 247.653 228.212C247.197 227.925 246.832 227.516 246.557 226.984C246.285 226.449 246.149 225.877 246.149 225.269C246.149 224.683 246.279 224.121 246.539 223.582C246.8 223.042 247.163 222.624 247.63 222.325C248.096 222.023 248.616 221.872 249.19 221.872C249.951 221.872 250.561 222.144 251.02 222.687C251.483 223.23 251.715 224.068 251.715 225.2V225.429H247.297C247.297 225.873 247.389 226.278 247.572 226.646C247.76 227.013 248.004 227.288 248.307 227.472C248.609 227.655 248.953 227.747 249.339 227.747C250.028 227.747 250.789 227.518 251.623 227.059V228.034ZM247.36 224.632H250.556V224.477C250.556 223.953 250.427 223.536 250.171 223.226C249.915 222.916 249.573 222.761 249.144 222.761C248.712 222.761 248.337 222.92 248.02 223.238C247.706 223.551 247.486 224.016 247.36 224.632ZM258.703 228.355C258.037 228.604 257.44 228.728 256.913 228.728C256.216 228.728 255.576 228.543 254.991 228.172C254.405 227.797 253.95 227.242 253.625 226.508C253.3 225.77 253.137 224.936 253.137 224.006C253.137 223.085 253.298 222.256 253.619 221.522C253.941 220.788 254.394 220.231 254.979 219.853C255.564 219.474 256.209 219.285 256.913 219.285C257.44 219.285 258.037 219.409 258.703 219.657V220.713C258.087 220.357 257.475 220.18 256.867 220.18C256.408 220.18 255.987 220.336 255.604 220.65C255.226 220.964 254.92 221.425 254.686 222.033C254.453 222.637 254.336 223.295 254.336 224.006C254.336 224.729 254.457 225.397 254.698 226.009C254.939 226.621 255.247 227.08 255.622 227.386C255.996 227.688 256.411 227.839 256.867 227.839C257.471 227.839 258.083 227.661 258.703 227.305V228.355ZM263.046 228.636C262.128 228.636 261.393 228.317 260.843 227.678C260.292 227.036 260.016 226.227 260.016 225.251C260.016 224.276 260.292 223.469 260.843 222.83C261.393 222.191 262.128 221.872 263.046 221.872C263.96 221.872 264.692 222.191 265.243 222.83C265.794 223.469 266.069 224.276 266.069 225.251C266.069 226.227 265.794 227.036 265.243 227.678C264.692 228.317 263.96 228.636 263.046 228.636ZM263.046 227.747C263.616 227.747 264.069 227.525 264.405 227.082C264.742 226.638 264.91 226.028 264.91 225.251C264.91 224.479 264.742 223.871 264.405 223.427C264.069 222.983 263.616 222.761 263.046 222.761C262.472 222.761 262.017 222.983 261.68 223.427C261.344 223.871 261.175 224.479 261.175 225.251C261.175 226.028 261.344 226.638 261.68 227.082C262.017 227.525 262.472 227.747 263.046 227.747ZM267.463 228.458V222.05H268.531V223.45C268.837 222.956 269.206 222.57 269.638 222.291C270.07 222.012 270.502 221.872 270.935 221.872C271.313 221.872 271.657 221.973 271.967 222.176C272.277 222.375 272.493 222.637 272.616 222.962C272.742 223.287 272.805 223.926 272.805 224.878V228.458H271.738V224.746C271.738 224.131 271.707 223.725 271.646 223.53C271.589 223.331 271.48 223.169 271.319 223.042C271.162 222.916 270.99 222.853 270.803 222.853C270.428 222.853 270.024 223.031 269.592 223.387C269.164 223.742 268.81 224.188 268.531 224.724V228.458H267.463ZM279.879 228.2C279.378 228.411 279.015 228.535 278.789 228.573C278.563 228.615 278.345 228.636 278.135 228.636C277.687 228.636 277.278 228.55 276.907 228.378C276.536 228.206 276.255 227.952 276.064 227.615C275.876 227.279 275.783 226.758 275.783 226.055V223.473H274.182V222.583H275.783V220.002H276.85V222.583H279.701V223.473H276.85V226.037C276.85 226.554 276.911 226.919 277.033 227.133C277.156 227.344 277.318 227.498 277.521 227.598C277.727 227.697 277.97 227.747 278.25 227.747C278.766 227.747 279.309 227.585 279.879 227.259V228.2ZM286.907 228.034C286.054 228.439 285.247 228.642 284.486 228.642C283.908 228.642 283.392 228.499 282.937 228.212C282.482 227.925 282.117 227.516 281.841 226.984C281.57 226.449 281.434 225.877 281.434 225.269C281.434 224.683 281.564 224.121 281.824 223.582C282.084 223.042 282.447 222.624 282.914 222.325C283.381 222.023 283.901 221.872 284.475 221.872C285.236 221.872 285.846 222.144 286.305 222.687C286.768 223.23 286.999 224.068 286.999 225.2V225.429H282.581C282.581 225.873 282.673 226.278 282.857 226.646C283.044 227.013 283.289 227.288 283.591 227.472C283.893 227.655 284.237 227.747 284.624 227.747C285.312 227.747 286.073 227.518 286.907 227.059V228.034ZM282.644 224.632H285.84V224.477C285.84 223.953 285.712 223.536 285.456 223.226C285.199 222.916 284.857 222.761 284.429 222.761C283.996 222.761 283.622 222.92 283.304 223.238C282.99 223.551 282.771 224.016 282.644 224.632ZM288.634 228.458V222.05H289.701V223.45C290.007 222.956 290.376 222.57 290.809 222.291C291.241 222.012 291.673 221.872 292.105 221.872C292.484 221.872 292.828 221.973 293.138 222.176C293.448 222.375 293.664 222.637 293.786 222.962C293.912 223.287 293.976 223.926 293.976 224.878V228.458H292.908V224.746C292.908 224.131 292.878 223.725 292.817 223.53C292.759 223.331 292.65 223.169 292.49 223.042C292.333 222.916 292.161 222.853 291.973 222.853C291.598 222.853 291.195 223.031 290.763 223.387C290.334 223.742 289.98 224.188 289.701 224.724V228.458H288.634ZM301.05 228.2C300.549 228.411 300.185 228.535 299.96 228.573C299.734 228.615 299.516 228.636 299.305 228.636C298.858 228.636 298.449 228.55 298.078 228.378C297.707 228.206 297.426 227.952 297.234 227.615C297.047 227.279 296.953 226.758 296.953 226.055V223.473H295.352V222.583H296.953V220.002H298.02V222.583H300.872V223.473H298.02V226.037C298.02 226.554 298.082 226.919 298.204 227.133C298.326 227.344 298.489 227.498 298.692 227.598C298.898 227.697 299.141 227.747 299.42 227.747C299.937 227.747 300.48 227.585 301.05 227.259V228.2ZM302.822 228.12V226.99C303.251 227.269 303.704 227.466 304.182 227.581C304.66 227.692 305.066 227.747 305.398 227.747C305.938 227.747 306.326 227.661 306.563 227.489C306.8 227.313 306.919 227.095 306.919 226.835C306.919 226.663 306.863 226.515 306.753 226.393C306.642 226.271 306.366 226.12 305.926 225.94L305.559 225.791L304.819 225.498C304.023 225.188 303.522 224.901 303.316 224.637C303.105 224.377 303 224.06 303 223.685C303 223.157 303.203 222.723 303.608 222.383C304.018 222.042 304.679 221.872 305.594 221.872C306.278 221.872 306.927 221.972 307.539 222.17V223.14C306.835 222.888 306.173 222.761 305.553 222.761C305.102 222.761 304.748 222.842 304.492 223.002C304.24 223.159 304.113 223.356 304.113 223.593C304.113 223.823 304.224 224.006 304.446 224.144C304.664 224.282 305.02 224.44 305.513 224.62L306.236 224.884C306.898 225.125 307.363 225.387 307.63 225.67C307.898 225.953 308.032 226.307 308.032 226.732C308.032 227.286 307.818 227.743 307.389 228.103C306.965 228.458 306.284 228.636 305.347 228.636C304.528 228.636 303.687 228.464 302.822 228.12ZM312.834 222.761H312.065L311.463 219.198H313.419L312.834 222.761Z" fill="#E38800"/>
<path d="M25.8655 271.357C25.1503 271.598 24.4695 271.719 23.8231 271.719C23.1805 271.719 22.6087 271.572 22.1076 271.277C21.6104 270.979 21.2221 270.577 20.9429 270.072C20.6637 269.564 20.5241 268.986 20.5241 268.34C20.5241 267.368 20.8397 266.561 21.4708 265.918C22.1057 265.276 22.8707 264.955 23.7657 264.955C24.4274 264.955 25.1273 265.079 25.8655 265.328V266.354C25.1197 266.014 24.4523 265.844 23.8632 265.844C23.4731 265.844 23.1059 265.941 22.7617 266.136C22.4174 266.328 22.1516 266.628 21.9642 267.037C21.7768 267.446 21.683 267.867 21.683 268.299C21.683 268.877 21.8628 269.428 22.2224 269.952C22.5857 270.476 23.1537 270.738 23.9263 270.738C24.1596 270.738 24.3891 270.722 24.6148 270.692C24.8405 270.657 25.2574 270.537 25.8655 270.33V271.357ZM30.1685 271.719C29.2505 271.719 28.5162 271.399 27.9654 270.761C27.4146 270.118 27.1392 269.309 27.1392 268.334C27.1392 267.359 27.4146 266.551 27.9654 265.913C28.5162 265.274 29.2505 264.955 30.1685 264.955C31.0827 264.955 31.8151 265.274 32.3659 265.913C32.9167 266.551 33.1921 267.359 33.1921 268.334C33.1921 269.309 32.9167 270.118 32.3659 270.761C31.8151 271.399 31.0827 271.719 30.1685 271.719ZM30.1685 270.83C30.7384 270.83 31.1917 270.608 31.5283 270.164C31.8648 269.72 32.0331 269.11 32.0331 268.334C32.0331 267.561 31.8648 266.953 31.5283 266.509C31.1917 266.066 30.7384 265.844 30.1685 265.844C29.5948 265.844 29.1396 266.066 28.803 266.509C28.4665 266.953 28.2982 267.561 28.2982 268.334C28.2982 269.11 28.4665 269.72 28.803 270.164C29.1396 270.608 29.5948 270.83 30.1685 270.83ZM34.5862 271.541V265.132H35.6534V266.532C35.9594 266.039 36.3285 265.653 36.7607 265.373C37.1929 265.094 37.6251 264.955 38.0573 264.955C38.436 264.955 38.7802 265.056 39.09 265.259C39.3998 265.458 39.6159 265.72 39.7383 266.045C39.8646 266.37 39.9277 267.009 39.9277 267.961V271.541H38.8605V267.829C38.8605 267.213 38.8299 266.808 38.7687 266.613C38.7114 266.414 38.6024 266.251 38.4417 266.125C38.2849 265.999 38.1128 265.936 37.9254 265.936C37.5505 265.936 37.147 266.114 36.7148 266.469C36.2864 266.825 35.9326 267.271 35.6534 267.806V271.541H34.5862ZM41.7177 271.203V270.072C42.1461 270.351 42.5993 270.548 43.0775 270.663C43.5556 270.774 43.961 270.83 44.2938 270.83C44.8331 270.83 45.2213 270.744 45.4584 270.571C45.6956 270.395 45.8141 270.177 45.8141 269.917C45.8141 269.745 45.7587 269.598 45.6478 269.476C45.5368 269.353 45.2615 269.202 44.8216 269.022L44.4544 268.873L43.7143 268.581C42.9187 268.271 42.4177 267.984 42.2111 267.72C42.0008 267.46 41.8956 267.142 41.8956 266.768C41.8956 266.24 42.0983 265.806 42.5037 265.465C42.913 265.125 43.5747 264.955 44.4888 264.955C45.1735 264.955 45.8218 265.054 46.4338 265.253V266.223C45.73 265.97 45.0683 265.844 44.4487 265.844C43.9973 265.844 43.6435 265.924 43.3873 266.085C43.1348 266.242 43.0086 266.439 43.0086 266.676C43.0086 266.905 43.1195 267.089 43.3414 267.227C43.5594 267.364 43.9151 267.523 44.4085 267.703L45.1314 267.967C45.7931 268.208 46.2578 268.47 46.5256 268.753C46.7933 269.036 46.9272 269.39 46.9272 269.814C46.9272 270.369 46.713 270.826 46.2846 271.185C45.86 271.541 45.1792 271.719 44.2421 271.719C43.4236 271.719 42.5821 271.547 41.7177 271.203ZM54.0587 271.283C53.5576 271.493 53.1942 271.618 52.9686 271.656C52.7429 271.698 52.5249 271.719 52.3145 271.719C51.867 271.719 51.4577 271.633 51.0867 271.461C50.7157 271.289 50.4346 271.034 50.2433 270.698C50.0559 270.361 49.9622 269.841 49.9622 269.137V266.555H48.3615V265.666H49.9622V263.084H51.0294V265.666H53.8808V266.555H51.0294V269.12C51.0294 269.636 51.0906 270.002 51.213 270.216C51.3353 270.426 51.4979 270.581 51.7006 270.68C51.9072 270.78 52.15 270.83 52.4293 270.83C52.9456 270.83 53.4887 270.667 54.0587 270.342V271.283ZM112.212 271.541V265.132H113.279V266.532C113.585 266.039 113.954 265.653 114.386 265.373C114.819 265.094 115.251 264.955 115.683 264.955C116.062 264.955 116.406 265.056 116.716 265.259C117.026 265.458 117.242 265.72 117.364 266.045C117.49 266.37 117.553 267.009 117.553 267.961V271.541H116.486V267.829C116.486 267.213 116.456 266.808 116.394 266.613C116.337 266.414 116.228 266.251 116.067 266.125C115.911 265.999 115.739 265.936 115.551 265.936C115.176 265.936 114.773 266.114 114.341 266.469C113.912 266.825 113.558 267.271 113.279 267.806V271.541H112.212ZM124.599 271.116C123.746 271.522 122.939 271.725 122.178 271.725C121.6 271.725 121.084 271.581 120.629 271.294C120.173 271.007 119.808 270.598 119.533 270.067C119.261 269.531 119.125 268.959 119.125 268.351C119.125 267.766 119.255 267.204 119.516 266.664C119.776 266.125 120.139 265.706 120.606 265.408C121.072 265.106 121.592 264.955 122.166 264.955C122.927 264.955 123.537 265.226 123.996 265.769C124.459 266.312 124.691 267.15 124.691 268.282V268.512H120.273C120.273 268.955 120.365 269.361 120.548 269.728C120.736 270.095 120.98 270.371 121.283 270.554C121.585 270.738 121.929 270.83 122.315 270.83C123.004 270.83 123.765 270.6 124.599 270.141V271.116ZM120.336 267.714H123.532V267.559C123.532 267.035 123.404 266.618 123.147 266.309C122.891 265.999 122.549 265.844 122.12 265.844C121.688 265.844 121.313 266.003 120.996 266.32C120.682 266.634 120.462 267.098 120.336 267.714ZM126.595 271.541L125.551 265.132H126.544L127.152 269.034L127.313 269.94L127.467 269.034L128.489 265.132H129.447L130.6 269.034L130.801 269.94L130.933 269.034L131.547 265.132H132.367L131.329 271.541H130.33L129.103 267.416L128.908 266.509H128.879L128.701 267.41L127.634 271.541H126.595Z" fill="#1EA4A9"/>
<path d="M64.3055 271.541V266.555H62.8826V265.666H64.3055V265.368C64.3055 264.522 64.4011 263.897 64.5923 263.492C64.7836 263.086 65.0781 262.753 65.4759 262.493C65.8775 262.233 66.4072 262.103 67.0651 262.103C67.5624 262.103 68.0672 262.155 68.5798 262.258V263.274C68.0252 263.09 67.5337 262.998 67.1053 262.998C66.7649 262.998 66.4646 263.061 66.2045 263.188C65.9444 263.314 65.7398 263.52 65.5906 263.807C65.4453 264.09 65.3726 264.572 65.3726 265.253V265.666H67.9142V266.555H65.3726V271.541H64.3055ZM71.6664 271.541V266.022H69.8879V265.132H72.7336V270.652H74.5179V271.541H71.6664ZM71.4886 262.82C71.4886 262.579 71.5708 262.4 71.7353 262.281C71.8998 262.162 72.0547 262.103 72.2 262.103C72.3492 262.103 72.506 262.162 72.6705 262.281C72.8349 262.4 72.9172 262.579 72.9172 262.82C72.9172 263.057 72.8349 263.235 72.6705 263.354C72.506 263.472 72.3492 263.532 72.2 263.532C72.0547 263.532 71.8998 263.472 71.7353 263.354C71.5708 263.235 71.4886 263.057 71.4886 262.82ZM78.6487 271.541V263.176H76.7325V262.281H79.7159V270.652H81.7182V271.541H78.6487ZM89.3144 271.116C88.4614 271.522 87.6544 271.725 86.8932 271.725C86.3157 271.725 85.7993 271.581 85.3442 271.294C84.889 271.007 84.5237 270.598 84.2484 270.067C83.9768 269.531 83.841 268.959 83.841 268.351C83.841 267.766 83.971 267.204 84.2311 266.664C84.4912 266.125 84.8546 265.706 85.3212 265.408C85.7879 265.106 86.308 264.955 86.8818 264.955C87.6429 264.955 88.253 265.226 88.712 265.769C89.1748 266.312 89.4062 267.15 89.4062 268.282V268.512H84.9885C84.9885 268.955 85.0803 269.361 85.2639 269.728C85.4513 270.095 85.6961 270.371 85.9982 270.554C86.3004 270.738 86.6446 270.83 87.0309 270.83C87.7194 270.83 88.4806 270.6 89.3144 270.141V271.116ZM85.0516 267.714H88.2473V267.559C88.2473 267.035 88.1191 266.618 87.8629 266.309C87.6066 265.999 87.2643 265.844 86.8359 265.844C86.4037 265.844 86.0288 266.003 85.7114 266.32C85.3977 266.634 85.1778 267.098 85.0516 267.714Z" fill="#5F9315"/>
<path d="M103.847 267.003V267.892H97.6163V267.003H103.847ZM103.847 269.005V269.894H97.6163V269.005H103.847Z" fill="#C82864"/>
<path d="M140.853 271.541H139.74L142.482 262.637H143.658L146.418 271.541H145.196L144.588 269.585H141.455L140.853 271.541ZM141.73 268.695H144.329L143.257 265.316L143.004 264.421L142.78 265.316L141.73 268.695ZM152.849 271.438C152.184 271.686 151.587 271.811 151.059 271.811C150.363 271.811 149.722 271.625 149.137 271.254C148.552 270.879 148.097 270.325 147.772 269.59C147.447 268.852 147.284 268.018 147.284 267.089C147.284 266.167 147.445 265.339 147.766 264.605C148.087 263.87 148.541 263.314 149.126 262.935C149.711 262.556 150.355 262.367 151.059 262.367C151.587 262.367 152.184 262.491 152.849 262.74V263.796C152.234 263.44 151.622 263.262 151.013 263.262C150.554 263.262 150.134 263.419 149.751 263.733C149.372 264.046 149.067 264.507 148.833 265.115C148.6 265.72 148.483 266.377 148.483 267.089C148.483 267.812 148.604 268.479 148.845 269.091C149.086 269.703 149.394 270.162 149.768 270.468C150.143 270.77 150.558 270.921 151.013 270.921C151.618 270.921 152.23 270.744 152.849 270.388V271.438ZM154.565 271.352V270.262C155.483 270.698 156.317 270.916 157.066 270.916C157.38 270.916 157.68 270.856 157.967 270.738C158.254 270.615 158.47 270.441 158.615 270.216C158.764 269.99 158.839 269.745 158.839 269.481C158.839 269.172 158.738 268.883 158.535 268.615C158.332 268.343 157.952 268.045 157.393 267.72L156.808 267.381L156.217 267.043C155.177 266.427 154.657 265.662 154.657 264.748C154.657 264.079 154.888 263.516 155.351 263.061C155.817 262.602 156.544 262.373 157.531 262.373C158.166 262.373 158.78 262.465 159.373 262.648V263.641C158.719 263.388 158.082 263.262 157.462 263.262C156.969 263.262 156.569 263.392 156.263 263.652C155.961 263.912 155.81 264.226 155.81 264.593C155.81 264.957 155.926 265.259 156.16 265.5C156.393 265.741 156.691 265.962 157.055 266.165L157.502 266.435L158.059 266.773L158.529 267.049C159.505 267.645 159.992 268.395 159.992 269.298C159.992 269.986 159.742 270.577 159.241 271.071C158.74 271.564 157.936 271.811 156.831 271.811C156.479 271.811 156.143 271.78 155.821 271.719C155.504 271.661 155.085 271.539 154.565 271.352ZM164.244 271.811C163.987 271.811 163.767 271.719 163.584 271.535C163.4 271.352 163.308 271.132 163.308 270.875C163.308 270.615 163.4 270.395 163.584 270.216C163.771 270.032 163.991 269.94 164.244 269.94C164.496 269.94 164.714 270.032 164.898 270.216C165.085 270.395 165.179 270.615 165.179 270.875C165.179 271.132 165.087 271.352 164.903 271.535C164.72 271.719 164.5 271.811 164.244 271.811ZM171.3 271.811C170.291 271.811 169.518 271.386 168.983 270.537C168.451 269.684 168.185 268.535 168.185 267.089C168.185 265.647 168.451 264.501 168.983 263.652C169.518 262.799 170.291 262.373 171.3 262.373C172.314 262.373 173.087 262.799 173.618 263.652C174.15 264.501 174.416 265.647 174.416 267.089C174.416 268.535 174.15 269.684 173.618 270.537C173.087 271.386 172.314 271.811 171.3 271.811ZM171.3 270.916C171.859 270.916 172.324 270.6 172.695 269.969C173.069 269.334 173.257 268.374 173.257 267.089C173.257 265.804 173.069 264.846 172.695 264.214C172.324 263.58 171.859 263.262 171.3 263.262C170.742 263.262 170.275 263.58 169.901 264.214C169.53 264.846 169.344 265.804 169.344 267.089C169.344 268.374 169.53 269.334 169.901 269.969C170.275 270.6 170.742 270.916 171.3 270.916ZM176.711 266.573C177.04 266.037 177.432 265.634 177.887 265.362C178.342 265.09 178.761 264.955 179.143 264.955C179.679 264.955 180.161 265.186 180.589 265.649C181.018 266.112 181.232 266.813 181.232 267.754C181.232 268.496 181.088 269.16 180.801 269.745C180.518 270.327 180.14 270.788 179.665 271.128C179.191 271.465 178.604 271.633 177.904 271.633C177.705 271.633 177.399 271.612 176.986 271.57C176.925 271.562 176.833 271.552 176.711 271.541H175.644V262.281H176.711V266.573ZM176.711 267.84V270.589C177.097 270.688 177.453 270.738 177.778 270.738C178.424 270.738 178.967 270.485 179.407 269.98C179.851 269.472 180.073 268.778 180.073 267.898C180.073 267.259 179.952 266.779 179.711 266.458C179.47 266.136 179.197 265.976 178.891 265.976C178.558 265.976 178.191 266.144 177.789 266.481C177.392 266.817 177.032 267.271 176.711 267.84ZM182.878 274.054V273.056C183.475 273.232 183.978 273.32 184.387 273.32C184.743 273.32 185.045 273.256 185.294 273.13C185.542 273.008 185.736 272.799 185.873 272.505C186.015 272.21 186.086 271.698 186.086 270.967V266.022H183.366V265.132H187.153V270.766C187.153 271.853 187.025 272.606 186.768 273.027C186.512 273.452 186.202 273.756 185.839 273.939C185.475 274.123 184.978 274.215 184.347 274.215C183.892 274.215 183.402 274.161 182.878 274.054ZM185.908 262.82C185.908 262.579 185.988 262.4 186.149 262.281C186.313 262.162 186.47 262.103 186.619 262.103C186.768 262.103 186.923 262.162 187.084 262.281C187.248 262.4 187.331 262.579 187.331 262.82C187.331 263.057 187.248 263.235 187.084 263.354C186.923 263.472 186.768 263.532 186.619 263.532C186.47 263.532 186.313 263.472 186.149 263.354C185.988 263.235 185.908 263.057 185.908 262.82ZM195.168 271.116C194.315 271.522 193.508 271.725 192.747 271.725C192.169 271.725 191.653 271.581 191.197 271.294C190.742 271.007 190.377 270.598 190.102 270.067C189.83 269.531 189.694 268.959 189.694 268.351C189.694 267.766 189.824 267.204 190.084 266.664C190.345 266.125 190.708 265.706 191.174 265.408C191.641 265.106 192.161 264.955 192.735 264.955C193.496 264.955 194.106 265.226 194.565 265.769C195.028 266.312 195.259 267.15 195.259 268.282V268.512H190.842C190.842 268.955 190.934 269.361 191.117 269.728C191.305 270.095 191.549 270.371 191.852 270.554C192.154 270.738 192.498 270.83 192.884 270.83C193.573 270.83 194.334 270.6 195.168 270.141V271.116ZM190.905 267.714H194.101V267.559C194.101 267.035 193.972 266.618 193.716 266.309C193.46 265.999 193.118 265.844 192.689 265.844C192.257 265.844 191.882 266.003 191.565 266.32C191.251 266.634 191.031 267.098 190.905 267.714ZM202.288 271.357C201.572 271.598 200.892 271.719 200.245 271.719C199.603 271.719 199.031 271.572 198.53 271.277C198.032 270.979 197.644 270.577 197.365 270.072C197.086 269.564 196.946 268.986 196.946 268.34C196.946 267.368 197.262 266.561 197.893 265.918C198.528 265.276 199.293 264.955 200.188 264.955C200.85 264.955 201.549 265.079 202.288 265.328V266.354C201.542 266.014 200.874 265.844 200.285 265.844C199.895 265.844 199.528 265.941 199.184 266.136C198.84 266.328 198.574 266.628 198.386 267.037C198.199 267.446 198.105 267.867 198.105 268.299C198.105 268.877 198.285 269.428 198.644 269.952C199.008 270.476 199.576 270.738 200.348 270.738C200.582 270.738 200.811 270.722 201.037 270.692C201.263 270.657 201.68 270.537 202.288 270.33V271.357ZM209.31 271.283C208.809 271.493 208.446 271.618 208.22 271.656C207.994 271.698 207.776 271.719 207.566 271.719C207.118 271.719 206.709 271.633 206.338 271.461C205.967 271.289 205.686 271.034 205.495 270.698C205.307 270.361 205.214 269.841 205.214 269.137V266.555H203.613V265.666H205.214V263.084H206.281V265.666H209.132V266.555H206.281V269.12C206.281 269.636 206.342 270.002 206.464 270.216C206.587 270.426 206.749 270.581 206.952 270.68C207.159 270.78 207.402 270.83 207.681 270.83C208.197 270.83 208.74 270.667 209.31 270.342V271.283ZM216.269 273.675C215.21 273.61 214.317 273.31 213.59 272.775C212.863 272.243 212.282 271.524 211.846 270.617C211.414 269.711 211.198 268.802 211.198 267.892C211.198 266.982 211.414 266.073 211.846 265.167C212.282 264.26 212.863 263.541 213.59 263.01C214.317 262.474 215.21 262.172 216.269 262.103V262.998C215.47 263.071 214.782 263.34 214.204 263.807C213.63 264.27 213.179 264.861 212.85 265.58C212.521 266.299 212.357 267.07 212.357 267.892C212.357 268.714 212.521 269.485 212.85 270.204C213.179 270.923 213.63 271.514 214.204 271.977C214.782 272.44 215.47 272.71 216.269 272.786V273.675ZM316.873 262.103C317.933 262.172 318.826 262.474 319.552 263.01C320.279 263.541 320.859 264.26 321.291 265.167C321.727 266.073 321.945 266.982 321.945 267.892C321.945 268.802 321.727 269.711 321.291 270.617C320.859 271.524 320.279 272.243 319.552 272.775C318.826 273.31 317.933 273.61 316.873 273.675V272.786C317.673 272.71 318.359 272.44 318.933 271.977C319.51 271.514 319.964 270.923 320.293 270.204C320.625 269.485 320.792 268.714 320.792 267.892C320.792 267.07 320.625 266.299 320.293 265.58C319.964 264.861 319.51 264.27 318.933 263.807C318.359 263.34 317.673 263.071 316.873 262.998V262.103Z" fill="#5A5A5A"/>
<path d="M221.095 265.844H220.326L219.723 262.281H221.68L221.095 265.844ZM226.614 271.541V266.555H225.191V265.666H226.614V265.368C226.614 264.522 226.709 263.897 226.901 263.492C227.092 263.086 227.386 262.753 227.784 262.493C228.186 262.233 228.716 262.103 229.373 262.103C229.871 262.103 230.376 262.155 230.888 262.258V263.274C230.334 263.09 229.842 262.998 229.414 262.998C229.073 262.998 228.773 263.061 228.513 263.188C228.253 263.314 228.048 263.52 227.899 263.807C227.754 264.09 227.681 264.572 227.681 265.253V265.666H230.223V266.555H227.681V271.541H226.614ZM233.975 271.541V266.022H232.196V265.132H235.042V270.652H236.826V271.541H233.975ZM233.797 262.82C233.797 262.579 233.879 262.4 234.044 262.281C234.208 262.162 234.363 262.103 234.508 262.103C234.658 262.103 234.814 262.162 234.979 262.281C235.143 262.4 235.226 262.579 235.226 262.82C235.226 263.057 235.143 263.235 234.979 263.354C234.814 263.472 234.658 263.532 234.508 263.532C234.363 263.532 234.208 263.472 234.044 263.354C233.879 263.235 233.797 263.057 233.797 262.82ZM240.957 271.541V263.176H239.041V262.281H242.024V270.652H244.027V271.541H240.957ZM251.623 271.116C250.77 271.522 249.963 271.725 249.202 271.725C248.624 271.725 248.108 271.581 247.653 271.294C247.197 271.007 246.832 270.598 246.557 270.067C246.285 269.531 246.149 268.959 246.149 268.351C246.149 267.766 246.279 267.204 246.539 266.664C246.8 266.125 247.163 265.706 247.63 265.408C248.096 265.106 248.616 264.955 249.19 264.955C249.951 264.955 250.561 265.226 251.02 265.769C251.483 266.312 251.715 267.15 251.715 268.282V268.512H247.297C247.297 268.955 247.389 269.361 247.572 269.728C247.76 270.095 248.004 270.371 248.307 270.554C248.609 270.738 248.953 270.83 249.339 270.83C250.028 270.83 250.789 270.6 251.623 270.141V271.116ZM247.36 267.714H250.556V267.559C250.556 267.035 250.427 266.618 250.171 266.309C249.915 265.999 249.573 265.844 249.144 265.844C248.712 265.844 248.337 266.003 248.02 266.32C247.706 266.634 247.486 267.098 247.36 267.714ZM258.703 271.438C258.037 271.686 257.44 271.811 256.913 271.811C256.216 271.811 255.576 271.625 254.991 271.254C254.405 270.879 253.95 270.325 253.625 269.59C253.3 268.852 253.137 268.018 253.137 267.089C253.137 266.167 253.298 265.339 253.619 264.605C253.941 263.87 254.394 263.314 254.979 262.935C255.564 262.556 256.209 262.367 256.913 262.367C257.44 262.367 258.037 262.491 258.703 262.74V263.796C258.087 263.44 257.475 263.262 256.867 263.262C256.408 263.262 255.987 263.419 255.604 263.733C255.226 264.046 254.92 264.507 254.686 265.115C254.453 265.72 254.336 266.377 254.336 267.089C254.336 267.812 254.457 268.479 254.698 269.091C254.939 269.703 255.247 270.162 255.622 270.468C255.996 270.77 256.411 270.921 256.867 270.921C257.471 270.921 258.083 270.744 258.703 270.388V271.438ZM263.046 271.719C262.128 271.719 261.393 271.399 260.843 270.761C260.292 270.118 260.016 269.309 260.016 268.334C260.016 267.359 260.292 266.551 260.843 265.913C261.393 265.274 262.128 264.955 263.046 264.955C263.96 264.955 264.692 265.274 265.243 265.913C265.794 266.551 266.069 267.359 266.069 268.334C266.069 269.309 265.794 270.118 265.243 270.761C264.692 271.399 263.96 271.719 263.046 271.719ZM263.046 270.83C263.616 270.83 264.069 270.608 264.405 270.164C264.742 269.72 264.91 269.11 264.91 268.334C264.91 267.561 264.742 266.953 264.405 266.509C264.069 266.066 263.616 265.844 263.046 265.844C262.472 265.844 262.017 266.066 261.68 266.509C261.344 266.953 261.175 267.561 261.175 268.334C261.175 269.11 261.344 269.72 261.68 270.164C262.017 270.608 262.472 270.83 263.046 270.83ZM267.463 271.541V265.132H268.531V266.532C268.837 266.039 269.206 265.653 269.638 265.373C270.07 265.094 270.502 264.955 270.935 264.955C271.313 264.955 271.657 265.056 271.967 265.259C272.277 265.458 272.493 265.72 272.616 266.045C272.742 266.37 272.805 267.009 272.805 267.961V271.541H271.738V267.829C271.738 267.213 271.707 266.808 271.646 266.613C271.589 266.414 271.48 266.251 271.319 266.125C271.162 265.999 270.99 265.936 270.803 265.936C270.428 265.936 270.024 266.114 269.592 266.469C269.164 266.825 268.81 267.271 268.531 267.806V271.541H267.463ZM279.879 271.283C279.378 271.493 279.015 271.618 278.789 271.656C278.563 271.698 278.345 271.719 278.135 271.719C277.687 271.719 277.278 271.633 276.907 271.461C276.536 271.289 276.255 271.034 276.064 270.698C275.876 270.361 275.783 269.841 275.783 269.137V266.555H274.182V265.666H275.783V263.084H276.85V265.666H279.701V266.555H276.85V269.12C276.85 269.636 276.911 270.002 277.033 270.216C277.156 270.426 277.318 270.581 277.521 270.68C277.727 270.78 277.97 270.83 278.25 270.83C278.766 270.83 279.309 270.667 279.879 270.342V271.283ZM286.907 271.116C286.054 271.522 285.247 271.725 284.486 271.725C283.908 271.725 283.392 271.581 282.937 271.294C282.482 271.007 282.117 270.598 281.841 270.067C281.57 269.531 281.434 268.959 281.434 268.351C281.434 267.766 281.564 267.204 281.824 266.664C282.084 266.125 282.447 265.706 282.914 265.408C283.381 265.106 283.901 264.955 284.475 264.955C285.236 264.955 285.846 265.226 286.305 265.769C286.768 266.312 286.999 267.15 286.999 268.282V268.512H282.581C282.581 268.955 282.673 269.361 282.857 269.728C283.044 270.095 283.289 270.371 283.591 270.554C283.893 270.738 284.237 270.83 284.624 270.83C285.312 270.83 286.073 270.6 286.907 270.141V271.116ZM282.644 267.714H285.84V267.559C285.84 267.035 285.712 266.618 285.456 266.309C285.199 265.999 284.857 265.844 284.429 265.844C283.996 265.844 283.622 266.003 283.304 266.32C282.99 266.634 282.771 267.098 282.644 267.714ZM288.634 271.541V265.132H289.701V266.532C290.007 266.039 290.376 265.653 290.809 265.373C291.241 265.094 291.673 264.955 292.105 264.955C292.484 264.955 292.828 265.056 293.138 265.259C293.448 265.458 293.664 265.72 293.786 266.045C293.912 266.37 293.976 267.009 293.976 267.961V271.541H292.908V267.829C292.908 267.213 292.878 266.808 292.817 266.613C292.759 266.414 292.65 266.251 292.49 266.125C292.333 265.999 292.161 265.936 291.973 265.936C291.598 265.936 291.195 266.114 290.763 266.469C290.334 266.825 289.98 267.271 289.701 267.806V271.541H288.634ZM301.05 271.283C300.549 271.493 300.185 271.618 299.96 271.656C299.734 271.698 299.516 271.719 299.305 271.719C298.858 271.719 298.449 271.633 298.078 271.461C297.707 271.289 297.426 271.034 297.234 270.698C297.047 270.361 296.953 269.841 296.953 269.137V266.555H295.352V265.666H296.953V263.084H298.02V265.666H300.872V266.555H298.02V269.12C298.02 269.636 298.082 270.002 298.204 270.216C298.326 270.426 298.489 270.581 298.692 270.68C298.898 270.78 299.141 270.83 299.42 270.83C299.937 270.83 300.48 270.667 301.05 270.342V271.283ZM302.822 271.203V270.072C303.251 270.351 303.704 270.548 304.182 270.663C304.66 270.774 305.066 270.83 305.398 270.83C305.938 270.83 306.326 270.744 306.563 270.571C306.8 270.395 306.919 270.177 306.919 269.917C306.919 269.745 306.863 269.598 306.753 269.476C306.642 269.353 306.366 269.202 305.926 269.022L305.559 268.873L304.819 268.581C304.023 268.271 303.522 267.984 303.316 267.72C303.105 267.46 303 267.142 303 266.768C303 266.24 303.203 265.806 303.608 265.465C304.018 265.125 304.679 264.955 305.594 264.955C306.278 264.955 306.927 265.054 307.539 265.253V266.223C306.835 265.97 306.173 265.844 305.553 265.844C305.102 265.844 304.748 265.924 304.492 266.085C304.24 266.242 304.113 266.439 304.113 266.676C304.113 266.905 304.224 267.089 304.446 267.227C304.664 267.364 305.02 267.523 305.513 267.703L306.236 267.967C306.898 268.208 307.363 268.47 307.63 268.753C307.898 269.036 308.032 269.39 308.032 269.814C308.032 270.369 307.818 270.826 307.389 271.185C306.965 271.541 306.284 271.719 305.347 271.719C304.528 271.719 303.687 271.547 302.822 271.203ZM312.834 265.844H312.065L311.463 262.281H313.419L312.834 265.844Z" fill="#E38800"/>
<path d="M25.8655 249.816C25.1503 250.057 24.4695 250.178 23.8231 250.178C23.1805 250.178 22.6087 250.031 22.1076 249.736C21.6104 249.438 21.2221 249.036 20.9429 248.531C20.6637 248.023 20.5241 247.445 20.5241 246.799C20.5241 245.827 20.8397 245.02 21.4708 244.377C22.1057 243.735 22.8707 243.414 23.7657 243.414C24.4274 243.414 25.1273 243.538 25.8655 243.786V244.813C25.1197 244.473 24.4523 244.303 23.8632 244.303C23.4731 244.303 23.1059 244.4 22.7617 244.595C22.4174 244.787 22.1516 245.087 21.9642 245.496C21.7768 245.905 21.683 246.326 21.683 246.758C21.683 247.336 21.8628 247.887 22.2224 248.411C22.5857 248.935 23.1537 249.197 23.9263 249.197C24.1596 249.197 24.3891 249.181 24.6148 249.151C24.8405 249.116 25.2574 248.996 25.8655 248.789V249.816ZM30.1685 250.178C29.2505 250.178 28.5162 249.858 27.9654 249.22C27.4146 248.577 27.1392 247.768 27.1392 246.793C27.1392 245.818 27.4146 245.01 27.9654 244.372C28.5162 243.733 29.2505 243.414 30.1685 243.414C31.0827 243.414 31.8151 243.733 32.3659 244.372C32.9167 245.01 33.1921 245.818 33.1921 246.793C33.1921 247.768 32.9167 248.577 32.3659 249.22C31.8151 249.858 31.0827 250.178 30.1685 250.178ZM30.1685 249.289C30.7384 249.289 31.1917 249.067 31.5283 248.623C31.8648 248.179 32.0331 247.569 32.0331 246.793C32.0331 246.02 31.8648 245.412 31.5283 244.968C31.1917 244.525 30.7384 244.303 30.1685 244.303C29.5948 244.303 29.1396 244.525 28.803 244.968C28.4665 245.412 28.2982 246.02 28.2982 246.793C28.2982 247.569 28.4665 248.179 28.803 248.623C29.1396 249.067 29.5948 249.289 30.1685 249.289ZM34.5862 250V243.591H35.6534V244.991C35.9594 244.498 36.3285 244.112 36.7607 243.832C37.1929 243.553 37.6251 243.414 38.0573 243.414C38.436 243.414 38.7802 243.515 39.09 243.718C39.3998 243.917 39.6159 244.179 39.7383 244.504C39.8646 244.829 39.9277 245.468 39.9277 246.42V250H38.8605V246.288C38.8605 245.672 38.8299 245.267 38.7687 245.072C38.7114 244.873 38.6024 244.71 38.4417 244.584C38.2849 244.458 38.1128 244.395 37.9254 244.395C37.5505 244.395 37.147 244.573 36.7148 244.928C36.2864 245.284 35.9326 245.73 35.6534 246.265V250H34.5862ZM41.7177 249.661V248.531C42.1461 248.81 42.5993 249.007 43.0775 249.122C43.5556 249.233 43.961 249.289 44.2938 249.289C44.8331 249.289 45.2213 249.203 45.4584 249.03C45.6956 248.854 45.8141 248.636 45.8141 248.376C45.8141 248.204 45.7587 248.057 45.6478 247.935C45.5368 247.812 45.2615 247.661 44.8216 247.481L44.4544 247.332L43.7143 247.04C42.9187 246.73 42.4177 246.443 42.2111 246.179C42.0008 245.919 41.8956 245.601 41.8956 245.227C41.8956 244.699 42.0983 244.265 42.5037 243.924C42.913 243.584 43.5747 243.414 44.4888 243.414C45.1735 243.414 45.8218 243.513 46.4338 243.712V244.682C45.73 244.429 45.0683 244.303 44.4487 244.303C43.9973 244.303 43.6435 244.383 43.3873 244.544C43.1348 244.701 43.0086 244.898 43.0086 245.135C43.0086 245.364 43.1195 245.548 43.3414 245.686C43.5594 245.823 43.9151 245.982 44.4085 246.162L45.1314 246.426C45.7931 246.667 46.2578 246.929 46.5256 247.212C46.7933 247.495 46.9272 247.849 46.9272 248.273C46.9272 248.828 46.713 249.285 46.2846 249.644C45.86 250 45.1792 250.178 44.2421 250.178C43.4236 250.178 42.5821 250.006 41.7177 249.661ZM54.0587 249.742C53.5576 249.952 53.1942 250.076 52.9686 250.115C52.7429 250.157 52.5249 250.178 52.3145 250.178C51.867 250.178 51.4577 250.092 51.0867 249.92C50.7157 249.748 50.4346 249.493 50.2433 249.157C50.0559 248.82 49.9622 248.3 49.9622 247.596V245.014H48.3615V244.125H49.9622V241.543H51.0294V244.125H53.8808V245.014H51.0294V247.579C51.0294 248.095 51.0906 248.46 51.213 248.675C51.3353 248.885 51.4979 249.04 51.7006 249.139C51.9072 249.239 52.15 249.289 52.4293 249.289C52.9456 249.289 53.4887 249.126 54.0587 248.801V249.742Z" fill="#1EA4A9"/>
<path d="M62.8138 250V243.591H63.8809V244.991C64.1869 244.498 64.556 244.112 64.9882 243.832C65.4204 243.553 65.8526 243.414 66.2849 243.414C66.6635 243.414 67.0078 243.515 67.3176 243.718C67.6274 243.917 67.8435 244.179 67.9659 244.504C68.0921 244.829 68.1552 245.468 68.1552 246.42V250H67.0881V246.288C67.0881 245.672 67.0575 245.267 66.9963 245.072C66.9389 244.873 66.8299 244.71 66.6693 244.584C66.5124 244.458 66.3403 244.395 66.1529 244.395C65.7781 244.395 65.3745 244.573 64.9423 244.928C64.5139 245.284 64.1601 245.73 63.8809 246.265V250H62.8138ZM75.2006 249.575C74.3477 249.981 73.5406 250.184 72.7795 250.184C72.2019 250.184 71.6856 250.04 71.2304 249.753C70.7752 249.466 70.41 249.057 70.1346 248.526C69.863 247.99 69.7272 247.418 69.7272 246.81C69.7272 246.225 69.8573 245.663 70.1174 245.123C70.3775 244.584 70.7408 244.165 71.2075 243.867C71.6741 243.565 72.1943 243.414 72.768 243.414C73.5292 243.414 74.1392 243.685 74.5982 244.228C75.061 244.771 75.2924 245.609 75.2924 246.741V246.971H70.8747C70.8747 247.414 70.9665 247.82 71.1501 248.187C71.3375 248.554 71.5823 248.83 71.8845 249.013C72.1866 249.197 72.5309 249.289 72.9172 249.289C73.6057 249.289 74.3668 249.059 75.2006 248.6V249.575ZM70.9378 246.173H74.1335V246.018C74.1335 245.494 74.0054 245.077 73.7491 244.768C73.4928 244.458 73.1505 244.303 72.7221 244.303C72.2899 244.303 71.9151 244.462 71.5976 244.779C71.284 245.093 71.064 245.557 70.9378 246.173ZM77.1972 250L76.153 243.591H77.1456L77.7537 247.493L77.9144 248.399L78.0693 247.493L79.0905 243.591H80.0486L81.2018 247.493L81.4026 248.399L81.5346 247.493L82.1485 243.591H82.9689L81.9305 250H80.9322L79.7044 245.875L79.5093 244.968H79.4807L79.3028 245.869L78.2357 250H77.1972ZM86.6179 250.27C85.6081 250.27 84.8355 249.845 84.3 248.996C83.7683 248.143 83.5025 246.994 83.5025 245.548C83.5025 244.106 83.7683 242.96 84.3 242.111C84.8355 241.258 85.6081 240.832 86.6179 240.832C87.6314 240.832 88.4041 241.258 88.9357 242.111C89.4674 242.96 89.7332 244.106 89.7332 245.548C89.7332 246.994 89.4674 248.143 88.9357 248.996C88.4041 249.845 87.6314 250.27 86.6179 250.27ZM86.6179 249.375C87.1763 249.375 87.641 249.059 88.012 248.428C88.3869 247.793 88.5743 246.833 88.5743 245.548C88.5743 244.263 88.3869 243.305 88.012 242.673C87.641 242.039 87.1763 241.721 86.6179 241.721C86.0594 241.721 85.5928 242.039 85.218 242.673C84.8469 243.305 84.6614 244.263 84.6614 245.548C84.6614 246.833 84.8469 247.793 85.218 248.428C85.5928 249.059 86.0594 249.375 86.6179 249.375ZM92.0281 245.031C92.3571 244.496 92.7491 244.092 93.2043 243.821C93.6594 243.549 94.0783 243.414 94.4608 243.414C94.9962 243.414 95.4782 243.645 95.9066 244.108C96.3349 244.571 96.5491 245.272 96.5491 246.213C96.5491 246.955 96.4057 247.619 96.1188 248.204C95.8358 248.786 95.4571 249.247 94.9828 249.587C94.5086 249.924 93.9214 250.092 93.2215 250.092C93.0226 250.092 92.7166 250.071 92.3035 250.029C92.2423 250.021 92.1505 250.011 92.0281 250H90.961V240.74H92.0281V245.031ZM92.0281 246.299V249.048C92.4144 249.147 92.7702 249.197 93.0953 249.197C93.7417 249.197 94.2848 248.944 94.7247 248.439C95.1684 247.931 95.3902 247.237 95.3902 246.357C95.3902 245.718 95.2697 245.238 95.0287 244.917C94.7878 244.595 94.5143 244.435 94.2083 244.435C93.8755 244.435 93.5084 244.603 93.1068 244.94C92.709 245.276 92.3494 245.73 92.0281 246.299ZM98.1957 252.513V251.515C98.7924 251.691 99.2954 251.779 99.7047 251.779C100.06 251.779 100.363 251.715 100.611 251.589C100.86 251.467 101.053 251.258 101.191 250.964C101.332 250.669 101.403 250.157 101.403 249.426V244.481H98.6834V243.591H102.47V249.225C102.47 250.312 102.342 251.065 102.086 251.486C101.829 251.911 101.52 252.215 101.156 252.398C100.793 252.582 100.296 252.674 99.6645 252.674C99.2093 252.674 98.7197 252.62 98.1957 252.513ZM101.225 241.279C101.225 241.038 101.305 240.859 101.466 240.74C101.63 240.621 101.787 240.562 101.936 240.562C102.086 240.562 102.241 240.621 102.401 240.74C102.566 240.859 102.648 241.038 102.648 241.279C102.648 241.516 102.566 241.694 102.401 241.813C102.241 241.931 102.086 241.991 101.936 241.991C101.787 241.991 101.63 241.931 101.466 241.813C101.305 241.694 101.225 241.516 101.225 241.279ZM110.485 249.575C109.632 249.981 108.825 250.184 108.064 250.184C107.486 250.184 106.97 250.04 106.515 249.753C106.06 249.466 105.694 249.057 105.419 248.526C105.147 247.99 105.012 247.418 105.012 246.81C105.012 246.225 105.142 245.663 105.402 245.123C105.662 244.584 106.025 244.165 106.492 243.867C106.959 243.565 107.479 243.414 108.052 243.414C108.814 243.414 109.424 243.685 109.883 244.228C110.345 244.771 110.577 245.609 110.577 246.741V246.971H106.159C106.159 247.414 106.251 247.82 106.435 248.187C106.622 248.554 106.867 248.83 107.169 249.013C107.471 249.197 107.815 249.289 108.202 249.289C108.89 249.289 109.651 249.059 110.485 248.6V249.575ZM106.222 246.173H109.418V246.018C109.418 245.494 109.29 245.077 109.034 244.768C108.777 244.458 108.435 244.303 108.007 244.303C107.574 244.303 107.199 244.462 106.882 244.779C106.568 245.093 106.348 245.557 106.222 246.173ZM117.605 249.816C116.89 250.057 116.209 250.178 115.563 250.178C114.92 250.178 114.348 250.031 113.847 249.736C113.35 249.438 112.962 249.036 112.682 248.531C112.403 248.023 112.264 247.445 112.264 246.799C112.264 245.827 112.579 245.02 113.21 244.377C113.845 243.735 114.61 243.414 115.505 243.414C116.167 243.414 116.867 243.538 117.605 243.786V244.813C116.859 244.473 116.192 244.303 115.603 244.303C115.213 244.303 114.845 244.4 114.501 244.595C114.157 244.787 113.891 245.087 113.704 245.496C113.516 245.905 113.423 246.326 113.423 246.758C113.423 247.336 113.602 247.887 113.962 248.411C114.325 248.935 114.893 249.197 115.666 249.197C115.899 249.197 116.129 249.181 116.354 249.151C116.58 249.116 116.997 248.996 117.605 248.789V249.816ZM124.628 249.742C124.126 249.952 123.763 250.076 123.537 250.115C123.312 250.157 123.094 250.178 122.883 250.178C122.436 250.178 122.027 250.092 121.656 249.92C121.285 249.748 121.003 249.493 120.812 249.157C120.625 248.82 120.531 248.3 120.531 247.596V245.014H118.93V244.125H120.531V241.543H121.598V244.125H124.45V245.014H121.598V247.579C121.598 248.095 121.659 248.46 121.782 248.675C121.904 248.885 122.067 249.04 122.269 249.139C122.476 249.239 122.719 249.289 122.998 249.289C123.514 249.289 124.058 249.126 124.628 248.801V249.742Z" fill="#5F9315"/>
<path d="M139.131 245.462V246.351H132.901V245.462H139.131ZM139.131 247.464V248.353H132.901V247.464H139.131Z" fill="#C82864"/>
<path d="M151.776 248.56C151.451 249.095 151.059 249.499 150.6 249.771C150.145 250.042 149.726 250.178 149.344 250.178C148.808 250.178 148.326 249.946 147.898 249.484C147.473 249.021 147.261 248.319 147.261 247.378C147.261 246.636 147.403 245.974 147.686 245.393C147.969 244.808 148.347 244.347 148.822 244.01C149.296 243.67 149.883 243.5 150.583 243.5C150.786 243.5 151.092 243.521 151.501 243.563C151.562 243.57 151.654 243.58 151.776 243.591V240.74H152.849V250H151.776V248.56ZM151.776 247.292V244.544C151.398 244.444 151.046 244.395 150.721 244.395C150.063 244.395 149.514 244.649 149.074 245.158C148.638 245.666 148.42 246.359 148.42 247.235C148.42 247.87 148.539 248.35 148.776 248.675C149.017 248.996 149.29 249.157 149.596 249.157C149.929 249.157 150.296 248.988 150.698 248.652C151.099 248.315 151.459 247.862 151.776 247.292ZM159.883 249.575C159.03 249.981 158.223 250.184 157.462 250.184C156.885 250.184 156.368 250.04 155.913 249.753C155.458 249.466 155.093 249.057 154.817 248.526C154.546 247.99 154.41 247.418 154.41 246.81C154.41 246.225 154.54 245.663 154.8 245.123C155.06 244.584 155.423 244.165 155.89 243.867C156.357 243.565 156.877 243.414 157.451 243.414C158.212 243.414 158.822 243.685 159.281 244.228C159.744 244.771 159.975 245.609 159.975 246.741V246.971H155.557C155.557 247.414 155.649 247.82 155.833 248.187C156.02 248.554 156.265 248.83 156.567 249.013C156.869 249.197 157.213 249.289 157.6 249.289C158.288 249.289 159.049 249.059 159.883 248.6V249.575ZM155.62 246.173H158.816V246.018C158.816 245.494 158.688 245.077 158.432 244.768C158.175 244.458 157.833 244.303 157.405 244.303C156.973 244.303 156.598 244.462 156.28 244.779C155.967 245.093 155.747 245.557 155.62 246.173ZM162.597 245.031C162.926 244.496 163.318 244.092 163.773 243.821C164.228 243.549 164.647 243.414 165.03 243.414C165.565 243.414 166.047 243.645 166.475 244.108C166.904 244.571 167.118 245.272 167.118 246.213C167.118 246.955 166.975 247.619 166.688 248.204C166.405 248.786 166.026 249.247 165.552 249.587C165.077 249.924 164.49 250.092 163.79 250.092C163.591 250.092 163.285 250.071 162.872 250.029C162.811 250.021 162.719 250.011 162.597 250V252.49H161.53V243.591H162.597V245.031ZM162.597 246.299V249.048C162.983 249.147 163.339 249.197 163.664 249.197C164.311 249.197 164.854 248.944 165.294 248.439C165.737 247.931 165.959 247.237 165.959 246.357C165.959 245.718 165.839 245.238 165.598 244.917C165.357 244.595 165.083 244.435 164.777 244.435C164.444 244.435 164.077 244.603 163.676 244.94C163.278 245.276 162.918 245.73 162.597 246.299ZM171.306 250.178C170.388 250.178 169.654 249.858 169.103 249.22C168.552 248.577 168.277 247.768 168.277 246.793C168.277 245.818 168.552 245.01 169.103 244.372C169.654 243.733 170.388 243.414 171.306 243.414C172.22 243.414 172.953 243.733 173.504 244.372C174.054 245.01 174.33 245.818 174.33 246.793C174.33 247.768 174.054 248.577 173.504 249.22C172.953 249.858 172.22 250.178 171.306 250.178ZM171.306 249.289C171.876 249.289 172.329 249.067 172.666 248.623C173.003 248.179 173.171 247.569 173.171 246.793C173.171 246.02 173.003 245.412 172.666 244.968C172.329 244.525 171.876 244.303 171.306 244.303C170.732 244.303 170.277 244.525 169.941 244.968C169.604 245.412 169.436 246.02 169.436 246.793C169.436 247.569 169.604 248.179 169.941 248.623C170.277 249.067 170.732 249.289 171.306 249.289ZM181.083 249.742C180.582 249.952 180.218 250.076 179.992 250.115C179.767 250.157 179.549 250.178 179.338 250.178C178.891 250.178 178.482 250.092 178.111 249.92C177.74 249.748 177.459 249.493 177.267 249.157C177.08 248.82 176.986 248.3 176.986 247.596V245.014H175.385V244.125H176.986V241.543H178.053V244.125H180.905V245.014H178.053V247.579C178.053 248.095 178.114 248.46 178.237 248.675C178.359 248.885 178.522 249.04 178.725 249.139C178.931 249.239 179.174 249.289 179.453 249.289C179.97 249.289 180.513 249.126 181.083 248.801V249.742ZM185.414 250.27C185.158 250.27 184.938 250.178 184.754 249.994C184.571 249.811 184.479 249.591 184.479 249.334C184.479 249.074 184.571 248.854 184.754 248.675C184.942 248.491 185.162 248.399 185.414 248.399C185.667 248.399 185.885 248.491 186.068 248.675C186.256 248.854 186.349 249.074 186.349 249.334C186.349 249.591 186.258 249.811 186.074 249.994C185.89 250.178 185.671 250.27 185.414 250.27ZM195.11 243.591V250H194.043V248.594C193.699 249.122 193.316 249.518 192.896 249.782C192.475 250.046 192.054 250.178 191.633 250.178C191.259 250.178 190.914 250.078 190.601 249.88C190.291 249.677 190.075 249.413 189.952 249.088C189.83 248.759 189.769 248.12 189.769 247.172V243.591H190.836V247.303C190.836 247.919 190.865 248.327 190.922 248.526C190.983 248.721 191.092 248.881 191.249 249.007C191.41 249.134 191.582 249.197 191.765 249.197C192.14 249.197 192.542 249.021 192.97 248.669C193.402 248.313 193.76 247.866 194.043 247.326V243.591H195.11ZM197.881 245.031C198.21 244.496 198.602 244.092 199.058 243.821C199.513 243.549 199.932 243.414 200.314 243.414C200.85 243.414 201.331 243.645 201.76 244.108C202.188 244.571 202.402 245.272 202.402 246.213C202.402 246.955 202.259 247.619 201.972 248.204C201.689 248.786 201.31 249.247 200.836 249.587C200.362 249.924 199.775 250.092 199.075 250.092C198.876 250.092 198.57 250.071 198.157 250.029C198.096 250.021 198.004 250.011 197.881 250V252.49H196.814V243.591H197.881V245.031ZM197.881 246.299V249.048C198.268 249.147 198.623 249.197 198.949 249.197C199.595 249.197 200.138 248.944 200.578 248.439C201.022 247.931 201.243 247.237 201.243 246.357C201.243 245.718 201.123 245.238 200.882 244.917C200.641 244.595 200.368 244.435 200.062 244.435C199.729 244.435 199.362 244.603 198.96 244.94C198.562 245.276 198.203 245.73 197.881 246.299ZM205.673 250V241.635H203.756V240.74H206.74V249.111H208.742V250H205.673ZM213.648 250.178C212.73 250.178 211.995 249.858 211.444 249.22C210.894 248.577 210.618 247.768 210.618 246.793C210.618 245.818 210.894 245.01 211.444 244.372C211.995 243.733 212.73 243.414 213.648 243.414C214.562 243.414 215.294 243.733 215.845 244.372C216.396 245.01 216.671 245.818 216.671 246.793C216.671 247.768 216.396 248.577 215.845 249.22C215.294 249.858 214.562 250.178 213.648 250.178ZM213.648 249.289C214.217 249.289 214.671 249.067 215.007 248.623C215.344 248.179 215.512 247.569 215.512 246.793C215.512 246.02 215.344 245.412 215.007 244.968C214.671 244.525 214.217 244.303 213.648 244.303C213.074 244.303 212.619 244.525 212.282 244.968C211.945 245.412 211.777 246.02 211.777 246.793C211.777 247.569 211.945 248.179 212.282 248.623C212.619 249.067 213.074 249.289 213.648 249.289ZM222.276 248.56C221.951 249.095 221.559 249.499 221.1 249.771C220.645 250.042 220.226 250.178 219.844 250.178C219.308 250.178 218.826 249.946 218.398 249.484C217.973 249.021 217.761 248.319 217.761 247.378C217.761 246.636 217.903 245.974 218.186 245.393C218.469 244.808 218.847 244.347 219.322 244.01C219.796 243.67 220.383 243.5 221.083 243.5C221.286 243.5 221.592 243.521 222.001 243.563C222.062 243.57 222.154 243.58 222.276 243.591H223.349V248.118C223.349 248.891 223.43 249.518 223.59 250H222.477C222.393 249.648 222.326 249.168 222.276 248.56ZM222.276 247.292V244.544C221.898 244.444 221.546 244.395 221.221 244.395C220.563 244.395 220.014 244.649 219.574 245.158C219.138 245.666 218.92 246.359 218.92 247.235C218.92 247.87 219.039 248.35 219.276 248.675C219.517 248.996 219.79 249.157 220.096 249.157C220.429 249.157 220.796 248.988 221.198 248.652C221.599 248.315 221.959 247.862 222.276 247.292ZM229.402 248.56C229.077 249.095 228.685 249.499 228.226 249.771C227.771 250.042 227.352 250.178 226.97 250.178C226.434 250.178 225.952 249.946 225.524 249.484C225.099 249.021 224.887 248.319 224.887 247.378C224.887 246.636 225.028 245.974 225.311 245.393C225.595 244.808 225.973 244.347 226.447 244.01C226.922 243.67 227.509 243.5 228.209 243.5C228.412 243.5 228.718 243.521 229.127 243.563C229.188 243.57 229.28 243.58 229.402 243.591V240.74H230.475V250H229.402V248.56ZM229.402 247.292V244.544C229.023 244.444 228.672 244.395 228.346 244.395C227.689 244.395 227.14 244.649 226.7 245.158C226.264 245.666 226.046 246.359 226.046 247.235C226.046 247.87 226.164 248.35 226.402 248.675C226.643 248.996 226.916 249.157 227.222 249.157C227.555 249.157 227.922 248.988 228.324 248.652C228.725 248.315 229.085 247.862 229.402 247.292ZM237.509 249.575C236.656 249.981 235.849 250.184 235.088 250.184C234.51 250.184 233.994 250.04 233.539 249.753C233.084 249.466 232.718 249.057 232.443 248.526C232.171 247.99 232.036 247.418 232.036 246.81C232.036 246.225 232.166 245.663 232.426 245.123C232.686 244.584 233.049 244.165 233.516 243.867C233.982 243.565 234.503 243.414 235.076 243.414C235.838 243.414 236.448 243.685 236.907 244.228C237.369 244.771 237.601 245.609 237.601 246.741V246.971H233.183C233.183 247.414 233.275 247.82 233.458 248.187C233.646 248.554 233.891 248.83 234.193 249.013C234.495 249.197 234.839 249.289 235.226 249.289C235.914 249.289 236.675 249.059 237.509 248.6V249.575ZM233.246 246.173H236.442V246.018C236.442 245.494 236.314 245.077 236.057 244.768C235.801 244.458 235.459 244.303 235.03 244.303C234.598 244.303 234.223 244.462 233.906 244.779C233.592 245.093 233.372 245.557 233.246 246.173ZM239.781 250V243.591H240.848V244.991C241.181 244.464 241.561 244.07 241.99 243.809C242.422 243.546 242.902 243.414 243.43 243.414C243.816 243.414 244.202 243.473 244.589 243.591V245.904H243.562V244.441C243.382 244.41 243.241 244.395 243.137 244.395C242.739 244.395 242.349 244.551 241.967 244.865C241.584 245.179 241.211 245.649 240.848 246.276V250H239.781ZM251.554 252.134C250.494 252.069 249.601 251.769 248.875 251.234C248.148 250.702 247.566 249.983 247.13 249.076C246.698 248.17 246.482 247.261 246.482 246.351C246.482 245.441 246.698 244.532 247.13 243.626C247.566 242.719 248.148 242 248.875 241.469C249.601 240.933 250.494 240.631 251.554 240.562V241.457C250.754 241.53 250.066 241.799 249.488 242.266C248.915 242.729 248.463 243.32 248.134 244.039C247.806 244.758 247.641 245.529 247.641 246.351C247.641 247.173 247.806 247.944 248.134 248.663C248.463 249.382 248.915 249.973 249.488 250.436C250.066 250.899 250.754 251.168 251.554 251.245V252.134ZM254.841 250V245.014H253.419V244.125H254.841V243.827C254.841 242.981 254.937 242.356 255.128 241.951C255.319 241.545 255.614 241.212 256.012 240.952C256.413 240.692 256.943 240.562 257.601 240.562C258.098 240.562 258.603 240.614 259.116 240.717V241.733C258.561 241.549 258.07 241.457 257.641 241.457C257.301 241.457 257.001 241.52 256.74 241.646C256.48 241.773 256.276 241.979 256.127 242.266C255.981 242.549 255.909 243.031 255.909 243.712V244.125H258.45V245.014H255.909V250H254.841ZM262.202 250V244.481H260.424V243.591H263.269V249.111H265.054V250H262.202ZM262.024 241.279C262.024 241.038 262.107 240.859 262.271 240.74C262.436 240.621 262.591 240.562 262.736 240.562C262.885 240.562 263.042 240.621 263.206 240.74C263.371 240.859 263.453 241.038 263.453 241.279C263.453 241.516 263.371 241.694 263.206 241.813C263.042 241.931 262.885 241.991 262.736 241.991C262.591 241.991 262.436 241.931 262.271 241.813C262.107 241.694 262.024 241.516 262.024 241.279ZM269.185 250V241.635H267.268V240.74H270.252V249.111H272.254V250H269.185ZM279.85 249.575C278.997 249.981 278.19 250.184 277.429 250.184C276.852 250.184 276.335 250.04 275.88 249.753C275.425 249.466 275.06 249.057 274.784 248.526C274.513 247.99 274.377 247.418 274.377 246.81C274.377 246.225 274.507 245.663 274.767 245.123C275.027 244.584 275.39 244.165 275.857 243.867C276.324 243.565 276.844 243.414 277.418 243.414C278.179 243.414 278.789 243.685 279.248 244.228C279.711 244.771 279.942 245.609 279.942 246.741V246.971H275.524C275.524 247.414 275.616 247.82 275.8 248.187C275.987 248.554 276.232 248.83 276.534 249.013C276.836 249.197 277.181 249.289 277.567 249.289C278.255 249.289 279.016 249.059 279.85 248.6V249.575ZM275.587 246.173H278.783V246.018C278.783 245.494 278.655 245.077 278.399 244.768C278.142 244.458 277.8 244.303 277.372 244.303C276.94 244.303 276.565 244.462 276.247 244.779C275.934 245.093 275.714 245.557 275.587 246.173ZM281.589 240.562C282.648 240.631 283.541 240.933 284.268 241.469C284.995 242 285.574 242.719 286.006 243.626C286.442 244.532 286.66 245.441 286.66 246.351C286.66 247.261 286.442 248.17 286.006 249.076C285.574 249.983 284.995 250.702 284.268 251.234C283.541 251.769 282.648 252.069 281.589 252.134V251.245C282.388 251.168 283.075 250.899 283.648 250.436C284.226 249.973 284.679 249.382 285.008 248.663C285.341 247.944 285.507 247.173 285.507 246.351C285.507 245.529 285.341 244.758 285.008 244.039C284.679 243.32 284.226 242.729 283.648 242.266C283.075 241.799 282.388 241.53 281.589 241.457V240.562Z" fill="#5A5A5A"/>
<path d="M23.4137 191.775H20.3469V200H21.9684V197.297H23.4137C24.9999 197.297 26.2219 196.075 26.2219 194.536C26.2219 192.997 24.9999 191.775 23.4137 191.775ZM23.4137 195.782H21.9684V193.291H23.4137C24.1069 193.291 24.6122 193.819 24.6122 194.536C24.6122 195.241 24.1069 195.782 23.4137 195.782ZM31.7896 200H33.5404L31.7191 196.898C32.6591 196.463 33.3054 195.535 33.3054 194.501C33.3054 192.997 32.0834 191.775 30.5676 191.775H27.2776V200H28.8991V197.145H30.1329L31.7896 200ZM28.8991 193.291H30.5676C31.1786 193.291 31.6839 193.819 31.6839 194.501C31.6839 195.182 31.1786 195.723 30.5676 195.723H28.8991V193.291ZM38.2926 200.165C40.6661 200.165 42.5696 198.284 42.5696 195.887C42.5696 193.479 40.6661 191.61 38.2926 191.61C35.9191 191.61 34.0273 193.479 34.0273 195.887C34.0273 198.284 35.9191 200.165 38.2926 200.165ZM38.2926 198.578C36.8003 198.578 35.6371 197.462 35.6371 195.887C35.6371 194.301 36.8003 193.185 38.2926 193.185C39.7848 193.185 40.9481 194.301 40.9481 195.887C40.9481 197.462 39.7848 198.578 38.2926 198.578ZM46.776 191.775H43.7092V200H45.3307V197.297H46.776C48.3622 197.297 49.5842 196.075 49.5842 194.536C49.5842 192.997 48.3622 191.775 46.776 191.775ZM46.776 195.782H45.3307V193.291H46.776C47.4692 193.291 47.9745 193.819 47.9745 194.536C47.9745 195.241 47.4692 195.782 46.776 195.782ZM52.2614 198.449V196.604H55.3752V195.077H52.2614V193.326H55.6689V191.775H50.6399V200H55.7277V198.449H52.2614ZM61.3826 200H63.1334L61.3121 196.898C62.2521 196.463 62.8984 195.535 62.8984 194.501C62.8984 192.997 61.6764 191.775 60.1606 191.775H56.8706V200H58.4921V197.145H59.7259L61.3826 200ZM58.4921 193.291H60.1606C60.7716 193.291 61.2769 193.819 61.2769 194.501C61.2769 195.182 60.7716 195.723 60.1606 195.723H58.4921V193.291ZM69.3563 191.775H63.305V193.326H65.514V200H67.1355V193.326H69.3563V191.775ZM76.771 191.775H74.938L73.152 195.206L71.366 191.775H69.533L72.3412 196.792V200H73.951V196.792L76.771 191.775ZM83.5636 191.775H80.4968V200H82.1183V197.297H83.5636C85.1498 197.297 86.3718 196.075 86.3718 194.536C86.3718 192.997 85.1498 191.775 83.5636 191.775ZM83.5636 195.782H82.1183V193.291H83.5636C84.2568 193.291 84.7621 193.819 84.7621 194.536C84.7621 195.241 84.2568 195.782 83.5636 195.782ZM91.2594 200.165C93.6329 200.165 95.5364 198.284 95.5364 195.887C95.5364 193.479 93.6329 191.61 91.2594 191.61C88.8859 191.61 86.9941 193.479 86.9941 195.887C86.9941 198.284 88.8859 200.165 91.2594 200.165ZM91.2594 198.578C89.7671 198.578 88.6039 197.462 88.6039 195.887C88.6039 194.301 89.7671 193.185 91.2594 193.185C92.7516 193.185 93.9149 194.301 93.9149 195.887C93.9149 197.462 92.7516 198.578 91.2594 198.578ZM98.2975 198.449V191.775H96.676V200H101.435V198.449H98.2975ZM102.356 191.775V200H103.977V191.775H102.356ZM109.401 200.165C110.917 200.165 112.245 199.401 112.938 198.226L111.54 197.415C111.152 198.132 110.341 198.578 109.401 198.578C107.791 198.578 106.734 197.462 106.734 195.887C106.734 194.301 107.791 193.185 109.401 193.185C110.341 193.185 111.14 193.631 111.54 194.36L112.938 193.549C112.233 192.374 110.905 191.61 109.401 191.61C106.91 191.61 105.124 193.479 105.124 195.887C105.124 198.284 106.91 200.165 109.401 200.165ZM113.934 191.775V200H115.555V191.775H113.934ZM118.699 198.449V196.604H121.813V195.077H118.699V193.326H122.107V191.775H117.078V200H122.166V198.449H118.699ZM126.117 200.165C127.868 200.165 129.101 199.225 129.101 197.685C129.101 196.005 127.715 195.57 126.411 195.159C125.165 194.783 124.848 194.513 124.848 194.007C124.848 193.537 125.247 193.185 125.929 193.185C126.763 193.185 127.21 193.62 127.503 194.242L128.866 193.455C128.314 192.304 127.28 191.61 125.929 191.61C124.519 191.61 123.226 192.503 123.226 194.054C123.226 195.617 124.448 196.146 125.706 196.51C126.928 196.863 127.48 197.098 127.48 197.709C127.48 198.167 127.139 198.578 126.164 198.578C125.142 198.578 124.566 198.085 124.272 197.321L122.886 198.132C123.332 199.354 124.437 200.165 126.117 200.165Z" fill="#9494A7"/>
<defs>
<filter id="filter0_d_1_1537" x="-30.9393" y="-23.7202" width="517.879" height="359.879" filterUnits="userSpaceOnUse" color-interpolation-filters="sRGB">
<feFlood flood-opacity="0" result="BackgroundImageFix"/>
<feColorMatrix in="SourceAlpha" type="matrix" values="0 0 0 0 0 0 0 0 0 0 0 0 0 0 0 0 0 0 127 0" result="hardAlpha"/>
<feOffset dy="7.21918"/>
<feGaussianBlur stdDeviation="15.4697"/>
<feColorMatrix type="matrix" values="0 0 0 0 0.0705882 0 0 0 0 0.0666667 0 0 0 0 0.152941 0 0 0 0.12 0"/>
<feBlend mode="normal" in2="BackgroundImageFix" result="effect1_dropShadow_1_1537"/>
<feBlend mode="normal" in="SourceGraphic" in2="effect1_dropShadow_1_1537" result="shape"/>
</filter>
<filter id="filter1_d_1_1537" x="0" y="23" width="456" height="47.9792" filterUnits="userSpaceOnUse" color-interpolation-filters="sRGB">
<feFlood flood-opacity="0" result="BackgroundImageFix"/>
<feColorMatrix in="SourceAlpha" type="matrix" values="0 0 0 0 0 0 0 0 0 0 0 0 0 0 0 0 0 0 127 0" result="hardAlpha"/>
<feOffset dy="0.979167"/>
<feColorMatrix type="matrix" values="0 0 0 0 0 0 0 0 0 0 0 0 0 0 0 0 0 0 0.06 0"/>
<feBlend mode="normal" in2="BackgroundImageFix" result="effect1_dropShadow_1_1537"/>
<feBlend mode="normal" in="SourceGraphic" in2="effect1_dropShadow_1_1537" result="shape"/>
</filter>
</defs>
</svg>
