<svg width="456" height="298" viewBox="0 0 456 298" fill="none" xmlns="http://www.w3.org/2000/svg">
<g filter="url(#filter0_d_1_1443)">
<path d="M0 12C0 5.37258 5.37258 0 12 0H444C450.627 0 456 5.37258 456 12V285.391C456 292.019 450.627 297.391 444 297.391H12C5.37259 297.391 0 292.019 0 285.391V12Z" fill="white"/>
</g>
<path d="M111.167 204.633C111.167 203.069 112.435 201.801 114 201.801H123.205C124.769 201.801 126.037 203.069 126.037 204.633V207.466C126.037 209.03 124.769 210.298 123.205 210.298H114C112.435 210.298 111.167 209.03 111.167 207.466V204.633Z" fill="#FAFAFA"/>
<path d="M128.87 198.261C128.87 196.696 130.138 195.428 131.702 195.428H140.907C142.471 195.428 143.739 196.696 143.739 198.261V207.465C143.739 209.03 142.471 210.298 140.907 210.298H131.702C130.138 210.298 128.87 209.03 128.87 207.465V198.261Z" fill="#FAFAFA"/>
<path d="M146.572 201.801C146.572 200.236 147.84 198.968 149.404 198.968H158.609C160.173 198.968 161.441 200.236 161.441 201.801V207.465C161.441 209.029 160.173 210.297 158.609 210.297H149.404C147.84 210.297 146.572 209.029 146.572 207.465V201.801Z" fill="#FAFAFA"/>
<path d="M164.273 204.633C164.273 203.069 165.541 201.801 167.105 201.801H176.31C177.875 201.801 179.143 203.069 179.143 204.633V207.466C179.143 209.03 177.875 210.298 176.31 210.298H167.105C165.541 210.298 164.273 209.03 164.273 207.466V204.633Z" fill="#FAFAFA"/>
<path d="M181.975 199.677C181.975 198.112 183.243 196.844 184.807 196.844H194.012C195.576 196.844 196.845 198.112 196.845 199.677V207.465C196.845 209.03 195.576 210.298 194.012 210.298H184.807C183.243 210.298 181.975 209.03 181.975 207.465V199.677Z" fill="#FAFAFA"/>
<path d="M199.677 192.596C199.677 191.031 200.945 189.763 202.509 189.763H211.714C213.278 189.763 214.546 191.031 214.546 192.596V207.465C214.546 209.03 213.278 210.298 211.714 210.298H202.509C200.945 210.298 199.677 209.03 199.677 207.465V192.596Z" fill="#FAFAFA"/>
<path d="M217.379 196.136C217.379 194.572 218.647 193.304 220.212 193.304H229.417C230.981 193.304 232.249 194.572 232.249 196.136V207.465C232.249 209.03 230.981 210.298 229.417 210.298H220.212C218.647 210.298 217.379 209.03 217.379 207.465V196.136Z" fill="#FAFAFA"/>
<path d="M235.081 192.596C235.081 191.031 236.349 189.763 237.913 189.763H247.118C248.682 189.763 249.95 191.031 249.95 192.596V207.465C249.95 209.03 248.682 210.298 247.118 210.298H237.913C236.349 210.298 235.081 209.03 235.081 207.465V192.596Z" fill="#FAFAFA"/>
<path d="M252.075 201.801C252.075 200.236 253.343 198.968 254.907 198.968H264.112C265.676 198.968 266.944 200.236 266.944 201.801V207.465C266.944 209.029 265.676 210.297 264.112 210.297H254.907C253.343 210.297 252.075 209.029 252.075 207.465V201.801Z" fill="#FAFAFA"/>
<path d="M269.776 199.677C269.776 198.112 271.044 196.844 272.608 196.844H281.813C283.378 196.844 284.646 198.112 284.646 199.677V207.465C284.646 209.03 283.378 210.298 281.813 210.298H272.608C271.044 210.298 269.776 209.03 269.776 207.465V199.677Z" fill="#FFD6D6"/>
<path d="M287.478 204.633C287.478 203.069 288.747 201.801 290.311 201.801H299.516C301.08 201.801 302.348 203.069 302.348 204.633V207.466C302.348 209.03 301.08 210.298 299.516 210.298H290.311C288.747 210.298 287.478 209.03 287.478 207.466V204.633Z" fill="#FFD6D6"/>
<path d="M304.472 201.801C304.472 200.236 305.74 198.968 307.304 198.968H316.509C318.073 198.968 319.342 200.236 319.342 201.801V207.465C319.342 209.029 318.073 210.297 316.509 210.297H307.304C305.74 210.297 304.472 209.029 304.472 207.465V201.801Z" fill="#FFD6D6"/>
<path d="M322.174 192.596C322.174 191.031 323.442 189.763 325.006 189.763H334.211C335.775 189.763 337.043 191.031 337.043 192.596V207.465C337.043 209.03 335.775 210.298 334.211 210.298H325.006C323.442 210.298 322.174 209.03 322.174 207.465V192.596Z" fill="#FAFAFA"/>
<path d="M375.28 192.596C375.28 191.031 376.548 189.763 378.112 189.763H387.317C388.881 189.763 390.149 191.031 390.149 192.596V207.465C390.149 209.03 388.881 210.298 387.317 210.298H378.112C376.548 210.298 375.28 209.03 375.28 207.465V192.596Z" fill="#FAFAFA"/>
<path d="M426.969 192.596C426.969 191.031 428.237 189.763 429.801 189.763H439.006C440.57 189.763 441.838 191.031 441.838 192.596V207.465C441.838 209.03 440.57 210.298 439.006 210.298H429.801C428.237 210.298 426.969 209.03 426.969 207.465V192.596Z" fill="#FAFAFA"/>
<path d="M339.876 198.261C339.876 196.696 341.144 195.428 342.708 195.428H351.913C353.477 195.428 354.745 196.696 354.745 198.261V207.465C354.745 209.03 353.477 210.298 351.913 210.298H342.708C341.144 210.298 339.876 209.03 339.876 207.465V198.261Z" fill="#FAFAFA"/>
<path d="M392.981 198.261C392.981 196.696 394.25 195.428 395.814 195.428H405.019C406.583 195.428 407.851 196.696 407.851 198.261V207.465C407.851 209.03 406.583 210.298 405.019 210.298H395.814C394.25 210.298 392.981 209.03 392.981 207.465V198.261Z" fill="#FAFAFA"/>
<path d="M357.578 201.801C357.578 200.236 358.846 198.968 360.41 198.968H369.615C371.179 198.968 372.447 200.236 372.447 201.801V207.465C372.447 209.029 371.179 210.297 369.615 210.297H360.41C358.846 210.297 357.578 209.029 357.578 207.465V201.801Z" fill="#FAFAFA"/>
<path d="M410.683 201.801C410.683 200.236 411.951 198.968 413.516 198.968H422.721C424.285 198.968 425.553 200.236 425.553 201.801V207.465C425.553 209.029 424.285 210.297 422.721 210.297H413.516C411.951 210.297 410.683 209.029 410.683 207.465V201.801Z" fill="#FAFAFA"/>
<path d="M118.956 193.658L134.866 187.993L154.714 193.658L171.354 196.844L187.994 189.763L207.466 181.975L224.814 187.993L242.161 180.248L259.863 175.24L276.857 186.508L295.621 176.742L313.677 178.788L330.671 173.737L348.373 186.258L367.491 176.742" stroke="#53E285" stroke-width="0.708075"/>
<path d="M111.167 274.733L132.335 269.068L158.743 253.49L180.881 256.677L203.02 270.838L228.928 263.05L252.009 269.068L275.09 261.323L298.642 256.314L321.252 267.583L346.217 257.817L370.24 259.863L392.85 254.812L416.402 267.333L441.838 257.817" stroke="#53E285" stroke-width="0.708075"/>
<path d="M111.167 280.581L132.335 282.073L158.743 280.581L180.881 283.938L203.02 279.462L228.928 283.192L252.009 279.835L275.09 282.119L298.642 276.096L321.252 280.508L346.217 275.441L370.24 277.597L392.85 276.005L416.402 276.514L441.838 278.425" stroke="#FFB950" stroke-width="0.708075"/>
<path d="M276.857 192.596L295.975 198.261L312.261 195.783" stroke="#FF6F6F" stroke-width="0.708075"/>
<path d="M113.186 99.9487L114.284 98.3413H113.165L111.621 100.671C111.437 100.947 111.331 101.287 111.331 101.669C111.331 102.682 112.06 103.397 113.122 103.397C114.185 103.397 114.921 102.682 114.921 101.669C114.921 100.678 114.213 99.977 113.186 99.9487ZM113.122 102.476C112.662 102.476 112.301 102.172 112.301 101.669C112.301 101.167 112.662 100.869 113.122 100.869C113.583 100.869 113.951 101.174 113.951 101.669C113.951 102.172 113.583 102.476 113.122 102.476ZM115.169 103.298H118.483V102.356H116.621L117.591 101.386C118.058 100.919 118.405 100.402 118.405 99.8C118.405 98.8087 117.619 98.2422 116.77 98.2422C116.097 98.2422 115.453 98.5821 115.134 99.2901L115.955 99.7716C116.118 99.4176 116.401 99.191 116.784 99.191C117.159 99.191 117.428 99.4388 117.428 99.8354C117.428 100.168 117.18 100.494 116.862 100.827L115.169 102.569V103.298ZM125.835 100.635H123.349V101.499H124.851C124.681 102.066 124.185 102.441 123.406 102.441C122.372 102.441 121.714 101.747 121.714 100.827C121.714 99.8849 122.394 99.191 123.335 99.191C123.937 99.191 124.44 99.4813 124.666 99.8779L125.502 99.3964C125.084 98.7166 124.284 98.2422 123.342 98.2422C121.862 98.2422 120.744 99.3893 120.744 100.827C120.744 102.243 121.848 103.397 123.399 103.397C124.822 103.397 125.835 102.448 125.835 101.018V100.635ZM129.525 100.728C129.815 100.494 129.992 100.161 129.992 99.7362C129.992 98.9078 129.32 98.3413 128.484 98.3413H126.53V103.298H128.633C129.49 103.298 130.176 102.71 130.176 101.86C130.176 101.344 129.921 100.954 129.525 100.728ZM128.484 99.2547C128.796 99.2547 129.015 99.4884 129.015 99.8C129.015 100.112 128.789 100.345 128.484 100.345H127.507V99.2547H128.484ZM128.633 102.384H127.507V101.216H128.633C128.966 101.216 129.206 101.464 129.206 101.797C129.206 102.137 128.966 102.384 128.633 102.384Z" fill="#6A6A6A"/>
<rect x="111.169" y="87.801" width="19.118" height="2.8323" rx="1.41615" fill="#F1F1F1"/>
<path d="M111.26 158.528V159.463H113.377L111.749 163.484H112.783L114.461 159.356V158.528H111.26ZM116.408 160.333H115.898L115.962 159.441H117.866V158.528H115.055L114.857 161.282H116.358C116.84 161.282 117.123 161.558 117.123 161.955C117.123 162.359 116.84 162.628 116.33 162.628C115.834 162.628 115.558 162.415 115.438 162.033L114.602 162.521C114.885 163.244 115.558 163.584 116.33 163.584C117.264 163.584 118.1 163.017 118.1 161.955C118.1 160.893 117.314 160.333 116.408 160.333ZM119.787 162.507H118.796L118.513 164.476H119.256L119.787 162.507ZM122.155 160.135L123.252 158.528H122.133L120.59 160.857C120.406 161.134 120.3 161.473 120.3 161.856C120.3 162.868 121.029 163.584 122.091 163.584C123.153 163.584 123.889 162.868 123.889 161.856C123.889 160.864 123.181 160.164 122.155 160.135ZM122.091 162.663C121.631 162.663 121.27 162.359 121.27 161.856C121.27 161.353 121.631 161.056 122.091 161.056C122.551 161.056 122.919 161.36 122.919 161.856C122.919 162.359 122.551 162.663 122.091 162.663ZM128.127 161.735H127.596V160.56H126.612V161.735H125.323L126.966 158.528H125.918L124.268 161.735V162.642H126.612V163.484H127.596V162.642H128.127V161.735ZM130.726 160.539L131.654 159.335V158.528H128.539V159.441H130.479L129.502 160.716L129.877 161.282H130.089C130.599 161.282 130.882 161.558 130.882 161.955C130.882 162.359 130.599 162.628 130.089 162.628C129.622 162.628 129.346 162.422 129.225 162.054L128.39 162.536C128.673 163.244 129.346 163.584 130.089 163.584C131.024 163.584 131.859 163.017 131.859 161.955C131.859 161.226 131.371 160.73 130.726 160.539Z" fill="#6A6A6A"/>
<rect x="111.169" y="147.987" width="19.118" height="2.8323" rx="1.41615" fill="#A5F0BF"/>
<path d="M222.3 98.3413L220.997 98.8016L221.238 99.6371L222.173 99.3751V103.298H223.15V98.3413H222.3ZM226.759 100.72C227.078 100.494 227.276 100.154 227.276 99.6938C227.276 98.7379 226.539 98.2422 225.669 98.2422C224.798 98.2422 224.054 98.7379 224.054 99.6938C224.054 100.154 224.259 100.494 224.571 100.72C224.139 100.982 223.891 101.414 223.891 101.917C223.891 102.831 224.564 103.397 225.669 103.397C226.766 103.397 227.446 102.831 227.446 101.917C227.446 101.414 227.198 100.982 226.759 100.72ZM225.669 99.1627C226.037 99.1627 226.306 99.3751 226.306 99.7433C226.306 100.104 226.037 100.331 225.669 100.331C225.3 100.331 225.031 100.104 225.031 99.7433C225.031 99.3751 225.3 99.1627 225.669 99.1627ZM225.669 102.476C225.201 102.476 224.861 102.236 224.861 101.79C224.861 101.351 225.201 101.11 225.669 101.11C226.136 101.11 226.476 101.351 226.476 101.79C226.476 102.236 226.136 102.476 225.669 102.476ZM230.057 100.352L230.985 99.1485V98.3413H227.869V99.2547H229.809L228.832 100.529L229.207 101.096H229.42C229.93 101.096 230.213 101.372 230.213 101.768C230.213 102.172 229.93 102.441 229.42 102.441C228.952 102.441 228.676 102.236 228.556 101.868L227.72 102.349C228.004 103.057 228.676 103.397 229.42 103.397C230.354 103.397 231.19 102.831 231.19 101.768C231.19 101.039 230.701 100.543 230.057 100.352ZM232.899 102.321H231.908L231.625 104.289H232.368L232.899 102.321ZM235.266 99.9487L236.364 98.3413H235.245L233.702 100.671C233.517 100.947 233.411 101.287 233.411 101.669C233.411 102.682 234.141 103.397 235.203 103.397C236.265 103.397 237.001 102.682 237.001 101.669C237.001 100.678 236.293 99.977 235.266 99.9487ZM235.203 102.476C234.742 102.476 234.381 102.172 234.381 101.669C234.381 101.167 234.742 100.869 235.203 100.869C235.663 100.869 236.031 101.174 236.031 101.669C236.031 102.172 235.663 102.476 235.203 102.476ZM239.627 100.352L240.555 99.1485V98.3413H237.439V99.2547H239.379L238.402 100.529L238.777 101.096H238.99C239.5 101.096 239.783 101.372 239.783 101.768C239.783 102.172 239.5 102.441 238.99 102.441C238.523 102.441 238.246 102.236 238.126 101.868L237.29 102.349C237.574 103.057 238.246 103.397 238.99 103.397C239.925 103.397 240.76 102.831 240.76 101.768C240.76 101.039 240.271 100.543 239.627 100.352ZM241.078 98.3413V99.276H243.195L241.567 103.298H242.6L244.279 99.1698V98.3413H241.078Z" fill="#6A6A6A"/>
<rect x="220.211" y="87.801" width="19.118" height="2.8323" rx="1.41615" fill="#F1F1F1"/>
<path d="M232.921 158.528L231.618 158.988L231.859 159.824L232.794 159.562V163.484H233.771V158.528H232.921ZM234.47 163.484H237.783V162.543H235.921L236.891 161.573C237.359 161.105 237.706 160.588 237.706 159.986C237.706 158.995 236.92 158.429 236.07 158.429C235.397 158.429 234.753 158.769 234.434 159.477L235.256 159.958C235.418 159.604 235.702 159.378 236.084 159.378C236.459 159.378 236.728 159.625 236.728 160.022C236.728 160.355 236.481 160.68 236.162 161.013L234.47 162.755V163.484Z" fill="#6A6A6A"/>
<rect x="230.833" y="147.987" width="19.118" height="2.8323" rx="1.41615" fill="#F1F1F1"/>
<path d="M165.073 98.3413V99.276H167.191L165.562 103.298H166.596L168.274 99.1698V98.3413H165.073ZM170.221 100.147H169.711L169.775 99.2547H171.68V98.3413H168.868L168.67 101.096H170.171C170.653 101.096 170.936 101.372 170.936 101.768C170.936 102.172 170.653 102.441 170.143 102.441C169.647 102.441 169.371 102.229 169.251 101.846L168.415 102.335C168.699 103.057 169.371 103.397 170.143 103.397C171.078 103.397 171.913 102.831 171.913 101.768C171.913 100.706 171.127 100.147 170.221 100.147ZM173.601 102.321H172.609L172.326 104.289H173.07L173.601 102.321ZM175.968 99.9487L177.065 98.3413H175.947L174.403 100.671C174.219 100.947 174.113 101.287 174.113 101.669C174.113 102.682 174.842 103.397 175.904 103.397C176.966 103.397 177.703 102.682 177.703 101.669C177.703 100.678 176.995 99.977 175.968 99.9487ZM175.904 102.476C175.444 102.476 175.083 102.172 175.083 101.669C175.083 101.167 175.444 100.869 175.904 100.869C176.364 100.869 176.733 101.174 176.733 101.669C176.733 102.172 176.364 102.476 175.904 102.476ZM181.941 101.549H181.409V100.374H180.425V101.549H179.137L180.779 98.3413H179.731L178.082 101.549V102.455H180.425V103.298H181.409V102.455H181.941V101.549ZM184.54 100.352L185.467 99.1485V98.3413H182.352V99.2547H184.292L183.315 100.529L183.69 101.096H183.902C184.412 101.096 184.696 101.372 184.696 101.768C184.696 102.172 184.412 102.441 183.902 102.441C183.435 102.441 183.159 102.236 183.039 101.868L182.203 102.349C182.486 103.057 183.159 103.397 183.902 103.397C184.837 103.397 185.673 102.831 185.673 101.768C185.673 101.039 185.184 100.543 184.54 100.352Z" fill="#6A6A6A"/>
<rect x="164.982" y="87.801" width="19.118" height="2.8323" rx="1.41615" fill="#F1F1F1"/>
<path d="M174.562 160.539L175.489 159.335V158.528H172.374V159.441H174.314L173.337 160.716L173.712 161.282H173.924C174.434 161.282 174.718 161.558 174.718 161.955C174.718 162.359 174.434 162.628 173.924 162.628C173.457 162.628 173.181 162.422 173.061 162.054L172.225 162.536C172.508 163.244 173.181 163.584 173.924 163.584C174.859 163.584 175.695 163.017 175.695 161.955C175.695 161.226 175.206 160.73 174.562 160.539Z" fill="#6A6A6A"/>
<rect x="172.062" y="147.987" width="19.118" height="2.8323" rx="1.41615" fill="#FFA0A0"/>
<path d="M282.083 100.72C282.401 100.494 282.6 100.154 282.6 99.6938C282.6 98.7379 281.863 98.2422 280.992 98.2422C280.121 98.2422 279.378 98.7379 279.378 99.6938C279.378 100.154 279.583 100.494 279.895 100.72C279.463 100.982 279.215 101.414 279.215 101.917C279.215 102.831 279.888 103.397 280.992 103.397C282.09 103.397 282.77 102.831 282.77 101.917C282.77 101.414 282.522 100.982 282.083 100.72ZM280.992 99.1627C281.361 99.1627 281.63 99.3751 281.63 99.7433C281.63 100.104 281.361 100.331 280.992 100.331C280.624 100.331 280.355 100.104 280.355 99.7433C280.355 99.3751 280.624 99.1627 280.992 99.1627ZM280.992 102.476C280.525 102.476 280.185 102.236 280.185 101.79C280.185 101.351 280.525 101.11 280.992 101.11C281.46 101.11 281.8 101.351 281.8 101.79C281.8 102.236 281.46 102.476 280.992 102.476ZM285.381 100.352L286.308 99.1485V98.3413H283.193V99.2547H285.133L284.156 100.529L284.531 101.096H284.744C285.253 101.096 285.537 101.372 285.537 101.768C285.537 102.172 285.253 102.441 284.744 102.441C284.276 102.441 284 102.236 283.88 101.868L283.044 102.349C283.327 103.057 284 103.397 284.744 103.397C285.678 103.397 286.514 102.831 286.514 101.768C286.514 101.039 286.025 100.543 285.381 100.352ZM288.758 99.9487L289.855 98.3413H288.737L287.193 100.671C287.009 100.947 286.903 101.287 286.903 101.669C286.903 102.682 287.632 103.397 288.694 103.397C289.756 103.397 290.493 102.682 290.493 101.669C290.493 100.678 289.785 99.977 288.758 99.9487ZM288.694 102.476C288.234 102.476 287.873 102.172 287.873 101.669C287.873 101.167 288.234 100.869 288.694 100.869C289.154 100.869 289.523 101.174 289.523 101.669C289.523 102.172 289.154 102.476 288.694 102.476ZM292.137 102.321H291.146L290.862 104.289H291.606L292.137 102.321ZM292.677 103.298H295.991V102.356H294.129L295.099 101.386C295.566 100.919 295.913 100.402 295.913 99.8C295.913 98.8087 295.127 98.2422 294.277 98.2422C293.605 98.2422 292.96 98.5821 292.642 99.2901L293.463 99.7716C293.626 99.4176 293.909 99.191 294.292 99.191C294.667 99.191 294.936 99.4388 294.936 99.8354C294.936 100.168 294.688 100.494 294.37 100.827L292.677 102.569V103.298ZM298.14 100.147H297.631L297.694 99.2547H299.599V98.3413H296.788L296.59 101.096H298.091C298.572 101.096 298.856 101.372 298.856 101.768C298.856 102.172 298.572 102.441 298.063 102.441C297.567 102.441 297.291 102.229 297.17 101.846L296.335 102.335C296.618 103.057 297.291 103.397 298.063 103.397C298.997 103.397 299.833 102.831 299.833 101.768C299.833 100.706 299.047 100.147 298.14 100.147ZM304.045 101.549H303.514V100.374H302.529V101.549H301.241L302.883 98.3413H301.835L300.186 101.549V102.455H302.529V103.298H303.514V102.455H304.045V101.549Z" fill="#6A6A6A"/>
<rect x="278.983" y="87.801" width="19.118" height="2.8323" rx="1.41615" fill="#F1F1F1"/>
<path d="M292.704 160.907C293.023 160.68 293.221 160.341 293.221 159.88C293.221 158.924 292.485 158.429 291.614 158.429C290.743 158.429 289.999 158.924 289.999 159.88C289.999 160.341 290.205 160.68 290.516 160.907C290.084 161.169 289.837 161.601 289.837 162.104C289.837 163.017 290.509 163.584 291.614 163.584C292.711 163.584 293.391 163.017 293.391 162.104C293.391 161.601 293.143 161.169 292.704 160.907ZM291.614 159.349C291.982 159.349 292.251 159.562 292.251 159.93C292.251 160.291 291.982 160.518 291.614 160.518C291.246 160.518 290.977 160.291 290.977 159.93C290.977 159.562 291.246 159.349 291.614 159.349ZM291.614 162.663C291.146 162.663 290.807 162.422 290.807 161.976C290.807 161.537 291.146 161.296 291.614 161.296C292.081 161.296 292.421 161.537 292.421 161.976C292.421 162.422 292.081 162.663 291.614 162.663ZM297.38 160.149C297.38 159.137 296.651 158.429 295.582 158.429C294.527 158.429 293.79 159.137 293.79 160.149C293.79 161.148 294.505 161.849 295.532 161.87L294.427 163.484H295.546L297.09 161.155H297.083C297.274 160.879 297.38 160.532 297.38 160.149ZM294.76 160.149C294.76 159.654 295.128 159.349 295.582 159.349C296.049 159.349 296.41 159.647 296.41 160.149C296.41 160.652 296.049 160.957 295.582 160.957C295.128 160.957 294.76 160.652 294.76 160.149ZM303.645 159.845C303.163 159.845 302.809 160.036 302.59 160.355C302.391 160.029 302.066 159.845 301.627 159.845C301.173 159.845 300.841 160.022 300.642 160.319V159.944H299.729V163.484H300.642V161.495C300.642 160.964 300.919 160.695 301.308 160.695C301.69 160.695 301.903 160.949 301.903 161.367V163.484H302.816V161.495C302.816 160.964 303.071 160.695 303.475 160.695C303.857 160.695 304.069 160.949 304.069 161.367V163.484H304.983V161.304C304.983 160.418 304.452 159.845 303.645 159.845ZM306.601 160.949C306.601 160.758 306.785 160.659 307.012 160.659C307.274 160.659 307.472 160.794 307.578 161.02L308.357 160.595C308.081 160.107 307.586 159.845 307.012 159.845C306.283 159.845 305.667 160.248 305.667 160.971C305.667 162.217 307.493 161.934 307.493 162.451C307.493 162.656 307.295 162.755 307.005 162.755C306.651 162.755 306.41 162.585 306.311 162.295L305.518 162.741C305.773 163.286 306.297 163.584 307.005 163.584C307.763 163.584 308.428 163.215 308.428 162.451C308.428 161.148 306.601 161.473 306.601 160.949Z" fill="#6A6A6A"/>
<rect x="289.603" y="147.987" width="19.118" height="2.8323" rx="1.41615" fill="#F1F1F1"/>
<rect opacity="0.05" x="111.167" y="116.124" width="330.671" height="0.708075" fill="black"/>
<rect opacity="0.05" x="111.167" y="224.459" width="330.671" height="0.708075" fill="black"/>
<rect x="426.969" y="130.993" width="14.8696" height="2.8323" rx="1.41615" fill="#ABD2FF"/>
<rect x="426.969" y="239.329" width="14.8696" height="2.8323" rx="1.41615" fill="#ABD2FF"/>
<rect x="409.267" y="130.993" width="14.8696" height="2.8323" rx="1.41615" fill="#ABD2FF"/>
<rect x="409.267" y="239.329" width="14.8696" height="2.8323" rx="1.41615" fill="#ABD2FF"/>
<rect x="426.969" y="65.1421" width="14.8696" height="2.8323" rx="1.41615" fill="#ABD2FF"/>
<g filter="url(#filter1_d_1_1443)">
<path d="M0 45.3162H97.0062V297.391H12C5.3726 297.391 0 292.018 0 285.391V45.3162Z" fill="white"/>
</g>
<rect x="8.49699" y="91.3411" width="38.236" height="4.24845" rx="1.41615" fill="#F1F1F1"/>
<rect x="8.49699" y="104.087" width="59.4783" height="4.24845" rx="1.41615" fill="#F1F1F1"/>
<rect x="8.49699" y="116.832" width="50.2733" height="4.24845" rx="1.41615" fill="#F1F1F1"/>
<rect x="8.49699" y="129.577" width="68.6832" height="4.24845" rx="1.41615" fill="#F1F1F1"/>
<rect x="8.49699" y="142.323" width="59.4783" height="4.24845" rx="1.41615" fill="#F1F1F1"/>
<rect x="8.49699" y="155.068" width="50.2733" height="4.24845" rx="1.41615" fill="#F1F1F1"/>
<path d="M12.1436 66.4778H13.2057L11.4638 61.5213H10.253L8.51824 66.4778H9.57327L9.87066 65.5856H11.8462L12.1436 66.4778ZM10.1822 64.6722L10.862 62.6471L11.5417 64.6722H10.1822ZM15.705 62.8383C15.1881 62.8383 14.8128 63.0295 14.5579 63.3552V62.9374H13.6445V67.8939H14.5579V66.06C14.8128 66.3857 15.1881 66.5769 15.705 66.5769C16.6538 66.5769 17.4327 65.7626 17.4327 64.7076C17.4327 63.6526 16.6538 62.8383 15.705 62.8383ZM15.535 65.706C14.9757 65.706 14.5579 65.3024 14.5579 64.7076C14.5579 64.1128 14.9757 63.7092 15.535 63.7092C16.1015 63.7092 16.5193 64.1128 16.5193 64.7076C16.5193 65.3024 16.1015 65.706 15.535 65.706ZM20.1374 62.8383C19.6205 62.8383 19.2452 63.0295 18.9903 63.3552V62.9374H18.0769V67.8939H18.9903V66.06C19.2452 66.3857 19.6205 66.5769 20.1374 66.5769C21.0862 66.5769 21.8651 65.7626 21.8651 64.7076C21.8651 63.6526 21.0862 62.8383 20.1374 62.8383ZM19.9674 65.706C19.408 65.706 18.9903 65.3024 18.9903 64.7076C18.9903 64.1128 19.408 63.7092 19.9674 63.7092C20.5339 63.7092 20.9516 64.1128 20.9516 64.7076C20.9516 65.3024 20.5339 65.706 19.9674 65.706ZM22.5092 66.4778H23.4227V61.3088H22.5092V66.4778ZM24.7118 62.5126C25.0234 62.5126 25.2783 62.2577 25.2783 61.9532C25.2783 61.6487 25.0234 61.3867 24.7118 61.3867C24.4074 61.3867 24.1525 61.6487 24.1525 61.9532C24.1525 62.2577 24.4074 62.5126 24.7118 62.5126ZM24.2587 66.4778H25.1721V62.9374H24.2587V66.4778ZM27.6933 66.5769C28.3872 66.5769 28.9891 66.2087 29.2936 65.6564L28.5005 65.2032C28.3589 65.4936 28.0545 65.6706 27.6863 65.6706C27.141 65.6706 26.7374 65.267 26.7374 64.7076C26.7374 64.1411 27.141 63.7375 27.6863 63.7375C28.0474 63.7375 28.3518 63.9216 28.4935 64.2119L29.2794 63.7517C28.9891 63.2065 28.3872 62.8383 27.6933 62.8383C26.6171 62.8383 25.824 63.6526 25.824 64.7076C25.824 65.7626 26.6171 66.5769 27.6933 66.5769ZM32.412 62.9374V63.3552C32.1571 63.0365 31.7748 62.8383 31.2579 62.8383C30.3161 62.8383 29.5373 63.6526 29.5373 64.7076C29.5373 65.7626 30.3161 66.5769 31.2579 66.5769C31.7748 66.5769 32.1571 66.3787 32.412 66.06V66.4778H33.3255V62.9374H32.412ZM31.4278 65.706C30.8684 65.706 30.4507 65.3024 30.4507 64.7076C30.4507 64.1128 30.8684 63.7092 31.4278 63.7092C31.9943 63.7092 32.412 64.1128 32.412 64.7076C32.412 65.3024 31.9943 65.706 31.4278 65.706ZM36.1788 63.8154V62.9374H35.3787V61.9461L34.4653 62.2223V62.9374H33.8493V63.8154H34.4653V65.2882C34.4653 66.2441 34.8972 66.6194 36.1788 66.4778V65.6493C35.6549 65.6777 35.3787 65.6706 35.3787 65.2882V63.8154H36.1788ZM37.276 62.5126C37.5876 62.5126 37.8425 62.2577 37.8425 61.9532C37.8425 61.6487 37.5876 61.3867 37.276 61.3867C36.9715 61.3867 36.7166 61.6487 36.7166 61.9532C36.7166 62.2577 36.9715 62.5126 37.276 62.5126ZM36.8229 66.4778H37.7363V62.9374H36.8229V66.4778ZM40.2575 66.5769C41.2984 66.5769 42.1339 65.7626 42.1339 64.7076C42.1339 63.6526 41.2984 62.8383 40.2575 62.8383C39.2166 62.8383 38.3882 63.6526 38.3882 64.7076C38.3882 65.7626 39.2166 66.5769 40.2575 66.5769ZM40.2575 65.6847C39.7194 65.6847 39.3016 65.2811 39.3016 64.7076C39.3016 64.1341 39.7194 63.7305 40.2575 63.7305C40.8027 63.7305 41.2205 64.1341 41.2205 64.7076C41.2205 65.2811 40.8027 65.6847 40.2575 65.6847ZM44.7449 62.8383C44.2705 62.8383 43.9023 63.0153 43.6899 63.3339V62.9374H42.7765V66.4778H43.6899V64.566C43.6899 63.95 44.0227 63.688 44.4688 63.688C44.8795 63.688 45.1698 63.9358 45.1698 64.4173V66.4778H46.0832V64.304C46.0832 63.3623 45.4955 62.8383 44.7449 62.8383Z" fill="#222222"/>
<path d="M114.814 66.4778H115.876L114.134 61.5213H112.923L111.189 66.4778H112.244L112.541 65.5856H114.517L114.814 66.4778ZM112.853 64.6722L113.532 62.6471L114.212 64.6722H112.853ZM118.283 62.8383C117.809 62.8383 117.441 63.0153 117.228 63.3339V62.9374H116.315V66.4778H117.228V64.566C117.228 63.95 117.561 63.688 118.007 63.688C118.418 63.688 118.708 63.9358 118.708 64.4173V66.4778H119.622V64.304C119.622 63.3623 119.034 62.8383 118.283 62.8383ZM123.092 62.9374V63.3552C122.837 63.0365 122.455 62.8383 121.938 62.8383C120.996 62.8383 120.217 63.6526 120.217 64.7076C120.217 65.7626 120.996 66.5769 121.938 66.5769C122.455 66.5769 122.837 66.3787 123.092 66.06V66.4778H124.006V62.9374H123.092ZM122.108 65.706C121.549 65.706 121.131 65.3024 121.131 64.7076C121.131 64.1128 121.549 63.7092 122.108 63.7092C122.674 63.7092 123.092 64.1128 123.092 64.7076C123.092 65.3024 122.674 65.706 122.108 65.706ZM124.834 66.4778H125.747V61.3088H124.834V66.4778ZM128.892 62.9374L128.106 65.3165L127.185 62.9374H126.187L127.638 66.3645C127.468 66.8389 127.213 67.0513 126.711 67.0442V67.8939C127.61 67.9435 128.212 67.4974 128.58 66.4778L129.869 62.9374H128.892ZM132.329 63.8154V62.9374H131.528V61.9461L130.615 62.2223V62.9374H129.999V63.8154H130.615V65.2882C130.615 66.2441 131.047 66.6194 132.329 66.4778V65.6493C131.805 65.6777 131.528 65.6706 131.528 65.2882V63.8154H132.329ZM133.426 62.5126C133.737 62.5126 133.992 62.2577 133.992 61.9532C133.992 61.6487 133.737 61.3867 133.426 61.3867C133.121 61.3867 132.866 61.6487 132.866 61.9532C132.866 62.2577 133.121 62.5126 133.426 62.5126ZM132.973 66.4778H133.886V62.9374H132.973V66.4778ZM136.407 66.5769C137.101 66.5769 137.703 66.2087 138.007 65.6564L137.214 65.2032C137.073 65.4936 136.768 65.6706 136.4 65.6706C135.855 65.6706 135.451 65.267 135.451 64.7076C135.451 64.1411 135.855 63.7375 136.4 63.7375C136.761 63.7375 137.066 63.9216 137.207 64.2119L137.993 63.7517C137.703 63.2065 137.101 62.8383 136.407 62.8383C135.331 62.8383 134.538 63.6526 134.538 64.7076C134.538 65.7626 135.331 66.5769 136.407 66.5769ZM139.326 63.9429C139.326 63.7517 139.51 63.6526 139.737 63.6526C139.999 63.6526 140.197 63.7871 140.303 64.0137L141.082 63.5888C140.806 63.1003 140.31 62.8383 139.737 62.8383C139.008 62.8383 138.392 63.2419 138.392 63.9641C138.392 65.2103 140.218 64.9271 140.218 65.444C140.218 65.6493 140.02 65.7485 139.73 65.7485C139.376 65.7485 139.135 65.5785 139.036 65.2882L138.243 65.7343C138.498 66.2795 139.022 66.5769 139.73 66.5769C140.488 66.5769 141.153 66.2087 141.153 65.444C141.153 64.1411 139.326 64.4669 139.326 63.9429Z" fill="#222222"/>
<path d="M114.814 135.161H115.876L114.134 130.205H112.923L111.189 135.161H112.244L112.541 134.269H114.517L114.814 135.161ZM112.853 133.356L113.532 131.33L114.212 133.356H112.853ZM118.205 130.205H116.357V135.161H117.334V133.533H118.205C119.161 133.533 119.898 132.796 119.898 131.869C119.898 130.941 119.161 130.205 118.205 130.205ZM118.205 132.619H117.334V131.118H118.205C118.623 131.118 118.928 131.437 118.928 131.869C118.928 132.293 118.623 132.619 118.205 132.619ZM120.534 130.205V135.161H121.511V130.205H120.534ZM126.918 135.161H127.973L126.875 133.292C127.442 133.03 127.831 132.47 127.831 131.847C127.831 130.941 127.095 130.205 126.181 130.205H124.199V135.161H125.176V133.441H125.919L126.918 135.161ZM125.176 131.118H126.181C126.55 131.118 126.854 131.437 126.854 131.847C126.854 132.258 126.55 132.584 126.181 132.584H125.176V131.118ZM129.098 133.766H131.767C131.788 133.646 131.802 133.525 131.802 133.391C131.802 132.35 131.059 131.522 130.011 131.522C128.899 131.522 128.142 132.336 128.142 133.391C128.142 134.446 128.892 135.26 130.082 135.26C130.762 135.26 131.293 134.984 131.625 134.503L130.889 134.078C130.733 134.283 130.45 134.432 130.096 134.432C129.615 134.432 129.225 134.234 129.098 133.766ZM129.083 133.058C129.19 132.605 129.522 132.343 130.011 132.343C130.393 132.343 130.776 132.548 130.889 133.058H129.083ZM135.096 131.621V132.039C134.841 131.713 134.466 131.522 133.949 131.522C133 131.522 132.221 132.336 132.221 133.391C132.221 134.446 133 135.26 133.949 135.26C134.466 135.26 134.841 135.069 135.096 134.743V136.577H136.009V131.621H135.096ZM134.119 134.389C133.552 134.389 133.135 133.986 133.135 133.391C133.135 132.796 133.552 132.393 134.119 132.393C134.678 132.393 135.096 132.796 135.096 133.391C135.096 133.986 134.678 134.389 134.119 134.389ZM139.181 131.621V133.533C139.181 134.149 138.849 134.411 138.403 134.411C137.992 134.411 137.702 134.163 137.702 133.681V131.621H136.788V133.795C136.788 134.736 137.376 135.26 138.126 135.26C138.601 135.26 138.969 135.083 139.181 134.765V135.161H140.095V131.621H139.181ZM141.703 133.766H144.373C144.394 133.646 144.408 133.525 144.408 133.391C144.408 132.35 143.665 131.522 142.617 131.522C141.505 131.522 140.747 132.336 140.747 133.391C140.747 134.446 141.498 135.26 142.688 135.26C143.367 135.26 143.898 134.984 144.231 134.503L143.495 134.078C143.339 134.283 143.056 134.432 142.702 134.432C142.22 134.432 141.831 134.234 141.703 133.766ZM141.689 133.058C141.795 132.605 142.128 132.343 142.617 132.343C142.999 132.343 143.381 132.548 143.495 133.058H141.689ZM145.75 132.626C145.75 132.435 145.934 132.336 146.161 132.336C146.423 132.336 146.621 132.47 146.727 132.697L147.506 132.272C147.23 131.784 146.734 131.522 146.161 131.522C145.431 131.522 144.815 131.925 144.815 132.647C144.815 133.894 146.642 133.61 146.642 134.127C146.642 134.333 146.444 134.432 146.154 134.432C145.8 134.432 145.559 134.262 145.46 133.972L144.667 134.418C144.922 134.963 145.446 135.26 146.154 135.26C146.911 135.26 147.577 134.892 147.577 134.127C147.577 132.824 145.75 133.15 145.75 132.626ZM150.086 132.499V131.621H149.286V130.629L148.372 130.906V131.621H147.756V132.499H148.372V133.972C148.372 134.927 148.804 135.303 150.086 135.161V134.333C149.562 134.361 149.286 134.354 149.286 133.972V132.499H150.086ZM151.496 132.626C151.496 132.435 151.68 132.336 151.907 132.336C152.169 132.336 152.367 132.47 152.473 132.697L153.252 132.272C152.976 131.784 152.481 131.522 151.907 131.522C151.178 131.522 150.562 131.925 150.562 132.647C150.562 133.894 152.388 133.61 152.388 134.127C152.388 134.333 152.19 134.432 151.9 134.432C151.546 134.432 151.305 134.262 151.206 133.972L150.413 134.418C150.668 134.963 151.192 135.26 151.9 135.26C152.658 135.26 153.323 134.892 153.323 134.127C153.323 132.824 151.496 133.15 151.496 132.626Z" fill="#222222"/>
<path d="M113.971 243.595C115.402 243.595 116.549 242.463 116.549 241.018C116.549 239.567 115.402 238.441 113.971 238.441C112.541 238.441 111.401 239.567 111.401 241.018C111.401 242.463 112.541 243.595 113.971 243.595ZM113.971 242.64C113.072 242.64 112.371 241.967 112.371 241.018C112.371 240.062 113.072 239.39 113.971 239.39C114.871 239.39 115.572 240.062 115.572 241.018C115.572 241.967 114.871 242.64 113.971 242.64ZM119.564 239.956V241.868C119.564 242.484 119.231 242.746 118.785 242.746C118.375 242.746 118.084 242.498 118.084 242.016V239.956H117.171V242.13C117.171 243.071 117.759 243.595 118.509 243.595C118.984 243.595 119.352 243.418 119.564 243.1V243.496H120.478V239.956H119.564ZM123.339 240.834V239.956H122.539V238.965L121.626 239.241V239.956H121.01V240.834H121.626V242.307C121.626 243.263 122.058 243.638 123.339 243.496V242.668C122.815 242.696 122.539 242.689 122.539 242.307V240.834H123.339ZM126.044 239.857C125.527 239.857 125.152 240.048 124.897 240.374V238.54H123.983V243.496H124.897V243.079C125.152 243.404 125.527 243.595 126.044 243.595C126.993 243.595 127.772 242.781 127.772 241.726C127.772 240.671 126.993 239.857 126.044 239.857ZM125.874 242.725C125.315 242.725 124.897 242.321 124.897 241.726C124.897 241.131 125.315 240.728 125.874 240.728C126.44 240.728 126.858 241.131 126.858 241.726C126.858 242.321 126.44 242.725 125.874 242.725ZM130.101 243.595C131.142 243.595 131.977 242.781 131.977 241.726C131.977 240.671 131.142 239.857 130.101 239.857C129.06 239.857 128.232 240.671 128.232 241.726C128.232 242.781 129.06 243.595 130.101 243.595ZM130.101 242.703C129.563 242.703 129.145 242.3 129.145 241.726C129.145 241.153 129.563 240.749 130.101 240.749C130.646 240.749 131.064 241.153 131.064 241.726C131.064 242.3 130.646 242.703 130.101 242.703ZM134.957 239.956V241.868C134.957 242.484 134.624 242.746 134.178 242.746C133.767 242.746 133.477 242.498 133.477 242.016V239.956H132.563V242.13C132.563 243.071 133.151 243.595 133.902 243.595C134.376 243.595 134.744 243.418 134.957 243.1V243.496H135.87V239.956H134.957ZM138.675 239.857C138.201 239.857 137.832 240.034 137.62 240.352V239.956H136.707V243.496H137.62V241.585C137.62 240.969 137.953 240.707 138.399 240.707C138.81 240.707 139.1 240.954 139.1 241.436V243.496H140.013V241.323C140.013 240.381 139.426 239.857 138.675 239.857ZM143.477 238.54V240.374C143.222 240.048 142.847 239.857 142.33 239.857C141.381 239.857 140.602 240.671 140.602 241.726C140.602 242.781 141.381 243.595 142.33 243.595C142.847 243.595 143.222 243.404 143.477 243.079V243.496H144.39V238.54H143.477ZM142.5 242.725C141.933 242.725 141.515 242.321 141.515 241.726C141.515 241.131 141.933 240.728 142.5 240.728C143.059 240.728 143.477 241.131 143.477 241.726C143.477 242.321 143.059 242.725 142.5 242.725ZM150.033 240.926C150.324 240.692 150.501 240.36 150.501 239.935C150.501 239.106 149.828 238.54 148.993 238.54H147.038V243.496H149.141C149.998 243.496 150.685 242.909 150.685 242.059C150.685 241.542 150.43 241.153 150.033 240.926ZM148.993 239.453C149.304 239.453 149.524 239.687 149.524 239.998C149.524 240.31 149.297 240.544 148.993 240.544H148.015V239.453H148.993ZM149.141 242.583H148.015V241.415H149.141C149.474 241.415 149.715 241.662 149.715 241.995C149.715 242.335 149.474 242.583 149.141 242.583ZM154.029 239.956V240.374C153.774 240.055 153.392 239.857 152.875 239.857C151.933 239.857 151.154 240.671 151.154 241.726C151.154 242.781 151.933 243.595 152.875 243.595C153.392 243.595 153.774 243.397 154.029 243.079V243.496H154.942V239.956H154.029ZM153.045 242.725C152.485 242.725 152.068 242.321 152.068 241.726C152.068 241.131 152.485 240.728 153.045 240.728C153.611 240.728 154.029 241.131 154.029 241.726C154.029 242.321 153.611 242.725 153.045 242.725ZM157.739 239.857C157.265 239.857 156.896 240.034 156.684 240.352V239.956H155.771V243.496H156.684V241.585C156.684 240.969 157.017 240.707 157.463 240.707C157.874 240.707 158.164 240.954 158.164 241.436V243.496H159.077V241.323C159.077 240.381 158.49 239.857 157.739 239.857ZM162.541 238.54V240.374C162.286 240.048 161.911 239.857 161.394 239.857C160.445 239.857 159.666 240.671 159.666 241.726C159.666 242.781 160.445 243.595 161.394 243.595C161.911 243.595 162.286 243.404 162.541 243.079V243.496H163.454V238.54H162.541ZM161.564 242.725C160.997 242.725 160.58 242.321 160.58 241.726C160.58 241.131 160.997 240.728 161.564 240.728C162.123 240.728 162.541 241.131 162.541 241.726C162.541 242.321 162.123 242.725 161.564 242.725ZM168.276 239.956L167.674 242.137L167.03 239.956H166.166L165.522 242.13L164.92 239.956H163.95L165.076 243.496H165.947L166.598 241.351L167.249 243.496H168.12L169.246 239.956H168.276ZM170.192 239.531C170.503 239.531 170.758 239.276 170.758 238.972C170.758 238.667 170.503 238.405 170.192 238.405C169.887 238.405 169.632 238.667 169.632 238.972C169.632 239.276 169.887 239.531 170.192 239.531ZM169.739 243.496H170.652V239.956H169.739V243.496ZM174.172 238.54V240.374C173.917 240.048 173.541 239.857 173.024 239.857C172.076 239.857 171.297 240.671 171.297 241.726C171.297 242.781 172.076 243.595 173.024 243.595C173.541 243.595 173.917 243.404 174.172 243.079V243.496H175.085V238.54H174.172ZM173.194 242.725C172.628 242.725 172.21 242.321 172.21 241.726C172.21 241.131 172.628 240.728 173.194 240.728C173.754 240.728 174.172 241.131 174.172 241.726C174.172 242.321 173.754 242.725 173.194 242.725ZM177.945 240.834V239.956H177.145V238.965L176.232 239.241V239.956H175.616V240.834H176.232V242.307C176.232 243.263 176.664 243.638 177.945 243.496V242.668C177.421 242.696 177.145 242.689 177.145 242.307V240.834H177.945ZM180.558 239.857C180.083 239.857 179.715 240.034 179.503 240.352V238.54H178.589V243.496H179.503V241.585C179.503 240.969 179.836 240.707 180.282 240.707C180.692 240.707 180.983 240.954 180.983 241.436V243.496H181.896V241.323C181.896 240.381 181.308 239.857 180.558 239.857Z" fill="#222222"/>
<rect x="111.167" y="73.6396" width="65.8509" height="2.8323" rx="1.41615" fill="#F1F1F1"/>
<path d="M9.34668 75.4333V71.8419H8.95016V75.8071H11.1594V75.4333H9.34668ZM12.8465 75.8751C13.6735 75.8751 14.3363 75.2293 14.3363 74.391C14.3363 73.5526 13.6735 72.9069 12.8465 72.9069C12.0195 72.9069 11.3567 73.5526 11.3567 74.391C11.3567 75.2293 12.0195 75.8751 12.8465 75.8751ZM12.8465 75.5126C12.2177 75.5126 11.7306 75.0197 11.7306 74.391C11.7306 73.7622 12.2177 73.2694 12.8465 73.2694C13.4753 73.2694 13.9624 73.7622 13.9624 74.391C13.9624 75.0197 13.4753 75.5126 12.8465 75.5126ZM15.3358 73.445V72.9748H14.9619V75.8071H15.3358V74.2324C15.3358 73.53 15.7776 73.292 16.2308 73.292V72.9295C15.8683 72.9295 15.5341 73.0485 15.3358 73.445ZM17.8802 72.9069C17.0022 72.9069 16.4018 73.5583 16.4018 74.391C16.4018 75.2463 17.0135 75.8751 17.9085 75.8751C18.4807 75.8751 18.9168 75.6089 19.1548 75.2237L18.8262 75.0311C18.6733 75.303 18.3617 75.5126 17.9142 75.5126C17.3138 75.5126 16.8663 75.1557 16.787 74.5779H19.2737C19.2794 74.5213 19.285 74.459 19.285 74.4023C19.285 73.6263 18.7469 72.9069 17.8802 72.9069ZM17.8802 73.2694C18.3674 73.2694 18.8205 73.5923 18.8998 74.2154H16.787C16.8606 73.6602 17.2854 73.2694 17.8802 73.2694ZM22.899 72.9069C22.5364 72.9069 22.1909 73.0711 21.9813 73.4223C21.8227 73.0938 21.5168 72.9069 21.1203 72.9069C20.7804 72.9069 20.4745 73.0428 20.2536 73.3883V72.9748H19.8797V75.8071H20.2536V74.238C20.2536 73.5356 20.6614 73.2694 21.0693 73.2694C21.4715 73.2694 21.7321 73.5356 21.7321 74.0398V75.8071H22.1059V74.238C22.1059 73.5356 22.4571 73.2694 22.8933 73.2694C23.2955 73.2694 23.5844 73.5356 23.5844 74.0398V75.8071H23.9582V74.0398C23.9582 73.3317 23.5221 72.9069 22.899 72.9069ZM26.2844 72.3744C26.4374 72.3744 26.5563 72.2498 26.5563 72.1025C26.5563 71.9552 26.4374 71.8306 26.2844 71.8306C26.1315 71.8306 26.0125 71.9552 26.0125 72.1025C26.0125 72.2498 26.1315 72.3744 26.2844 72.3744ZM26.0975 75.8071H26.4714V72.9748H26.0975V75.8071ZM28.7828 72.9069C28.2787 72.9069 27.8765 73.1504 27.6386 73.53V72.9748H27.2647V76.94H27.6386V75.252C27.8765 75.6315 28.2787 75.8751 28.7828 75.8751C29.5815 75.8751 30.2443 75.2293 30.2443 74.391C30.2443 73.5526 29.5815 72.9069 28.7828 72.9069ZM28.7545 75.5126C28.1257 75.5126 27.6386 75.0197 27.6386 74.391C27.6386 73.7622 28.1257 73.2694 28.7545 73.2694C29.3833 73.2694 29.8704 73.7622 29.8704 74.391C29.8704 75.0197 29.3833 75.5126 28.7545 75.5126ZM31.1052 73.7169C31.1052 73.411 31.4054 73.2694 31.7 73.2694C31.9719 73.2694 32.2608 73.377 32.3797 73.6659L32.6913 73.4846C32.527 73.1334 32.1645 72.9069 31.7 72.9069C31.1335 72.9069 30.7313 73.2637 30.7313 73.7169C30.7313 74.7592 32.3854 74.357 32.3854 75.0594C32.3854 75.3936 32.0682 75.5126 31.734 75.5126C31.3544 75.5126 31.0599 75.3256 30.9579 75.0367L30.6407 75.2237C30.7823 75.5862 31.1675 75.8751 31.734 75.8751C32.3401 75.8751 32.7593 75.5409 32.7593 75.0594C32.7593 74.0171 31.1052 74.4193 31.1052 73.7169ZM35.3492 72.9748V74.459C35.3492 75.218 34.93 75.5126 34.4316 75.5126C33.9387 75.5126 33.6612 75.218 33.6612 74.7139V72.9748H33.2873V74.7139C33.2873 75.4219 33.7065 75.8751 34.3976 75.8751C34.7997 75.8751 35.1283 75.7222 35.3492 75.3653V75.8071H35.7231V72.9748H35.3492ZM39.5332 72.9069C39.1706 72.9069 38.8251 73.0711 38.6155 73.4223C38.4569 73.0938 38.151 72.9069 37.7545 72.9069C37.4146 72.9069 37.1087 73.0428 36.8878 73.3883V72.9748H36.514V75.8071H36.8878V74.238C36.8878 73.5356 37.2957 73.2694 37.7035 73.2694C38.1057 73.2694 38.3663 73.5356 38.3663 74.0398V75.8071H38.7401V74.238C38.7401 73.5356 39.0913 73.2694 39.5275 73.2694C39.9297 73.2694 40.2186 73.5356 40.2186 74.0398V75.8071H40.5925V74.0398C40.5925 73.3317 40.1563 72.9069 39.5332 72.9069ZM45.1675 71.8419V73.53C44.9296 73.1504 44.5274 72.9069 44.0233 72.9069C43.2246 72.9069 42.5618 73.5526 42.5618 74.391C42.5618 75.2293 43.2246 75.8751 44.0233 75.8751C44.5274 75.8751 44.9296 75.6315 45.1675 75.252V75.8071H45.5414V71.8419H45.1675ZM44.0516 75.5126C43.4228 75.5126 42.9357 75.0197 42.9357 74.391C42.9357 73.7622 43.4228 73.2694 44.0516 73.2694C44.6804 73.2694 45.1675 73.7622 45.1675 74.391C45.1675 75.0197 44.6804 75.5126 44.0516 75.5126ZM47.6528 75.8751C48.4798 75.8751 49.1426 75.2293 49.1426 74.391C49.1426 73.5526 48.4798 72.9069 47.6528 72.9069C46.8258 72.9069 46.163 73.5526 46.163 74.391C46.163 75.2293 46.8258 75.8751 47.6528 75.8751ZM47.6528 75.5126C47.024 75.5126 46.5369 75.0197 46.5369 74.391C46.5369 73.7622 47.024 73.2694 47.6528 73.2694C48.2816 73.2694 48.7687 73.7622 48.7687 74.391C48.7687 75.0197 48.2816 75.5126 47.6528 75.5126ZM49.7682 75.8071H50.1421V71.672H49.7682V75.8071ZM52.2553 75.8751C53.0823 75.8751 53.7451 75.2293 53.7451 74.391C53.7451 73.5526 53.0823 72.9069 52.2553 72.9069C51.4283 72.9069 50.7655 73.5526 50.7655 74.391C50.7655 75.2293 51.4283 75.8751 52.2553 75.8751ZM52.2553 75.5126C51.6265 75.5126 51.1394 75.0197 51.1394 74.391C51.1394 73.7622 51.6265 73.2694 52.2553 73.2694C52.8841 73.2694 53.3712 73.7622 53.3712 74.391C53.3712 75.0197 52.8841 75.5126 52.2553 75.5126ZM54.7446 73.445V72.9748H54.3707V75.8071H54.7446V74.2324C54.7446 73.53 55.1864 73.292 55.6396 73.292V72.9295C55.277 72.9295 54.9428 73.0485 54.7446 73.445Z" fill="#222222"/>
<g clip-path="url(#clip0_1_1443)">
<path fill-rule="evenodd" clip-rule="evenodd" d="M84.261 60.1855L86.7393 63.0178H81.7828L84.261 60.1855ZM86.7388 64.4338L84.2605 67.2661L81.7822 64.4338H86.7388Z" fill="#E33329"/>
</g>
<g filter="url(#filter2_d_1_1443)">
<rect y="16.9934" width="456" height="28.323" fill="white"/>
</g>
<path d="M11.8972 26.8433H9.14134V33.7825H11.8972C13.8104 33.7825 15.2379 32.2658 15.2379 30.3129C15.2379 28.36 13.8104 26.8433 11.8972 26.8433ZM11.8972 32.4739H10.5093V28.1519H11.8972C13.0966 28.1519 13.9293 29.0341 13.9293 30.3129C13.9293 31.5917 13.0966 32.4739 11.8972 32.4739ZM16.1488 33.7825H17.4276V26.5459H16.1488V33.7825ZM19.6785 31.8296H23.4157C23.4455 31.6611 23.4653 31.4926 23.4653 31.3042C23.4653 29.847 22.4244 28.6872 20.9573 28.6872C19.401 28.6872 18.3403 29.8272 18.3403 31.3042C18.3403 32.7813 19.391 33.9213 21.0564 33.9213C22.0081 33.9213 22.7516 33.5346 23.2175 32.8606L22.1865 32.2658C21.9684 32.5533 21.5719 32.7614 21.0763 32.7614C20.4022 32.7614 19.857 32.4839 19.6785 31.8296ZM19.6587 30.8383C19.8074 30.2039 20.2733 29.8371 20.9573 29.8371C21.4926 29.8371 22.0279 30.1246 22.1865 30.8383H19.6587ZM28.6472 33.7825L26.8331 31.2447L28.5679 28.8259H27.1008L26.0995 30.2237L25.0983 28.8259H23.6213L25.3561 31.2546L23.542 33.7825H25.019L26.0995 32.2757L27.1701 33.7825H28.6472Z" fill="black"/>
<circle cx="11.3293" cy="8.4966" r="2.8323" fill="#E5E5EB"/>
<circle cx="19.8258" cy="8.4966" r="2.8323" fill="#E5E5EB"/>
<circle cx="28.3228" cy="8.4966" r="2.8323" fill="#E5E5EB"/>
<defs>
<filter id="filter0_d_1_1443" x="-30" y="-23" width="516" height="357.391" filterUnits="userSpaceOnUse" color-interpolation-filters="sRGB">
<feFlood flood-opacity="0" result="BackgroundImageFix"/>
<feColorMatrix in="SourceAlpha" type="matrix" values="0 0 0 0 0 0 0 0 0 0 0 0 0 0 0 0 0 0 127 0" result="hardAlpha"/>
<feOffset dy="7"/>
<feGaussianBlur stdDeviation="15"/>
<feColorMatrix type="matrix" values="0 0 0 0 0.0705882 0 0 0 0 0.0666667 0 0 0 0 0.152941 0 0 0 0.12 0"/>
<feBlend mode="normal" in2="BackgroundImageFix" result="effect1_dropShadow_1_1443"/>
<feBlend mode="normal" in="SourceGraphic" in2="effect1_dropShadow_1_1443" result="shape"/>
</filter>
<filter id="filter1_d_1_1443" x="0" y="45.3162" width="97.7143" height="252.074" filterUnits="userSpaceOnUse" color-interpolation-filters="sRGB">
<feFlood flood-opacity="0" result="BackgroundImageFix"/>
<feColorMatrix in="SourceAlpha" type="matrix" values="0 0 0 0 0 0 0 0 0 0 0 0 0 0 0 0 0 0 127 0" result="hardAlpha"/>
<feOffset dx="0.708075"/>
<feColorMatrix type="matrix" values="0 0 0 0 0 0 0 0 0 0 0 0 0 0 0 0 0 0 0.05 0"/>
<feBlend mode="normal" in2="BackgroundImageFix" result="effect1_dropShadow_1_1443"/>
<feBlend mode="normal" in="SourceGraphic" in2="effect1_dropShadow_1_1443" result="shape"/>
</filter>
<filter id="filter2_d_1_1443" x="0" y="16.9934" width="456" height="29.0311" filterUnits="userSpaceOnUse" color-interpolation-filters="sRGB">
<feFlood flood-opacity="0" result="BackgroundImageFix"/>
<feColorMatrix in="SourceAlpha" type="matrix" values="0 0 0 0 0 0 0 0 0 0 0 0 0 0 0 0 0 0 127 0" result="hardAlpha"/>
<feOffset dy="0.708075"/>
<feColorMatrix type="matrix" values="0 0 0 0 0 0 0 0 0 0 0 0 0 0 0 0 0 0 0.05 0"/>
<feBlend mode="normal" in2="BackgroundImageFix" result="effect1_dropShadow_1_1443"/>
<feBlend mode="normal" in="SourceGraphic" in2="effect1_dropShadow_1_1443" result="shape"/>
</filter>
<clipPath id="clip0_1_1443">
<rect width="8.49689" height="8.49689" fill="white" transform="translate(80.012 59.4778)"/>
</clipPath>
</defs>
</svg>
