<svg width="197" height="105" viewBox="0 0 197 105" fill="none" xmlns="http://www.w3.org/2000/svg">
<g filter="url(#filter0_d_1_1562)">
<path d="M0 12C0 5.37258 5.37258 0 12 0H184.184C190.812 0 196.184 5.37258 196.184 12V93C196.184 99.6274 190.812 105 184.184 105H12C5.37259 105 0 99.6274 0 93V12Z" fill="#201F37"/>
</g>
<path d="M17.5384 21.8164H18.7735L17.4886 19.628C18.1518 19.3213 18.6077 18.6664 18.6077 17.9369C18.6077 16.8759 17.7456 16.0138 16.6763 16.0138H14.3552V21.8164H15.4992V19.8021H16.3696L17.5384 21.8164ZM15.4992 17.0831H16.6763C17.1073 17.0831 17.4638 17.4561 17.4638 17.9369C17.4638 18.4177 17.1073 18.799 16.6763 18.799H15.4992V17.0831ZM20.591 20.7222V19.4207H22.7878V18.3431H20.591V17.108H22.995V16.0138H19.4471V21.8164H23.0364V20.7222H20.591ZM29.5635 18.9151C29.5635 17.2157 28.2123 15.8977 26.5461 15.8977C24.8799 15.8977 23.537 17.2157 23.537 18.9151C23.537 20.6061 24.8799 21.9325 26.5461 21.9325C27.0766 21.9325 27.574 21.7998 28.0051 21.5594L28.6351 22.2143L29.4474 21.4931L28.8506 20.8714C29.2982 20.3492 29.5635 19.6694 29.5635 18.9151ZM26.5461 20.8134C25.5016 20.8134 24.6727 20.0259 24.6727 18.9151C24.6727 17.796 25.5016 17.0085 26.5461 17.0085C27.5906 17.0085 28.4195 17.796 28.4195 18.9151C28.4195 19.3544 28.2869 19.744 28.0714 20.0507L27.0518 18.9897L26.2394 19.7109L27.1927 20.7056C26.9938 20.7719 26.7699 20.8134 26.5461 20.8134ZM32.5311 21.9325C33.8076 21.9325 34.7526 21.1698 34.7526 19.9181V16.0138H33.6087V19.8269C33.6087 20.3906 33.3103 20.8134 32.5311 20.8134C31.7518 20.8134 31.4534 20.3906 31.4534 19.8269V16.0138H30.3178V19.9181C30.3178 21.1698 31.2628 21.9325 32.5311 21.9325ZM35.7832 16.0138V21.8164H36.9271V16.0138H35.7832ZM41.1844 21.8164H42.4196L41.1347 19.628C41.7978 19.3213 42.2538 18.6664 42.2538 17.9369C42.2538 16.8759 41.3917 16.0138 40.3223 16.0138H38.0013V21.8164H39.1452V19.8021H40.0156L41.1844 21.8164ZM39.1452 17.0831H40.3223C40.7534 17.0831 41.1098 17.4561 41.1098 17.9369C41.1098 18.4177 40.7534 18.799 40.3223 18.799H39.1452V17.0831ZM44.2371 20.7222V19.4207H46.4338V18.3431H44.2371V17.108H46.641V16.0138H43.0931V21.8164H46.6825V20.7222H44.2371ZM49.7933 16.0138H47.4888V21.8164H49.7933C51.3932 21.8164 52.5869 20.5481 52.5869 18.9151C52.5869 17.2821 51.3932 16.0138 49.7933 16.0138ZM49.7933 20.7222H48.6328V17.108H49.7933C50.7963 17.108 51.4926 17.8457 51.4926 18.9151C51.4926 19.9844 50.7963 20.7222 49.7933 20.7222ZM57.6342 16.0138H55.4707V21.8164H56.6146V19.9098H57.6342C58.7533 19.9098 59.6154 19.0477 59.6154 17.9618C59.6154 16.8759 58.7533 16.0138 57.6342 16.0138ZM57.6342 18.8405H56.6146V17.0831H57.6342C58.1233 17.0831 58.4798 17.4561 58.4798 17.9618C58.4798 18.4592 58.1233 18.8405 57.6342 18.8405ZM63.5433 21.8164H64.7785L63.4936 19.628C64.1568 19.3213 64.6127 18.6664 64.6127 17.9369C64.6127 16.8759 63.7506 16.0138 62.6812 16.0138H60.3602V21.8164H61.5041V19.8021H62.3745L63.5433 21.8164ZM61.5041 17.0831H62.6812C63.1123 17.0831 63.4687 17.4561 63.4687 17.9369C63.4687 18.4177 63.1123 18.799 62.6812 18.799H61.5041V17.0831ZM68.1311 21.9325C69.8056 21.9325 71.1485 20.6061 71.1485 18.9151C71.1485 17.2157 69.8056 15.8977 68.1311 15.8977C66.4566 15.8977 65.122 17.2157 65.122 18.9151C65.122 20.6061 66.4566 21.9325 68.1311 21.9325ZM68.1311 20.8134C67.0783 20.8134 66.2577 20.0259 66.2577 18.9151C66.2577 17.796 67.0783 17.0085 68.1311 17.0085C69.1839 17.0085 70.0045 17.796 70.0045 18.9151C70.0045 20.0259 69.1839 20.8134 68.1311 20.8134ZM74.116 16.0138H71.9525V21.8164H73.0964V19.9098H74.116C75.2351 19.9098 76.0972 19.0477 76.0972 17.9618C76.0972 16.8759 75.2351 16.0138 74.116 16.0138ZM74.116 18.8405H73.0964V17.0831H74.116C74.6051 17.0831 74.9616 17.4561 74.9616 17.9618C74.9616 18.4592 74.6051 18.8405 74.116 18.8405ZM77.9859 20.7222V19.4207H80.1826V18.3431H77.9859V17.108H80.3899V16.0138H76.842V21.8164H80.4313V20.7222H77.9859ZM84.4208 21.8164H85.656L84.3711 19.628C85.0342 19.3213 85.4902 18.6664 85.4902 17.9369C85.4902 16.8759 84.6281 16.0138 83.5587 16.0138H81.2377V21.8164H82.3816V19.8021H83.252L84.4208 21.8164ZM82.3816 17.0831H83.5587C83.9898 17.0831 84.3462 17.4561 84.3462 17.9369C84.3462 18.4177 83.9898 18.799 83.5587 18.799H82.3816V17.0831ZM90.0461 16.0138H85.7771V17.108H87.3355V21.8164H88.4794V17.108H90.0461V16.0138ZM90.6848 16.0138V21.8164H91.8287V16.0138H90.6848ZM94.0468 20.7222V19.4207H96.2435V18.3431H94.0468V17.108H96.4507V16.0138H92.9028V21.8164H96.4922V20.7222H94.0468ZM99.2797 21.9325C100.515 21.9325 101.385 21.2693 101.385 20.1834C101.385 18.998 100.407 18.6913 99.4869 18.4011C98.6083 18.1359 98.3844 17.9452 98.3844 17.5888C98.3844 17.2572 98.6663 17.0085 99.1471 17.0085C99.7356 17.0085 100.051 17.3152 100.258 17.7546L101.219 17.1992C100.83 16.3868 100.1 15.8977 99.1471 15.8977C98.1523 15.8977 97.2405 16.5277 97.2405 17.6219C97.2405 18.7244 98.1026 19.0975 98.9896 19.3544C99.8517 19.6031 100.241 19.7689 100.241 20.2C100.241 20.5232 100.001 20.8134 99.3129 20.8134C98.5917 20.8134 98.1855 20.4652 97.9783 19.9264L97.0001 20.4984C97.3151 21.3605 98.0943 21.9325 99.2797 21.9325Z" fill="#7A7A7A"/>
<path d="M36.0186 40.8041V39.7762H35.0818V38.6156L34.0125 38.9389V39.7762H33.2913V40.8041H34.0125V42.5283C34.0125 43.6473 34.5182 44.0867 36.0186 43.9209V42.951C35.4051 42.9842 35.0818 42.9759 35.0818 42.5283V40.8041H36.0186ZM37.303 39.2788C37.6678 39.2788 37.9662 38.9804 37.9662 38.6239C37.9662 38.2675 37.6678 37.9608 37.303 37.9608C36.9466 37.9608 36.6482 38.2675 36.6482 38.6239C36.6482 38.9804 36.9466 39.2788 37.303 39.2788ZM36.7725 43.9209H37.8419V39.7762H36.7725V43.9209ZM41.1914 40.8041V39.7762H40.2547V38.6156L39.1853 38.9389V39.7762H38.4641V40.8041H39.1853V42.5283C39.1853 43.6473 39.691 44.0867 41.1914 43.9209V42.951C40.578 42.9842 40.2547 42.9759 40.2547 42.5283V40.8041H41.1914ZM41.9453 43.9209H43.0147V37.8696H41.9453V43.9209ZM44.897 42.2879H48.0221C48.047 42.147 48.0636 42.006 48.0636 41.8485C48.0636 40.63 47.1932 39.6601 45.9663 39.6601C44.6649 39.6601 43.7779 40.6134 43.7779 41.8485C43.7779 43.0837 44.6566 44.037 46.0492 44.037C46.845 44.037 47.4667 43.7137 47.8563 43.15L46.9942 42.6526C46.8118 42.893 46.4803 43.0671 46.0658 43.0671C45.5021 43.0671 45.0462 42.835 44.897 42.2879ZM44.8804 41.4589C45.0047 40.9284 45.3943 40.6217 45.9663 40.6217C46.4139 40.6217 46.8616 40.8621 46.9942 41.4589H44.8804ZM50.9322 41.9314H54.0407V40.9035H50.9322V41.9314Z" fill="white"/>
<path d="M59.1709 44.037C60.4061 44.037 61.2765 43.3738 61.2765 42.2879C61.2765 41.1025 60.2983 40.7958 59.3782 40.5056C58.4995 40.2404 58.2757 40.0497 58.2757 39.6933C58.2757 39.3617 58.5575 39.113 59.0383 39.113C59.6268 39.113 59.9418 39.4197 60.1491 39.8591L61.1107 39.3037C60.7211 38.4913 59.9916 38.0022 59.0383 38.0022C58.0436 38.0022 57.1317 38.6322 57.1317 39.7264C57.1317 40.8289 57.9938 41.202 58.8808 41.4589C59.7429 41.7076 60.1325 41.8734 60.1325 42.3045C60.1325 42.6277 59.8921 42.9179 59.2041 42.9179C58.4829 42.9179 58.0767 42.5697 57.8695 42.0309L56.8913 42.6029C57.2063 43.465 57.9855 44.037 59.1709 44.037ZM64.2222 40.8041V39.7762H63.2855V38.6156L62.2161 38.9389V39.7762H61.495V40.8041H62.2161V42.5283C62.2161 43.6473 62.7218 44.0867 64.2222 43.9209V42.951C63.6088 42.9842 63.2855 42.9759 63.2855 42.5283V40.8041H64.2222ZM66.1103 40.4891V39.7762H65.0409V43.9209H66.1103V41.9397C66.1103 41.0693 66.8149 40.8206 67.3703 40.887V39.6933C66.848 39.6933 66.3258 39.9254 66.1103 40.4891ZM68.5262 39.2788C68.8909 39.2788 69.1893 38.9804 69.1893 38.6239C69.1893 38.2675 68.8909 37.9608 68.5262 37.9608C68.1697 37.9608 67.8713 38.2675 67.8713 38.6239C67.8713 38.9804 68.1697 39.2788 68.5262 39.2788ZM67.9957 43.9209H69.065V39.7762H67.9957V43.9209ZM72.3482 39.6601C71.7928 39.6601 71.3618 39.8673 71.1131 40.2404V39.7762H70.0437V43.9209H71.1131V41.6827C71.1131 40.9616 71.5027 40.6548 72.0249 40.6548C72.5057 40.6548 72.8456 40.945 72.8456 41.5087V43.9209H73.9149V41.376C73.9149 40.2735 73.2269 39.6601 72.3482 39.6601ZM78.0029 39.7762V40.2901C77.7127 39.9005 77.2651 39.6601 76.6765 39.6601C75.4994 39.6601 74.6125 40.6217 74.6125 41.7822C74.6125 42.951 75.4994 43.9043 76.6765 43.9043C77.2651 43.9043 77.7127 43.6639 78.0029 43.2743V43.722C78.0029 44.3768 77.5884 44.7416 76.9169 44.7416C76.2786 44.7416 76.0051 44.4846 75.831 44.1613L74.9192 44.6835C75.2839 45.355 75.9968 45.6948 76.8838 45.6948C77.978 45.6948 79.0473 45.0814 79.0473 43.722V39.7762H78.0029ZM76.8423 42.9179C76.1709 42.9179 75.6818 42.4454 75.6818 41.7822C75.6818 41.1273 76.1709 40.6548 76.8423 40.6548C77.5138 40.6548 78.0029 41.1273 78.0029 41.7822C78.0029 42.4454 77.5138 42.9179 76.8423 42.9179Z" fill="#7A7A7A"/>
<g clip-path="url(#clip0_1_1562)">
<path d="M19.3427 35.9211C16.3032 35.9211 13.8164 38.408 13.8164 41.4475C13.8164 44.4869 16.3032 46.9738 19.3427 46.9738C22.3822 46.9738 24.869 44.4869 24.869 41.4475C24.869 38.408 22.3822 35.9211 19.3427 35.9211ZM18.6519 43.7961L16.3032 41.4475L17.2704 40.4804L18.6519 41.8619L21.4151 39.0988L22.3822 40.0659L18.6519 43.7961Z" fill="#2FD690"/>
</g>
<path d="M34.7171 84.7V83.9871H33.6478V88.1318H34.7171V86.1507C34.7171 85.2803 35.4217 85.0316 35.9771 85.0979V83.9042C35.4549 83.9042 34.9326 84.1363 34.7171 84.7ZM37.133 83.4897C37.4978 83.4897 37.7962 83.1913 37.7962 82.8349C37.7962 82.4784 37.4978 82.1717 37.133 82.1717C36.7766 82.1717 36.4782 82.4784 36.4782 82.8349C36.4782 83.1913 36.7766 83.4897 37.133 83.4897ZM36.6025 88.1318H37.6719V83.9871H36.6025V88.1318ZM40.6235 88.2479C41.842 88.2479 42.8202 87.2946 42.8202 86.0595C42.8202 84.8243 41.842 83.871 40.6235 83.871C39.4049 83.871 38.4351 84.8243 38.4351 86.0595C38.4351 87.2946 39.4049 88.2479 40.6235 88.2479ZM40.6235 87.2034C39.9935 87.2034 39.5044 86.7309 39.5044 86.0595C39.5044 85.388 39.9935 84.9155 40.6235 84.9155C41.2618 84.9155 41.7509 85.388 41.7509 86.0595C41.7509 86.7309 41.2618 87.2034 40.6235 87.2034ZM42.766 89.5493H46.5377V88.5214H42.766V89.5493ZM48.7673 88.2479C49.9858 88.2479 50.964 87.2946 50.964 86.0595C50.964 84.8243 49.9858 83.871 48.7673 83.871C47.5487 83.871 46.5788 84.8243 46.5788 86.0595C46.5788 87.2946 47.5487 88.2479 48.7673 88.2479ZM48.7673 87.2034C48.1373 87.2034 47.6482 86.7309 47.6482 86.0595C47.6482 85.388 48.1373 84.9155 48.7673 84.9155C49.4055 84.9155 49.8946 85.388 49.8946 86.0595C49.8946 86.7309 49.4055 87.2034 48.7673 87.2034ZM54.8662 83.9871V84.4762C54.5678 84.1032 54.1202 83.871 53.515 83.871C52.4125 83.871 51.5007 84.8243 51.5007 86.0595C51.5007 87.2946 52.4125 88.2479 53.515 88.2479C54.1202 88.2479 54.5678 88.0158 54.8662 87.6428V88.1318H55.9356V83.9871H54.8662ZM53.714 87.2283C53.0591 87.2283 52.57 86.7558 52.57 86.0595C52.57 85.3632 53.0591 84.8907 53.714 84.8907C54.3772 84.8907 54.8662 85.3632 54.8662 86.0595C54.8662 86.7558 54.3772 87.2283 53.714 87.2283ZM56.6897 89.5493H60.4614V88.5214H56.6897V89.5493ZM63.8929 83.9871V84.501C63.6028 84.1114 63.1552 83.871 62.5666 83.871C61.3895 83.871 60.5026 84.8326 60.5026 85.9932C60.5026 87.162 61.3895 88.1153 62.5666 88.1153C63.1552 88.1153 63.6028 87.8749 63.8929 87.4853V87.9329C63.8929 88.5878 63.4785 88.9525 62.807 88.9525C62.1687 88.9525 61.8952 88.6955 61.7211 88.3722L60.8093 88.8945C61.174 89.5659 61.8869 89.9058 62.7739 89.9058C63.8681 89.9058 64.9374 89.2924 64.9374 87.9329V83.9871H63.8929ZM62.7324 87.1288C62.061 87.1288 61.5719 86.6563 61.5719 85.9932C61.5719 85.3383 62.061 84.8658 62.7324 84.8658C63.4039 84.8658 63.8929 85.3383 63.8929 85.9932C63.8929 86.6563 63.4039 87.1288 62.7324 87.1288ZM67.88 88.2479C68.6924 88.2479 69.397 87.8168 69.7534 87.1703L68.825 86.6397C68.6592 86.9796 68.3028 87.1868 67.8717 87.1868C67.2334 87.1868 66.7609 86.7143 66.7609 86.0595C66.7609 85.3963 67.2334 84.9238 67.8717 84.9238C68.2945 84.9238 68.6509 85.1393 68.8167 85.4792L69.7368 84.9404C69.397 84.3021 68.6924 83.871 67.88 83.871C66.62 83.871 65.6916 84.8243 65.6916 86.0595C65.6916 87.2946 66.62 88.2479 67.88 88.2479ZM72.7636 83.871C72.1585 83.871 71.7191 84.0949 71.4207 84.4762V83.9871H70.3514V89.7897H71.4207V87.6428C71.7191 88.0241 72.1585 88.2479 72.7636 88.2479C73.8744 88.2479 74.7862 87.2946 74.7862 86.0595C74.7862 84.8243 73.8744 83.871 72.7636 83.871ZM72.5646 87.2283C71.9098 87.2283 71.4207 86.7558 71.4207 86.0595C71.4207 85.3632 71.9098 84.8907 72.5646 84.8907C73.2278 84.8907 73.7169 85.3632 73.7169 86.0595C73.7169 86.7558 73.2278 87.2283 72.5646 87.2283ZM74.7339 89.5493H78.5056V88.5214H74.7339V89.5493ZM79.167 88.1318H80.2364V82.0805H79.167V88.1318ZM84.3651 83.9871V84.4762C84.0667 84.1032 83.619 83.871 83.0139 83.871C81.9114 83.871 80.9996 84.8243 80.9996 86.0595C80.9996 87.2946 81.9114 88.2479 83.0139 88.2479C83.619 88.2479 84.0667 88.0158 84.3651 87.6428V88.1318H85.4344V83.9871H84.3651ZM83.2129 87.2283C82.558 87.2283 82.0689 86.7558 82.0689 86.0595C82.0689 85.3632 82.558 84.8907 83.2129 84.8907C83.876 84.8907 84.3651 85.3632 84.3651 86.0595C84.3651 86.7558 83.876 87.2283 83.2129 87.2283ZM88.8163 83.871C88.2112 83.871 87.7719 84.0949 87.4735 84.4762V82.3292H86.4041V88.1318H87.4735V87.6428C87.7719 88.0241 88.2112 88.2479 88.8163 88.2479C89.9271 88.2479 90.839 87.2946 90.839 86.0595C90.839 84.8243 89.9271 83.871 88.8163 83.871ZM88.6174 87.2283C87.9625 87.2283 87.4735 86.7558 87.4735 86.0595C87.4735 85.3632 87.9625 84.8907 88.6174 84.8907C89.2806 84.8907 89.7696 85.3632 89.7696 86.0595C89.7696 86.7558 89.2806 87.2283 88.6174 87.2283ZM92.4967 86.4988H95.6218C95.6467 86.3579 95.6633 86.217 95.6633 86.0595C95.6633 84.8409 94.7929 83.871 93.566 83.871C92.2646 83.871 91.3776 84.8243 91.3776 86.0595C91.3776 87.2946 92.2563 88.2479 93.6489 88.2479C94.4447 88.2479 95.0664 87.9246 95.456 87.3609L94.5939 86.8635C94.4115 87.1039 94.08 87.278 93.6655 87.278C93.1018 87.278 92.6459 87.0459 92.4967 86.4988ZM92.4801 85.6699C92.6044 85.1393 92.994 84.8326 93.566 84.8326C94.0137 84.8326 94.4613 85.073 94.5939 85.6699H92.4801ZM96.4098 88.1318H97.4791V82.0805H96.4098V88.1318ZM99.4119 85.1642C99.4119 84.9404 99.6274 84.8243 99.8927 84.8243C100.199 84.8243 100.432 84.9818 100.556 85.2471L101.468 84.7497C101.144 84.1778 100.564 83.871 99.8927 83.871C99.0389 83.871 98.3177 84.3435 98.3177 85.1891C98.3177 86.648 100.456 86.3164 100.456 86.9216C100.456 87.162 100.224 87.278 99.8844 87.278C99.4699 87.278 99.1881 87.0791 99.072 86.7392L98.1436 87.2614C98.442 87.8997 99.0555 88.2479 99.8844 88.2479C100.771 88.2479 101.551 87.8168 101.551 86.9216C101.551 85.3963 99.4119 85.7776 99.4119 85.1642ZM104.401 86.1424H107.509V85.1145H104.401V86.1424Z" fill="white"/>
<path d="M113.402 88.2479C115.077 88.2479 116.42 86.9216 116.42 85.2305C116.42 83.5312 115.077 82.2132 113.402 82.2132C111.728 82.2132 110.393 83.5312 110.393 85.2305C110.393 86.9216 111.728 88.2479 113.402 88.2479ZM113.402 87.1288C112.35 87.1288 111.529 86.3413 111.529 85.2305C111.529 84.1114 112.35 83.3239 113.402 83.3239C114.455 83.3239 115.276 84.1114 115.276 85.2305C115.276 86.3413 114.455 87.1288 113.402 87.1288ZM119.586 83.871C118.981 83.871 118.542 84.0949 118.243 84.4762V82.3292H117.174V88.1318H118.243V87.6428C118.542 88.0241 118.981 88.2479 119.586 88.2479C120.697 88.2479 121.609 87.2946 121.609 86.0595C121.609 84.8243 120.697 83.871 119.586 83.871ZM119.387 87.2283C118.732 87.2283 118.243 86.7558 118.243 86.0595C118.243 85.3632 118.732 84.8907 119.387 84.8907C120.05 84.8907 120.539 85.3632 120.539 86.0595C120.539 86.7558 120.05 87.2283 119.387 87.2283ZM122.921 83.4897C123.278 83.4897 123.576 83.1913 123.576 82.8349C123.576 82.4784 123.278 82.1717 122.921 82.1717C122.557 82.1717 122.258 82.4784 122.258 82.8349C122.258 83.1913 122.557 83.4897 122.921 83.4897ZM122.382 88.2147C122.382 88.7204 122.15 88.911 121.645 88.8779V89.9058C122.872 89.9804 123.452 89.4333 123.452 88.2147V83.9871H122.382V88.2147ZM125.331 86.4988H128.456C128.481 86.3579 128.497 86.217 128.497 86.0595C128.497 84.8409 127.627 83.871 126.4 83.871C125.099 83.871 124.212 84.8243 124.212 86.0595C124.212 87.2946 125.09 88.2479 126.483 88.2479C127.279 88.2479 127.901 87.9246 128.29 87.3609L127.428 86.8635C127.246 87.1039 126.914 87.278 126.5 87.278C125.936 87.278 125.48 87.0459 125.331 86.4988ZM125.314 85.6699C125.439 85.1393 125.828 84.8326 126.4 84.8326C126.848 84.8326 127.295 85.073 127.428 85.6699H125.314ZM131.184 88.2479C131.997 88.2479 132.701 87.8168 133.058 87.1703L132.129 86.6397C131.964 86.9796 131.607 87.1868 131.176 87.1868C130.538 87.1868 130.065 86.7143 130.065 86.0595C130.065 85.3963 130.538 84.9238 131.176 84.9238C131.599 84.9238 131.955 85.1393 132.121 85.4792L133.041 84.9404C132.701 84.3021 131.997 83.871 131.184 83.871C129.924 83.871 128.996 84.8243 128.996 86.0595C128.996 87.2946 129.924 88.2479 131.184 88.2479ZM135.994 85.015V83.9871H135.057V82.8266L133.988 83.1499V83.9871H133.267V85.015H133.988V86.7392C133.988 87.8583 134.494 88.2976 135.994 88.1318V87.162C135.381 87.1951 135.057 87.1868 135.057 86.7392V85.015H135.994Z" fill="#7A7A7A"/>
<g clip-path="url(#clip1_1_1562)">
<path d="M19.3427 80.1323C16.3032 80.1323 13.8164 82.6192 13.8164 85.6586C13.8164 88.6981 16.3032 91.185 19.3427 91.185C22.3822 91.185 24.869 88.6981 24.869 85.6586C24.869 82.6192 22.3822 80.1323 19.3427 80.1323ZM18.6519 88.0073L16.3032 85.6586L17.2704 84.6915L18.6519 86.0731L21.4151 83.31L22.3822 84.2771L18.6519 88.0073Z" fill="#2FD690"/>
</g>
<path d="M34.1783 61.3848C34.543 61.3848 34.8415 61.0863 34.8415 60.7299C34.8415 60.3734 34.543 60.0667 34.1783 60.0667C33.8218 60.0667 33.5234 60.3734 33.5234 60.7299C33.5234 61.0863 33.8218 61.3848 34.1783 61.3848ZM33.6478 66.0269H34.7171V61.8821H33.6478V66.0269ZM36.6499 63.0592C36.6499 62.8354 36.8654 62.7194 37.1307 62.7194C37.4374 62.7194 37.6695 62.8769 37.7939 63.1421L38.7057 62.6448C38.3824 62.0728 37.8022 61.7661 37.1307 61.7661C36.2769 61.7661 35.5557 62.2386 35.5557 63.0841C35.5557 64.543 37.6944 64.2115 37.6944 64.8166C37.6944 65.057 37.4623 65.173 37.1224 65.173C36.7079 65.173 36.4261 64.9741 36.3101 64.6342L35.3816 65.1565C35.6801 65.7948 36.2935 66.1429 37.1224 66.1429C38.0094 66.1429 38.7886 65.7119 38.7886 64.8166C38.7886 63.2913 36.6499 63.6726 36.6499 63.0592ZM41.5477 66.1429C42.7828 66.1429 43.6532 65.4798 43.6532 64.3938C43.6532 63.2084 42.6751 62.9017 41.7549 62.6116C40.8763 62.3463 40.6524 62.1557 40.6524 61.7992C40.6524 61.4676 40.9343 61.219 41.4151 61.219C42.0036 61.219 42.3186 61.5257 42.5259 61.965L43.4874 61.4096C43.0978 60.5973 42.3684 60.1082 41.4151 60.1082C40.4203 60.1082 39.5085 60.7382 39.5085 61.8324C39.5085 62.9349 40.3706 63.3079 41.2576 63.5649C42.1197 63.8136 42.5093 63.9794 42.5093 64.4104C42.5093 64.7337 42.2689 65.0238 41.5809 65.0238C40.8597 65.0238 40.4535 64.6757 40.2463 64.1369L39.2681 64.7088C39.5831 65.5709 40.3623 66.1429 41.5477 66.1429ZM47.6129 61.8821V62.3712C47.3145 61.9982 46.8669 61.7661 46.2618 61.7661C45.1593 61.7661 44.2474 62.7194 44.2474 63.9545C44.2474 65.1896 45.1593 66.1429 46.2618 66.1429C46.8669 66.1429 47.3145 65.9108 47.6129 65.5378V66.0269H48.6823V61.8821H47.6129ZM46.4607 65.1233C45.8058 65.1233 45.3168 64.6508 45.3168 63.9545C45.3168 63.2582 45.8058 62.7857 46.4607 62.7857C47.1239 62.7857 47.6129 63.2582 47.6129 63.9545C47.6129 64.6508 47.1239 65.1233 46.4607 65.1233ZM51.8818 61.1361V60.1082C50.5638 60.0253 49.9338 60.6967 49.9338 61.8407V61.8821H49.337V62.91H49.9338V66.0269H51.0031V62.91H51.8818V61.8821H51.0031V61.8407C51.0031 61.277 51.3264 61.0946 51.8818 61.1361ZM53.1217 64.3938H56.2468C56.2717 64.2529 56.2883 64.112 56.2883 63.9545C56.2883 62.7359 55.4179 61.7661 54.191 61.7661C52.8896 61.7661 52.0026 62.7194 52.0026 63.9545C52.0026 65.1896 52.8813 66.1429 54.2739 66.1429C55.0697 66.1429 55.6914 65.8196 56.081 65.2559L55.2189 64.7586C55.0366 64.999 54.705 65.173 54.2905 65.173C53.7268 65.173 53.2709 64.9409 53.1217 64.3938ZM53.1051 63.5649C53.2294 63.0344 53.6191 62.7276 54.191 62.7276C54.6387 62.7276 55.0863 62.968 55.2189 63.5649H53.1051Z" fill="#F4CB7A"/>
<path d="M59.1569 64.0374H62.2654V63.0095H59.1569V64.0374Z" fill="white"/>
<path d="M68.9209 63.0178C69.2608 62.7442 69.468 62.3546 69.468 61.8573C69.468 60.8874 68.6805 60.2242 67.7023 60.2242H65.4145V66.0269H67.8764C68.8795 66.0269 69.6835 65.3388 69.6835 64.3441C69.6835 63.739 69.3851 63.283 68.9209 63.0178ZM67.7023 61.2936C68.0671 61.2936 68.3241 61.5671 68.3241 61.9319C68.3241 62.2966 68.0588 62.5701 67.7023 62.5701H66.5584V61.2936H67.7023ZM67.8764 64.9575H66.5584V63.5898H67.8764C68.266 63.5898 68.5479 63.8799 68.5479 64.2695C68.5479 64.6674 68.266 64.9575 67.8764 64.9575ZM72.4214 66.1429C73.6399 66.1429 74.6181 65.1896 74.6181 63.9545C74.6181 62.7194 73.6399 61.7661 72.4214 61.7661C71.2028 61.7661 70.233 62.7194 70.233 63.9545C70.233 65.1896 71.2028 66.1429 72.4214 66.1429ZM72.4214 65.0984C71.7914 65.0984 71.3023 64.6259 71.3023 63.9545C71.3023 63.283 71.7914 62.8105 72.4214 62.8105C73.0597 62.8105 73.5488 63.283 73.5488 63.9545C73.5488 64.6259 73.0597 65.0984 72.4214 65.0984ZM77.3433 66.1429C78.5618 66.1429 79.54 65.1896 79.54 63.9545C79.54 62.7194 78.5618 61.7661 77.3433 61.7661C76.1247 61.7661 75.1548 62.7194 75.1548 63.9545C75.1548 65.1896 76.1247 66.1429 77.3433 66.1429ZM77.3433 65.0984C76.7133 65.0984 76.2242 64.6259 76.2242 63.9545C76.2242 63.283 76.7133 62.8105 77.3433 62.8105C77.9816 62.8105 78.4706 63.283 78.4706 63.9545C78.4706 64.6259 77.9816 65.0984 77.3433 65.0984ZM80.2922 66.0269H81.3616V59.9755H80.2922V66.0269ZM83.2439 64.3938H86.369C86.3939 64.2529 86.4105 64.112 86.4105 63.9545C86.4105 62.7359 85.5401 61.7661 84.3132 61.7661C83.0118 61.7661 82.1248 62.7194 82.1248 63.9545C82.1248 65.1896 83.0035 66.1429 84.3961 66.1429C85.1919 66.1429 85.8136 65.8196 86.2032 65.2559L85.3411 64.7586C85.1587 64.999 84.8272 65.173 84.4127 65.173C83.849 65.173 83.3931 64.9409 83.2439 64.3938ZM83.2273 63.5649C83.3516 63.0344 83.7412 62.7276 84.3132 62.7276C84.7609 62.7276 85.2085 62.968 85.3411 63.5649H83.2273ZM90.2746 61.8821V62.3712C89.9762 61.9982 89.5285 61.7661 88.9234 61.7661C87.8209 61.7661 86.9091 62.7194 86.9091 63.9545C86.9091 65.1896 87.8209 66.1429 88.9234 66.1429C89.5285 66.1429 89.9762 65.9108 90.2746 65.5378V66.0269H91.3439V61.8821H90.2746ZM89.1223 65.1233C88.4675 65.1233 87.9784 64.6508 87.9784 63.9545C87.9784 63.2582 88.4675 62.7857 89.1223 62.7857C89.7855 62.7857 90.2746 63.2582 90.2746 63.9545C90.2746 64.6508 89.7855 65.1233 89.1223 65.1233ZM94.6181 61.7661C94.0627 61.7661 93.6316 61.9733 93.3829 62.3463V61.8821H92.3136V66.0269H93.3829V63.7887C93.3829 63.0675 93.7725 62.7608 94.2948 62.7608C94.7756 62.7608 95.1154 63.0509 95.1154 63.6146V66.0269H96.1848V63.482C96.1848 62.3795 95.4968 61.7661 94.6181 61.7661Z" fill="#7A7A7A"/>
<g clip-path="url(#clip2_1_1562)">
<path d="M19.343 58.0276C16.3035 58.0276 13.8167 60.5144 13.8167 63.5539C13.8167 66.5934 16.3035 69.0802 19.343 69.0802C22.3824 69.0802 24.8693 66.5934 24.8693 63.5539C24.8693 60.5144 22.3824 58.0276 19.343 58.0276ZM21.7607 65.0046L20.7936 65.9717L19.343 64.521L17.8923 65.9717L16.9252 65.0046L18.3759 63.5539L16.9252 62.1032L17.8923 61.1361L19.343 62.5868L20.7936 61.1361L21.7607 62.1032L20.3101 63.5539L21.7607 65.0046Z" fill="#7A7A7A"/>
</g>
<defs>
<filter id="filter0_d_1_1562" x="-50" y="-30" width="296.184" height="205" filterUnits="userSpaceOnUse" color-interpolation-filters="sRGB">
<feFlood flood-opacity="0" result="BackgroundImageFix"/>
<feColorMatrix in="SourceAlpha" type="matrix" values="0 0 0 0 0 0 0 0 0 0 0 0 0 0 0 0 0 0 127 0" result="hardAlpha"/>
<feOffset dy="20"/>
<feGaussianBlur stdDeviation="25"/>
<feColorMatrix type="matrix" values="0 0 0 0 0.0705882 0 0 0 0 0.0666667 0 0 0 0 0.152941 0 0 0 0.08 0"/>
<feBlend mode="normal" in2="BackgroundImageFix" result="effect1_dropShadow_1_1562"/>
<feBlend mode="normal" in="SourceGraphic" in2="effect1_dropShadow_1_1562" result="shape"/>
</filter>
<clipPath id="clip0_1_1562">
<rect width="11.0526" height="11.0526" fill="white" transform="translate(13.8164 35.9211)"/>
</clipPath>
<clipPath id="clip1_1_1562">
<rect width="11.0526" height="11.0526" fill="white" transform="translate(13.8164 80.1323)"/>
</clipPath>
<clipPath id="clip2_1_1562">
<rect width="11.0526" height="11.0526" fill="white" transform="translate(13.8164 58.0276)"/>
</clipPath>
</defs>
</svg>
